<svg xmlns="http://www.w3.org/2000/svg" xmlns:xlink="http://www.w3.org/1999/xlink" viewBox="0 0 394.27 392"><defs><style>.cls-1{fill:none;}.cls-2{fill:#fff;}.cls-3{font-size:88px;fill:#3a3a3a;font-family:BebasNeue, Bebas Neue;letter-spacing:0.1em;}.cls-4{letter-spacing:0.1em;}.cls-5{clip-path:url(#clip-path);}.cls-6{fill:url(#radial-gradient);}.cls-7,.cls-9{fill:#b01f43;}.cls-7{opacity:0.65;}.cls-8{fill:#3d3d3d;}.cls-10{fill:url(#linear-gradient);}</style><clipPath id="clip-path"><rect class="cls-1" x="66.21" y="2" width="262.92" height="262.92"/></clipPath><radialGradient id="radial-gradient" cx="197.17" cy="185.86" r="154.12" gradientUnits="userSpaceOnUse"><stop offset="0" stop-color="#b01f43"/><stop offset="0.4" stop-color="#b12145" stop-opacity="0.99"/><stop offset="0.55" stop-color="#b42a4c" stop-opacity="0.95"/><stop offset="0.65" stop-color="#b93959" stop-opacity="0.88"/><stop offset="0.73" stop-color="#c14f6b" stop-opacity="0.79"/><stop offset="0.8" stop-color="#cb6b82" stop-opacity="0.66"/><stop offset="0.87" stop-color="#d78d9f" stop-opacity="0.51"/><stop offset="0.92" stop-color="#e5b6c2" stop-opacity="0.32"/><stop offset="0.98" stop-color="#f6e5e9" stop-opacity="0.12"/><stop offset="1" stop-color="#fff" stop-opacity="0"/></radialGradient><linearGradient id="linear-gradient" x1="214.07" y1="248.93" x2="180.27" y2="122.79" gradientUnits="userSpaceOnUse"><stop offset="0" stop-color="#fff"/><stop offset="0.23" stop-color="#e6b7c2"/><stop offset="0.46" stop-color="#cf768c"/><stop offset="0.65" stop-color="#be4764"/><stop offset="0.79" stop-color="#b42a4c"/><stop offset="0.88" stop-color="#b01f43"/></linearGradient></defs><title>SpotOnTextAsset 7</title><g id="Layer_2" data-name="Layer 2"><g id="Logo1"><rect class="cls-2" x="1.66" width="392" height="392"/><text class="cls-3" transform="translate(115.34 346.01)">A<tspan class="cls-4" x="44.53" y="0">CRE</tspan></text><g class="cls-5"><circle class="cls-6" cx="197.17" cy="185.86" r="154.12"/><circle class="cls-7" cx="197.17" cy="185.86" r="121.49"/><path class="cls-8" d="M197.17,310.07A124.21,124.21,0,1,1,321.38,185.86,124.35,124.35,0,0,1,197.17,310.07Zm0-243A118.77,118.77,0,1,0,315.94,185.86,118.89,118.89,0,0,0,197.17,67.1Z"/><circle class="cls-9" cx="197.17" cy="185.86" r="90.66"/><path class="cls-8" d="M197.17,279.24a93.38,93.38,0,1,1,93.38-93.38A93.49,93.49,0,0,1,197.17,279.24Zm0-181.32a87.94,87.94,0,1,0,87.94,87.94A88,88,0,0,0,197.17,97.92Z"/><circle class="cls-10" cx="197.17" cy="185.86" r="65.28"/><path class="cls-8" d="M197.17,126a59.84,59.84,0,1,1-59.83,59.84A59.91,59.91,0,0,1,197.17,126m0-5.44a65.28,65.28,0,1,0,65.28,65.28,65.28,65.28,0,0,0-65.28-65.28Z"/><polyline class="cls-2" points="66.05 268.54 66.35 151.31 328.97 268.54"/><path class="cls-2" d="M328.67,268.87s-26.22-34.38-126.21-80.39C141.29,160.33,65.6,151.31,65.6,151.31"/><path class="cls-8" d="M326.51,270.53c-.26-.34-27.25-34.51-125.19-79.58C141.23,163.3,66,154.1,65.28,154l.64-5.4c.76.09,76.82,9.39,137.67,37.4,99.47,45.77,126.16,79.79,127.24,81.22Z"/><path class="cls-2" d="M312.35,289.73s-26.22-34.39-126.21-80.4C125,181.18,49.28,172.16,49.28,172.16"/><path class="cls-8" d="M310.19,291.38c-.26-.34-27.25-34.51-125.19-79.58C124.91,184.15,49.71,175,49,174.86l.64-5.4c.76.09,76.82,9.4,137.68,37.4,99.46,45.77,126.15,79.79,127.24,81.22Z"/><path class="cls-2" d="M296,310.58s-26.22-34.38-126.21-80.4C108.65,202,33,193,33,193"/><path class="cls-8" d="M293.87,312.23c-.26-.34-27.25-34.51-125.19-79.58C108.59,205,33.39,195.8,32.64,195.71l.64-5.4c.76.09,76.82,9.4,137.68,37.4,99.46,45.77,126.15,79.79,127.24,81.22Z"/><path class="cls-2" d="M279.71,331.43S253.49,297.05,153.5,251C92.33,222.89,16.64,213.86,16.64,213.86"/><path class="cls-8" d="M277.56,333.08c-.27-.34-27.26-34.51-125.2-79.57-60.08-27.65-135.29-36.86-136-36.95l.64-5.4c.76.09,76.82,9.4,137.68,37.41,99.46,45.76,126.15,79.78,127.24,81.21Z"/><path class="cls-2" d="M263.4,352.28s-26.22-34.38-126.22-80.39C76,243.74.32,234.71.32,234.71"/><path class="cls-8" d="M261.24,353.94c-.26-.34-27.26-34.52-125.19-79.58C76,246.71.75,237.51,0,237.42L.64,232c.77.1,76.82,9.4,137.68,37.41,99.46,45.77,126.15,79.79,127.24,81.21Z"/><polyline class="cls-2" points="328.97 268.54 328.67 151.31 66.05 268.54"/><path class="cls-2" d="M65.6,268.87s26.22-34.38,126.21-80.39c61.17-28.15,136.86-37.17,136.86-37.17"/><path class="cls-8" d="M67.76,270.53l-4.32-3.3c1.08-1.43,27.77-35.45,127.23-81.22,60.86-28,136.92-37.31,137.68-37.4L329,154c-.75.09-76,9.3-136,36.94C95,236,68,270.19,67.76,270.53Z"/><path class="cls-2" d="M81.92,289.73s26.22-34.39,126.21-80.4C269.3,181.18,345,172.16,345,172.16"/><path class="cls-8" d="M84.08,291.38l-4.33-3.3c1.09-1.43,27.78-35.45,127.24-81.22,60.86-28,136.92-37.31,137.68-37.4l.64,5.4c-.75.09-76,9.3-136,36.94C111.33,256.87,84.34,291,84.08,291.38Z"/><path class="cls-2" d="M98.24,310.58s26.22-34.38,126.21-80.4C285.62,202,361.31,193,361.31,193"/><path class="cls-8" d="M100.4,312.23l-4.33-3.3c1.09-1.43,27.78-35.45,127.24-81.22,60.86-28,136.92-37.31,137.68-37.4l.64,5.4c-.75.09-76,9.3-136,36.94C127.65,277.72,100.66,311.89,100.4,312.23Z"/><path class="cls-2" d="M114.56,331.43S140.78,297.05,240.77,251c61.17-28.15,136.86-37.18,136.86-37.18"/><path class="cls-8" d="M116.71,333.08l-4.32-3.3c1.09-1.43,27.78-35.45,127.24-81.21,60.86-28,136.92-37.32,137.68-37.41l.64,5.4c-.75.09-76,9.31-136,36.95C144,298.57,117,332.74,116.71,333.08Z"/><path class="cls-2" d="M130.87,352.28s26.22-34.38,126.22-80.39C318.26,243.74,394,234.71,394,234.71"/><path class="cls-8" d="M133,353.94l-4.32-3.31c1.09-1.42,27.78-35.44,127.24-81.21,60.86-28,136.91-37.31,137.68-37.41l.64,5.41c-.75.09-76,9.3-136,36.94C160.29,319.42,133.29,353.6,133,353.94Z"/></g></g></g></svg>