<svg xmlns="http://www.w3.org/2000/svg" xmlns:xlink="http://www.w3.org/1999/xlink" viewBox="0 0 392 392"><defs><style>.cls-1{fill:none;stroke:#83b0b2;stroke-miterlimit:10;stroke-width:4px;}.cls-2{fill:#fff;}.cls-3{font-size:87.79px;fill:#83b0b2;font-family:NeutraDisp-Bold, Neutra Display;font-weight:700;letter-spacing:0.15em;}.cls-4{letter-spacing:0.2em;}.cls-5{clip-path:url(#clip-path);}</style><clipPath id="clip-path"><path class="cls-1" d="M255.21,58.1c1,12,2.1,23.7,3.12,35.41,2,23.37,4,46.75,6.07,70.11,4.24,47.2-40,84.51-85.89,72.41-37.64-9.92-59.78-49.71-48-86.8a67.21,67.21,0,0,1,32.2-39.58Q208.41,84,254.24,58.47C254.45,58.36,254.69,58.3,255.21,58.1Z"/></clipPath></defs><title>SpotOnTextAsset 8</title><g id="Layer_2" data-name="Layer 2"><g id="leaf2_Copy" data-name="leaf2 Copy"><rect class="cls-2" width="392" height="392"/><text class="cls-3" transform="translate(52.77 347.45)">A<tspan class="cls-4" x="69.79" y="0">CRE</tspan></text><g class="cls-5"><line class="cls-1" x1="255.28" y1="58.14" x2="163.78" y2="230.25"/><line class="cls-1" x1="215.53" y1="132.91" x2="193.11" y2="53.28"/><line class="cls-1" x1="192.35" y1="176.51" x2="127.54" y2="71.41"/><line class="cls-1" x1="172.83" y1="213.23" x2="100.55" y2="127.7"/><line class="cls-1" x1="215.53" y1="132.91" x2="294.08" y2="106.97"/><line class="cls-1" x1="192.35" y1="176.51" x2="315.72" y2="171.46"/><line class="cls-1" x1="172.83" y1="213.23" x2="284.14" y2="225.31"/></g><path class="cls-1" d="M255.21,58.1c1,12,2.1,23.7,3.12,35.41,2,23.37,4,46.75,6.07,70.11,4.24,47.2-40,84.51-85.89,72.41-37.64-9.92-59.78-49.71-48-86.8a67.21,67.21,0,0,1,32.2-39.58Q208.41,84,254.24,58.47C254.45,58.36,254.69,58.3,255.21,58.1Z"/><path class="cls-1" d="M163.32,231c2.86-5.16-.42.79-5.13,9.12C156,244,151,251.65,147.44,254.3s-15.69,5.91-15.69,5.91"/></g></g></svg>