<?xml version="1.0" encoding="UTF-8"?>
<svg width="565px" height="166px" viewBox="0 0 565 166" version="1.1" xmlns="http://www.w3.org/2000/svg" xmlns:xlink="http://www.w3.org/1999/xlink">
    <!-- Generator: Sketch 51.2 (57519) - http://www.bohemiancoding.com/sketch -->
    <title>Logo</title>
    <desc>Created with Sketch.</desc>
    <defs>
        <path d="M108.182042,0.71962011 C108.647808,10.5457667 109.130208,20.1557713 109.579339,29.7491496 C110.494236,48.9026536 111.242788,67.9896523 112.274127,87.2096616 C113.35728,109.851909 100.704249,130.92175 80.2029227,140.614665 C59.7015963,150.30758 35.3790063,146.719612 18.5532861,131.520364 C1.72756595,116.321115 -4.29624369,92.4961442 3.28494191,71.1320241 C7.98390285,57.4921739 17.8682949,46.250776 30.7983899,39.8413171 C56.3046094,26.8727987 81.8108288,13.9264488 107.317048,1.0022673 C107.549931,0.852630555 107.749545,0.852630555 108.182042,0.71962011 Z" id="path-1"></path>
        <polygon id="path-3" points="0 0.448392614 0 99.0122711 85.1292097 99.0122711 85.1292097 0.448392614 0 0.448392614"></polygon>
        <polygon id="path-5" points="89.8436395 99.4818342 0.0764907779 99.4818342 0.0764907779 0.350832858 89.8436395 0.350832858 89.8436395 99.4818342"></polygon>
    </defs>
    <g id="Page-1" stroke="none" stroke-width="1" fill="none" fill-rule="evenodd">
        <g id="Artboard" transform="translate(-76.000000, -59.000000)">
            <g id="Logo" transform="translate(78.000000, 61.000000)">
                <g id="Group-5">
                    <g id="Leaf">
                        <g id="Asset-1">
                            <g id="Group">
                                <g id="Shape-+-Shape-+-Shape-+-Shape-+-Shape-+-Shape-+-Shape-Mask">
                                    <mask id="mask-2" fill="white">
                                        <use xlink:href="#path-1"></use>
                                    </mask>
                                    <use id="Mask" stroke="#4A4A4A" stroke-width="4" xlink:href="#path-1"></use>
                                    <path d="M108.231945,0.752872721 L27.887354,138.402056" id="Shape" stroke="#4A4A4A" stroke-width="4" mask="url(#mask-2)"></path>
                                    <path d="M73.3327833,60.5410675 L57.5799204,-5.21597097" id="Shape" stroke="#4A4A4A" stroke-width="4" mask="url(#mask-2)"></path>
                                    <path d="M52.9721664,95.4230565 L3.41801784,7.46990016" id="Shape" stroke="#4A4A4A" stroke-width="4" mask="url(#mask-2)"></path>
                                    <path d="M35.8386407,124.785112 L-20.4691112,52.5936934" id="Shape" stroke="#4A4A4A" stroke-width="4" mask="url(#mask-2)"></path>
                                    <path d="M73.3327833,60.5410675 L138.373643,41.9029789" id="Shape" stroke="#4A4A4A" stroke-width="4" mask="url(#mask-2)"></path>
                                    <path d="M52.9721664,95.4230565 L153.976795,95.2734197" id="Shape" stroke="#4A4A4A" stroke-width="4" mask="url(#mask-2)"></path>
                                    <path d="M35.8386407,124.785112 L126.413444,138.25242" id="Shape" stroke="#4A4A4A" stroke-width="4" mask="url(#mask-2)"></path>
                                </g>
                            </g>
                            <path d="M27.4714917,139.01723 C29.9832999,134.893906 27.1055329,139.649029 22.9801792,146.299551 C21.0672127,149.392044 16.7256106,155.460646 13.7480367,157.505681 C10.7704628,159.550717 0.7398648,161.828521 0.7398648,161.828521" id="Shape" stroke="#4A4A4A" stroke-width="4"></path>
                        </g>
                    </g>
                </g>
                <g id="Page-1" transform="translate(140.000000, 32.000000)">
                    <g id="Group-3">
                        <mask id="mask-4" fill="white">
                            <use xlink:href="#path-3"></use>
                        </mask>
                        <g id="Clip-2"></g>
                        <path d="M42.3521991,33.8238789 L26.3984515,72.0278354 L58.0229533,72.0278354 C58.162842,72.0278354 42.3521991,33.8238789 42.3521991,33.8238789 Z M15.2475506,99.0122711 L-0.0003215833,99.0122711 L42.0692058,0.448392614 L42.9181857,0.448392614 L85.1292097,99.0122711 L69.1754622,99.0122711 L63.6699561,85.5200533 L20.7514488,85.5200533 L15.2475506,99.0122711 Z" id="Fill-1" fill="#4A4A4A" mask="url(#mask-4)"></path>
                    </g>
                    <g id="Group-6" transform="translate(115.529003, 0.808000)">
                        <mask id="mask-6" fill="white">
                            <use xlink:href="#path-5"></use>
                        </mask>
                        <g id="Clip-5"></g>
                        <path d="M49.130994,0.350832858 C66.9417701,0.350832858 79.2412204,7.30965329 87.5814681,19.096944 L75.9888458,27.3352686 C69.6273943,18.671521 61.4272241,14.1277444 48.7059312,14.1277444 C29.6231868,14.1277444 15.7683931,29.4640012 15.7683931,49.916657 C15.7683931,70.7931183 29.9033419,85.7055696 49.2726816,85.7055696 C61.7105993,85.7055696 70.8993626,81.0194463 78.1093296,71.6471995 L89.8436395,79.7399421 C79.9464382,92.9490838 67.3668329,99.4824812 48.7059312,99.4824812 C21.2813291,99.4824812 0.0764907779,78.4620555 0.0764907779,49.916657 C0.0764907779,21.3712586 21.7063919,0.350832858 49.130994,0.350832858 Z" id="Fill-4" fill="#4A4A4A" mask="url(#mask-6)"></path>
                    </g>
                    <path d="M273.018213,62.0100546 C291.447029,62.0100546 298.902192,53.4567212 298.902192,39.1063556 C298.902192,24.895848 291.306033,16.3409432 273.018213,16.3409432 L264.156295,16.3409432 L264.156295,62.0100546 L273.018213,62.0100546 Z M314.656891,97.0546783 L296.792059,97.0546783 L280.473376,74.2876944 C278.364845,74.5642673 275.97272,74.7025538 273.582197,74.7025538 L264.156295,74.7025538 L264.156295,97.0546783 L249.103372,97.0546783 L249.103372,3.23515594 L273.582197,3.23515594 C299.887562,3.23515594 314.376501,17.4456636 314.376501,39.1063556 C314.376501,53.5950077 307.765712,64.7694985 295.244307,70.4251014 L314.656891,97.0546783 Z" id="Fill-7" fill="#4A4A4A"></path>
                    <polygon id="Fill-9" fill="#4A4A4A" points="360.544354 3.23515594 420.870011 3.23515594 420.870011 16.3425146 375.45241 16.3425146 375.45241 55.2497312 415.71606 55.2497312 415.71606 68.0820884 375.45241 68.0820884 375.45241 83.9473196 422.820197 83.9473196 422.820197 97.0546783 360.544354 97.0546783"></polygon>
                </g>
            </g>
        </g>
    </g>
</svg>