<svg xmlns="http://www.w3.org/2000/svg" viewBox="0 0 392 392"><defs><style>.cls-1{fill:#fff;}.cls-2{opacity:0.85;}.cls-3{fill:#5db169;}.cls-4{font-size:72px;fill:#71ae70;font-family:FuturaPT-Heavy, Futura PT;letter-spacing:0.18em;}.cls-5{letter-spacing:0.2em;}</style></defs><title>SpotOnTextAsset 9</title><g id="Layer_2" data-name="Layer 2"><g id="Layer_1-2" data-name="Layer 1"><rect class="cls-1" width="392" height="392"/><g class="cls-2"><path class="cls-3" d="M98.07,145.75c0-.29,0-.59,0-.89a2,2,0,0,1-.15.45A.5.5,0,0,0,98.07,145.75Z"/><path class="cls-3" d="M98.11,144a.76.76,0,0,0,0-.15c0-.05,0-.1,0-.14S98.11,143.93,98.11,144Z"/><path class="cls-3" d="M98,142.46a5.28,5.28,0,0,0,0,.8A2.43,2.43,0,0,0,98,142.46Z"/><path class="cls-3" d="M97.9,143.71c.06-.1.13-.15.18,0h0l-.06-.47A1.84,1.84,0,0,1,97.9,143.71Z"/><path class="cls-3" d="M97.9,143.71c-.06.09-.12.24-.16.29A2,2,0,0,0,97.9,143.71Z"/><path class="cls-3" d="M96.38,143.31c0-.15.38-.12.28-.43a12.78,12.78,0,0,1-.31-2c-.1-.31.38-.81.28-1.12-.12-.73-.7-2.6-.67-1.5.06,1.66.18,2.74.26,4.23.17,1.21.38,2.37.53,3.61a6.59,6.59,0,0,1,0,1c.07-.42.13-.86.2-1.34C97,145.08,96.47,144.31,96.38,143.31Z"/><path class="cls-3" d="M97.81,152.37l-.15-.47a3.61,3.61,0,0,0,.07-2.16l-.21.32c0,.42.14.47.24.1a6.63,6.63,0,0,0-.26,2.48C97.62,152.59,97.75,152.6,97.81,152.37Z"/><path class="cls-3" d="M97.53,153.13l0-.49,0,0,.06.48Z"/><path class="cls-3" d="M97.61,139.14c0-2.07,0-4,0-5.94-.09-.15-.19-.25-.14-.45a1.62,1.62,0,0,0,.16-.45c0-.28,0-.56,0-.83l0-.3h0c0-.15-.11-.11-.17,0a1.57,1.57,0,0,1-.16.29c0-.05.09-.2.16-.29a2.44,2.44,0,0,0,.12-.45,4.21,4.21,0,0,1,0-.8,2.74,2.74,0,0,1,0,.8l.06.47a.74.74,0,0,0,0,.14c0-.64,0-1.27.06-1.91,0-.14,0-.28,0-.4a1.75,1.75,0,0,1,.1-1.2c0-.11,0-.22,0-.34a.25.25,0,0,1,0,.07,1,1,0,0,1,0-.13L97.9,126c-.08-.31-.19-.63-.25-1l.22-.32a1.16,1.16,0,0,1-.22-.54c-.13.26-.27.5-.36.72s.44.72,0,1.1c.41-.38-.24-.78,0-1.1s.23-.46.36-.72a2.87,2.87,0,0,1,.21-1.51,1.93,1.93,0,0,1-.21,1.51,1.16,1.16,0,0,0,.22.54l-.22.32c.06.33.17.65.25,1,0-.94.07-1.89.11-2.87.27-6.25.22-12,.43-18.5.12-3.51.31-6.88.56-10.19.5-6.6-.08-12.63,1-19.29a74.47,74.47,0,0,0,.13-9.78c-.71-3.31-2.56-1.59-2.67-1.44-1.58,2-.7,3.62-1.63,7.76.53-2.82,1,2.09-.06,4.75-1.65,3.85-.33,9.35-.75,14.1-.11,1.19,0,2.46-.07,3.88-.56,7.36.14,14.21,0,22a43,43,0,0,0,.63,5.58c.07,1.26-.14,2.61-.14,3.64a29.73,29.73,0,0,0,.34,4.33c-.08-1.48-.19-2.57-.26-4.23,0-1.1.56.77.68,1.5.1.32-.38.81-.29,1.12a12.84,12.84,0,0,0,.32,2c.1.31-.34.28-.29.43.1,1,.65,1.77.53,2.41-.06.48-.13.92-.19,1.34a4.47,4.47,0,0,0,0,.82c0,.18.07.36.11.55a.87.87,0,0,1,.46-.25c0,.26-.12.64-.15.9,0-.26.12-.64.15-.9a.87.87,0,0,0-.46.25c.25,1.31.48,2.82.67,4.23l0,0a6.86,6.86,0,0,1,.25-2.48c-.09.37-.21.33-.24-.1l.22-.32a3.69,3.69,0,0,1-.07,2.16l.15.47c-.06.23-.2.22-.31.27s0,.33,0,.49A8.31,8.31,0,0,0,97.61,139.14Z"/><path class="cls-3" d="M97.62,130.68c0,.11,0,.25,0,.4,0-.53,0-1.07,0-1.6A1.74,1.74,0,0,0,97.62,130.68Z"/></g><g class="cls-2"><path class="cls-3" d="M125.62,145.75c0-.29,0-.59,0-.89a2,2,0,0,1-.15.45A.5.5,0,0,0,125.62,145.75Z"/><path class="cls-3" d="M125.66,144a.76.76,0,0,0,0-.15c0-.05,0-.1,0-.14Z"/><path class="cls-3" d="M125.55,142.46a4.24,4.24,0,0,0,0,.8A2.74,2.74,0,0,0,125.55,142.46Z"/><path class="cls-3" d="M125.45,143.71c.06-.1.13-.15.18,0h0l-.06-.47A1.84,1.84,0,0,1,125.45,143.71Z"/><path class="cls-3" d="M125.45,143.71c-.06.09-.12.24-.16.29A2,2,0,0,0,125.45,143.71Z"/><path class="cls-3" d="M123.92,143.31c0-.15.39-.12.29-.43a12.78,12.78,0,0,1-.31-2c-.1-.31.38-.81.28-1.12-.12-.73-.7-2.6-.67-1.5.06,1.66.18,2.74.26,4.23.17,1.21.38,2.37.53,3.61a6.59,6.59,0,0,1,0,1c.07-.42.13-.86.2-1.34C124.58,145.08,124,144.31,123.92,143.31Z"/><path class="cls-3" d="M125.36,152.37l-.15-.47a3.69,3.69,0,0,0,.07-2.16l-.21.32c0,.42.14.47.24.1a6.63,6.63,0,0,0-.26,2.48C125.16,152.59,125.3,152.6,125.36,152.37Z"/><path class="cls-3" d="M125.08,153.13l0-.49,0,0,.06.48Z"/><path class="cls-3" d="M125.16,139.14c0-2.07,0-4,0-5.94-.08-.15-.18-.25-.13-.45a1.62,1.62,0,0,0,.16-.45c0-.28,0-.56,0-.83l0-.3h0c0-.15-.11-.11-.18,0a1.13,1.13,0,0,1-.15.29c0-.05.09-.2.15-.29a1.84,1.84,0,0,0,.13-.45,3.52,3.52,0,0,1,0-.8,2.74,2.74,0,0,1,0,.8c0,.16,0,.32.06.47l0,.14c0-.64,0-1.27.07-1.91,0-.14,0-.28,0-.4a1.75,1.75,0,0,1,.1-1.2c0-.11,0-.22,0-.34l0,.07a1,1,0,0,1,0-.13l.06-1.44a9.63,9.63,0,0,1-.25-1l.22-.32a1.16,1.16,0,0,1-.22-.54c-.13.26-.27.5-.36.72s.43.72,0,1.1c.4-.38-.24-.78,0-1.1s.23-.46.36-.72a2.77,2.77,0,0,1,.21-1.51,1.93,1.93,0,0,1-.21,1.51,1.16,1.16,0,0,0,.22.54l-.22.32a9.63,9.63,0,0,0,.25,1c0-.94.07-1.89.11-2.87.27-6.25.22-12,.43-18.5.12-3.51.3-6.88.56-10.19.5-6.6-.08-12.63,1-19.29a74.47,74.47,0,0,0,.13-9.78C127,62,125.12,63.74,125,63.89c-1.58,2-.7,3.62-1.63,7.76.53-2.82,1,2.09-.06,4.75-1.65,3.85-.33,9.35-.75,14.1-.11,1.19,0,2.46-.07,3.88-.56,7.36.14,14.21,0,22a44.85,44.85,0,0,0,.62,5.58c.08,1.26-.13,2.61-.13,3.64a29.73,29.73,0,0,0,.34,4.33c-.08-1.48-.19-2.57-.26-4.23,0-1.1.56.77.68,1.5.09.32-.39.81-.29,1.12a12.84,12.84,0,0,0,.32,2c.09.31-.34.28-.29.43.1,1,.65,1.77.53,2.41-.06.48-.13.92-.19,1.34a4.47,4.47,0,0,0,0,.82c0,.18.07.36.11.55a.88.88,0,0,1,.45-.25c0,.26-.11.64-.14.9,0-.26.12-.64.14-.9a.88.88,0,0,0-.45.25c.25,1.31.48,2.82.67,4.23l0,0a7.1,7.1,0,0,1,.26-2.48c-.09.37-.21.33-.24-.1l.22-.32a3.69,3.69,0,0,1-.07,2.16s.1.32.14.47-.19.22-.31.27,0,.33,0,.49A8.31,8.31,0,0,0,125.16,139.14Z"/><path class="cls-3" d="M125.17,130.68c0,.11,0,.25,0,.4l.06-1.6A1.74,1.74,0,0,0,125.17,130.68Z"/></g><g class="cls-2"><path class="cls-3" d="M153.17,145.75c0-.29,0-.59,0-.89a2,2,0,0,1-.15.45A.5.5,0,0,0,153.17,145.75Z"/><path class="cls-3" d="M153.21,144c0-.05,0-.1,0-.15a1,1,0,0,1,0-.14Z"/><path class="cls-3" d="M153.1,142.46a4.24,4.24,0,0,0,0,.8A2.74,2.74,0,0,0,153.1,142.46Z"/><path class="cls-3" d="M153,143.71c.06-.1.13-.15.18,0h0l-.06-.47A2.44,2.44,0,0,1,153,143.71Z"/><path class="cls-3" d="M153,143.71c-.06.09-.12.24-.16.29A2,2,0,0,0,153,143.71Z"/><path class="cls-3" d="M151.47,143.31c0-.15.39-.12.29-.43a14.09,14.09,0,0,1-.32-2c-.09-.31.39-.81.29-1.12-.12-.73-.7-2.6-.67-1.5.06,1.66.18,2.74.26,4.23.17,1.21.37,2.37.53,3.61a6.59,6.59,0,0,1,0,1c.07-.42.13-.86.2-1.34C152.12,145.08,151.57,144.31,151.47,143.31Z"/><path class="cls-3" d="M152.91,152.37l-.15-.47a3.69,3.69,0,0,0,.07-2.16l-.22.32c0,.42.15.47.24.1a6.84,6.84,0,0,0-.25,2.48C152.71,152.59,152.85,152.6,152.91,152.37Z"/><path class="cls-3" d="M152.63,153.13l0-.49,0,0,.06.48Z"/><path class="cls-3" d="M152.71,139.14c0-2.07,0-4,0-5.94-.08-.15-.18-.25-.13-.45a2,2,0,0,0,.16-.45c0-.28,0-.56,0-.83,0-.1,0-.2,0-.3h0c0-.15-.11-.11-.18,0a1.57,1.57,0,0,1-.15.29c0-.05.09-.2.15-.29a1.84,1.84,0,0,0,.13-.45,3.52,3.52,0,0,1,0-.8,2.74,2.74,0,0,1,0,.8c0,.16,0,.32,0,.47a.74.74,0,0,1,0,.14c0-.64,0-1.27.07-1.91,0-.14,0-.28,0-.4a1.75,1.75,0,0,1,.09-1.2c0-.11,0-.22,0-.34a.25.25,0,0,0,0,.07,1,1,0,0,1,0-.13c0-.48,0-1,.05-1.44-.08-.31-.18-.63-.24-1l.21-.32a1.27,1.27,0,0,1-.21-.54c-.13.26-.27.5-.36.72s.43.72,0,1.1c.4-.38-.25-.78,0-1.1s.23-.46.36-.72a2.77,2.77,0,0,1,.21-1.51,1.93,1.93,0,0,1-.21,1.51,1.27,1.27,0,0,0,.21.54l-.21.32c.06.33.16.65.24,1,0-.94.08-1.89.12-2.87.27-6.25.22-12,.42-18.5.13-3.51.31-6.88.57-10.19.5-6.6-.08-12.63,1-19.29a76.25,76.25,0,0,0,.13-9.78c-.72-3.31-2.57-1.59-2.67-1.44-1.58,2-.7,3.62-1.63,7.76.53-2.82,1,2.09-.07,4.75-1.64,3.85-.32,9.35-.75,14.1-.1,1.19,0,2.46-.06,3.88-.56,7.36.14,14.21,0,22a41.35,41.35,0,0,0,.62,5.58c.08,1.26-.13,2.61-.13,3.64a29.73,29.73,0,0,0,.34,4.33c-.08-1.48-.19-2.57-.26-4.23,0-1.1.55.77.68,1.5.09.32-.39.81-.29,1.12a11.79,11.79,0,0,0,.32,2c.09.31-.34.28-.29.43.1,1,.65,1.77.53,2.41-.06.48-.13.92-.19,1.34a4.47,4.47,0,0,0,0,.82c0,.18.07.36.11.55a.88.88,0,0,1,.45-.25c0,.26-.12.64-.14.9,0-.26.12-.64.14-.9a.88.88,0,0,0-.45.25c.25,1.31.48,2.82.66,4.23l0,0a7.1,7.1,0,0,1,.26-2.48c-.09.37-.21.33-.24-.1l.22-.32a3.69,3.69,0,0,1-.07,2.16s.09.32.14.47-.19.22-.31.27,0,.33,0,.49A8.31,8.31,0,0,0,152.71,139.14Z"/><path class="cls-3" d="M152.72,130.68c0,.11,0,.25,0,.4l.06-1.6A1.74,1.74,0,0,0,152.72,130.68Z"/></g><g class="cls-2"><path class="cls-3" d="M180.72,145.75c0-.29,0-.59,0-.89a1.62,1.62,0,0,1-.16.45C180.53,145.5,180.63,145.61,180.72,145.75Z"/><path class="cls-3" d="M180.76,144a.76.76,0,0,1,0-.15,1,1,0,0,1,0-.14Z"/><path class="cls-3" d="M180.65,142.46a4.24,4.24,0,0,0,0,.8A2.74,2.74,0,0,0,180.65,142.46Z"/><path class="cls-3" d="M180.55,143.71c.06-.1.13-.15.18,0h0l-.06-.47A2.44,2.44,0,0,1,180.55,143.71Z"/><path class="cls-3" d="M180.55,143.71c-.07.09-.12.24-.16.29A2,2,0,0,0,180.55,143.71Z"/><path class="cls-3" d="M179,143.31c-.05-.15.39-.12.29-.43a12.84,12.84,0,0,1-.32-2c-.09-.31.38-.81.29-1.12-.12-.73-.7-2.6-.68-1.5.07,1.66.18,2.74.26,4.23.18,1.21.38,2.37.54,3.61a6.59,6.59,0,0,1,0,1c.06-.42.13-.86.19-1.34C179.67,145.08,179.12,144.31,179,143.31Z"/><path class="cls-3" d="M180.46,152.37l-.15-.47a3.69,3.69,0,0,0,.07-2.16l-.22.32c0,.42.15.47.24.1a7.07,7.07,0,0,0-.26,2.48C180.26,152.59,180.4,152.6,180.46,152.37Z"/><path class="cls-3" d="M180.18,153.13c0-.17,0-.33,0-.49l0,0,.06.48Z"/><path class="cls-3" d="M180.26,139.14c0-2.07,0-4,0-5.94-.08-.15-.18-.25-.13-.45a1.59,1.59,0,0,0,.15-.45l0-.83c0-.1,0-.2,0-.3h0c-.05-.15-.11-.11-.18,0a1.57,1.57,0,0,1-.15.29c0-.05.09-.2.15-.29a1.48,1.48,0,0,0,.12-.45,4.24,4.24,0,0,1,0-.8,2.4,2.4,0,0,1,0,.8l.06.47a.74.74,0,0,1,0,.14l.06-1.91c0-.14,0-.28,0-.4a1.75,1.75,0,0,1,.09-1.2c0-.11,0-.22,0-.34a.25.25,0,0,0,0,.07.4.4,0,0,1,0-.13c0-.48,0-1,0-1.44-.08-.31-.18-.63-.24-1l.21-.32a1.16,1.16,0,0,1-.21-.54c-.13.26-.27.5-.36.72s.43.72,0,1.1c.41-.38-.24-.78,0-1.1s.23-.46.36-.72a2.77,2.77,0,0,1,.21-1.51,2,2,0,0,1-.21,1.51,1.16,1.16,0,0,0,.21.54l-.21.32c.06.33.16.65.24,1,0-.94.08-1.89.11-2.87.28-6.25.23-12,.43-18.5.13-3.51.31-6.88.56-10.19.51-6.6-.07-12.63,1-19.29a76.25,76.25,0,0,0,.13-9.78c-.72-3.31-2.57-1.59-2.67-1.44-1.58,2-.7,3.62-1.63,7.76.53-2.82,1,2.09-.07,4.75-1.64,3.85-.33,9.35-.75,14.1-.1,1.19,0,2.46-.06,3.88-.56,7.36.14,14.21,0,22a41.35,41.35,0,0,0,.62,5.58c.08,1.26-.14,2.61-.14,3.64a31.12,31.12,0,0,0,.35,4.33c-.08-1.48-.2-2.57-.26-4.23,0-1.1.55.77.67,1.5.1.32-.38.81-.28,1.12a11.79,11.79,0,0,0,.32,2c.09.31-.34.28-.29.43.1,1,.65,1.77.53,2.41-.06.48-.13.92-.2,1.34a5.58,5.58,0,0,0,0,.82c0,.18.07.36.11.55a.88.88,0,0,1,.45-.25c0,.26-.12.64-.14.9,0-.26.12-.64.14-.9a.88.88,0,0,0-.45.25c.25,1.31.48,2.82.66,4.23l0,0a7.1,7.1,0,0,1,.26-2.48c-.1.37-.22.33-.24-.1l.21-.32a3.61,3.61,0,0,1-.06,2.16s.09.32.14.47-.19.22-.31.27,0,.33,0,.49A8.31,8.31,0,0,0,180.26,139.14Z"/><path class="cls-3" d="M180.27,130.68c0,.11,0,.25,0,.4l.06-1.6A1.74,1.74,0,0,0,180.27,130.68Z"/></g><g class="cls-2"><path class="cls-3" d="M203.68,67.5l.9,0a2.24,2.24,0,0,1-.46-.15C203.93,67.32,203.83,67.42,203.68,67.5Z"/><path class="cls-3" d="M205.41,67.55h.16l.13,0Z"/><path class="cls-3" d="M207,67.44a4.14,4.14,0,0,0-.79,0A2.34,2.34,0,0,0,207,67.44Z"/><path class="cls-3" d="M205.73,67.33c.09.06.14.13,0,.18h0l.48-.06A1.48,1.48,0,0,1,205.73,67.33Z"/><path class="cls-3" d="M205.73,67.33l-.3-.16A2.11,2.11,0,0,0,205.73,67.33Z"/><path class="cls-3" d="M206.12,65.81c.16,0,.12.38.43.28a12.73,12.73,0,0,1,2-.31c.31-.1.8.38,1.11.28.73-.12,2.61-.7,1.5-.67-1.66.06-2.74.18-4.23.26-1.21.17-2.37.38-3.61.53a6.59,6.59,0,0,1-1,0c.43.07.86.14,1.35.2S205.12,65.9,206.12,65.81Z"/><path class="cls-3" d="M197.06,67.24l.47-.14a3.69,3.69,0,0,0,2.16.06l-.32-.21c-.42,0-.47.14-.1.24a6.82,6.82,0,0,0-2.48-.26C196.84,67.05,196.83,67.18,197.06,67.24Z"/><path class="cls-3" d="M196.31,67l.48,0a.08.08,0,0,0,0,0l-.48.06Z"/><path class="cls-3" d="M210.29,67c2.08,0,4,0,6,0,.14-.09.25-.19.44-.14a1.62,1.62,0,0,0,.45.16l.84,0,.29,0h0c.16,0,.11-.12,0-.18a2,2,0,0,1-.29-.16s.2.09.29.16a2.44,2.44,0,0,0,.45.12,4.24,4.24,0,0,1,.8,0,2.74,2.74,0,0,1-.8,0l-.47.06-.13,0,1.9.06.4,0a1.8,1.8,0,0,1,1.2.1H222l-.06,0,.12,0,1.44.06c.32-.08.64-.19,1-.25l.32.22a1.16,1.16,0,0,1,.54-.22c-.26-.13-.5-.27-.72-.36s-.72.44-1.1,0c.38.41.78-.24,1.1,0s.46.23.72.36a2.92,2.92,0,0,1,1.52.21,1.91,1.91,0,0,1-1.52-.21,1.16,1.16,0,0,0-.54.22l-.32-.22c-.32.06-.64.17-1,.25l2.87.11c6.25.27,12,.22,18.5.43,3.51.12,6.89.31,10.2.56,6.6.5,12.62-.08,19.29,1a74.45,74.45,0,0,0,9.78.13c3.3-.71,1.59-2.56,1.43-2.67-2-1.58-3.62-.7-7.76-1.63,2.82.53-2.08,1-4.75-.06-3.85-1.65-9.35-.33-14.1-.75-1.19-.11-2.45,0-3.87-.07-7.37-.56-14.22.14-22,0a42.92,42.92,0,0,0-5.59.63c-1.26.07-2.61-.14-3.64-.14a29.73,29.73,0,0,0-4.33.34c1.49-.08,2.57-.19,4.23-.26,1.11,0-.77.56-1.5.68-.31.1-.81-.38-1.12-.29a12.84,12.84,0,0,0-2,.32c-.31.1-.28-.34-.43-.29-1,.1-1.77.65-2.41.54l-1.34-.2a5.57,5.57,0,0,0-.82,0l-.54.11a.93.93,0,0,1,.24.46c-.26,0-.63-.12-.9-.15.27,0,.64.12.9.15a.93.93,0,0,0-.24-.46c-1.32.25-2.83.48-4.24.67,0,0,0,0,0,0a6.84,6.84,0,0,1,2.48.25c-.37-.09-.32-.21.1-.24l.32.22a3.69,3.69,0,0,1-2.16-.07l-.47.15c-.23-.06-.22-.2-.27-.31l-.49,0A8.61,8.61,0,0,0,210.29,67Z"/><path class="cls-3" d="M218.75,67.05l-.4,0,1.6,0A1.74,1.74,0,0,0,218.75,67.05Z"/></g><g class="cls-2"><path class="cls-3" d="M203.68,95.05l.9,0a2.24,2.24,0,0,1-.46-.15C203.93,94.87,203.83,95,203.68,95.05Z"/><path class="cls-3" d="M205.41,95.09h.16l.13,0Z"/><path class="cls-3" d="M207,95a4.11,4.11,0,0,0-.79,0A2.67,2.67,0,0,0,207,95Z"/><path class="cls-3" d="M205.73,94.88c.09.06.14.13,0,.18h0l.48-.06A1.84,1.84,0,0,1,205.73,94.88Z"/><path class="cls-3" d="M205.73,94.88l-.3-.16A2.11,2.11,0,0,0,205.73,94.88Z"/><path class="cls-3" d="M206.12,93.36c.16,0,.12.38.43.28a12.73,12.73,0,0,1,2-.31c.31-.1.8.38,1.11.28.73-.12,2.61-.7,1.5-.67-1.66.06-2.74.18-4.23.26-1.21.17-2.37.38-3.61.53a6.59,6.59,0,0,1-1,0l1.35.2C204.35,94,205.12,93.45,206.12,93.36Z"/><path class="cls-3" d="M197.06,94.79l.47-.15a3.69,3.69,0,0,0,2.16.07l-.32-.21c-.42,0-.47.14-.1.24a6.61,6.61,0,0,0-2.48-.26C196.84,94.59,196.83,94.73,197.06,94.79Z"/><path class="cls-3" d="M196.31,94.51l.48,0a.05.05,0,0,0,0,0l-.48.06Z"/><path class="cls-3" d="M210.29,94.59c2.08,0,4,0,6,0,.14-.08.25-.18.44-.13a1.62,1.62,0,0,0,.45.16l.84,0,.29,0h0c.16,0,.11-.11,0-.18a1.32,1.32,0,0,1-.29-.15s.2.09.29.15a1.84,1.84,0,0,0,.45.13,3.54,3.54,0,0,1,.8,0,2.74,2.74,0,0,1-.8,0c-.16,0-.31,0-.47.06l-.13,0c.63,0,1.27,0,1.9.06l.4,0a1.74,1.74,0,0,1,1.2.1H222l-.06,0,.12,0,1.44.06c.32-.09.64-.19,1-.25,0,0,.22.14.32.22a1.16,1.16,0,0,1,.54-.22c-.26-.13-.5-.27-.72-.36s-.72.43-1.1,0c.38.4.78-.24,1.1,0s.46.23.72.36a2.82,2.82,0,0,1,1.52.21,2,2,0,0,1-1.52-.21,1.16,1.16,0,0,0-.54.22c-.1-.08-.32-.22-.32-.22-.32.06-.64.16-1,.25l2.87.11c6.25.27,12,.22,18.5.43,3.51.12,6.89.31,10.2.56,6.6.5,12.62-.08,19.29,1a74.45,74.45,0,0,0,9.78.13c3.3-.71,1.59-2.57,1.43-2.67-2-1.58-3.62-.7-7.76-1.63,2.82.53-2.08,1-4.75-.06-3.85-1.65-9.35-.33-14.1-.75-1.19-.11-2.45,0-3.87-.07-7.37-.56-14.22.14-22,0a44.81,44.81,0,0,0-5.59.62c-1.26.08-2.61-.13-3.64-.13a29.73,29.73,0,0,0-4.33.34c1.49-.08,2.57-.19,4.23-.26,1.11,0-.77.56-1.5.68-.31.09-.81-.38-1.12-.29a12.84,12.84,0,0,0-2,.32c-.31.09-.28-.34-.43-.29-1,.1-1.77.65-2.41.53l-1.34-.19a4.47,4.47,0,0,0-.82,0l-.54.11a.94.94,0,0,1,.24.45c-.26,0-.63-.11-.9-.14.27,0,.64.12.9.14a.94.94,0,0,0-.24-.45c-1.32.25-2.83.48-4.24.67l0,0a7.07,7.07,0,0,1,2.48.26c-.37-.09-.32-.21.1-.24l.32.22a3.69,3.69,0,0,1-2.16-.07l-.47.14c-.23-.06-.22-.19-.27-.31l-.49,0A8.61,8.61,0,0,0,210.29,94.59Z"/><path class="cls-3" d="M218.75,94.6l-.4,0,1.6.06A1.74,1.74,0,0,0,218.75,94.6Z"/></g><g class="cls-2"><path class="cls-3" d="M203.68,122.6l.9,0a2.24,2.24,0,0,1-.46-.15C203.93,122.42,203.83,122.51,203.68,122.6Z"/><path class="cls-3" d="M205.41,122.64h.16l.13,0Z"/><path class="cls-3" d="M207,122.53a4.11,4.11,0,0,0-.79,0A2.67,2.67,0,0,0,207,122.53Z"/><path class="cls-3" d="M205.73,122.43c.09.06.14.13,0,.18h0l.48-.06A1.84,1.84,0,0,1,205.73,122.43Z"/><path class="cls-3" d="M205.73,122.43l-.3-.16A2.11,2.11,0,0,0,205.73,122.43Z"/><path class="cls-3" d="M206.12,120.9c.16,0,.12.39.43.29a14,14,0,0,1,2-.32c.31-.09.8.39,1.11.29.73-.12,2.61-.7,1.5-.67-1.66.06-2.74.18-4.23.26-1.21.17-2.37.37-3.61.53a6.59,6.59,0,0,1-1,0l1.35.2C204.35,121.55,205.12,121,206.12,120.9Z"/><path class="cls-3" d="M197.06,122.34l.47-.15a3.69,3.69,0,0,0,2.16.07l-.32-.21c-.42,0-.47.14-.1.23a6.81,6.81,0,0,0-2.48-.25C196.84,122.14,196.83,122.28,197.06,122.34Z"/><path class="cls-3" d="M196.31,122.06l.48,0a.05.05,0,0,0,0,0l-.48.06Z"/><path class="cls-3" d="M210.29,122.14c2.08,0,4,0,6,0,.14-.08.25-.18.44-.13a2,2,0,0,0,.45.16l.84,0,.29,0h0c.16,0,.11-.11,0-.18a2,2,0,0,1-.29-.15s.2.09.29.15a1.84,1.84,0,0,0,.45.13,3.54,3.54,0,0,1,.8,0,2.74,2.74,0,0,1-.8,0l-.47,0-.13,0,1.9.07.4,0a1.74,1.74,0,0,1,1.2.09l.34,0-.06,0,.12,0,1.44,0c.32-.08.64-.18,1-.24,0,0,.22.14.32.22a1.16,1.16,0,0,1,.54-.22c-.26-.13-.5-.27-.72-.36s-.72.43-1.1,0c.38.4.78-.25,1.1,0s.46.23.72.36a2.82,2.82,0,0,1,1.52.21,2,2,0,0,1-1.52-.21,1.16,1.16,0,0,0-.54.22c-.1-.08-.32-.22-.32-.22-.32.06-.64.16-1,.24l2.87.12c6.25.27,12,.22,18.5.42,3.51.13,6.89.31,10.2.57,6.6.5,12.62-.08,19.29,1a76.22,76.22,0,0,0,9.78.13c3.3-.72,1.59-2.57,1.43-2.67-2-1.58-3.62-.7-7.76-1.63,2.82.53-2.08,1-4.75-.06-3.85-1.65-9.35-.33-14.1-.76-1.19-.1-2.45,0-3.87-.06-7.37-.56-14.22.14-22,0a41.32,41.32,0,0,0-5.59.62c-1.26.08-2.61-.13-3.64-.13a29.73,29.73,0,0,0-4.33.34c1.49-.08,2.57-.19,4.23-.26,1.11,0-.77.55-1.5.68-.31.09-.81-.39-1.12-.29a12.84,12.84,0,0,0-2,.32c-.31.09-.28-.34-.43-.29-1,.1-1.77.65-2.41.53l-1.34-.19a4.47,4.47,0,0,0-.82,0l-.54.11a.94.94,0,0,1,.24.45c-.26,0-.63-.12-.9-.14.27,0,.64.12.9.14a.94.94,0,0,0-.24-.45c-1.32.25-2.83.48-4.24.66l0,0a7.07,7.07,0,0,1,2.48.26c-.37-.09-.32-.21.1-.24l.32.22a3.69,3.69,0,0,1-2.16-.07l-.47.14c-.23-.06-.22-.19-.27-.31l-.49,0A8.61,8.61,0,0,0,210.29,122.14Z"/><path class="cls-3" d="M218.75,122.15l-.4,0,1.6.06A1.74,1.74,0,0,0,218.75,122.15Z"/></g><g class="cls-2"><path class="cls-3" d="M203.68,150.15l.9,0a1.8,1.8,0,0,1-.46-.16C203.93,150,203.83,150.06,203.68,150.15Z"/><path class="cls-3" d="M205.41,150.19h.16l.13,0Z"/><path class="cls-3" d="M207,150.08a4.11,4.11,0,0,0-.79,0A2.67,2.67,0,0,0,207,150.08Z"/><path class="cls-3" d="M205.73,150c.09.06.14.13,0,.18h0l.48-.06A2.44,2.44,0,0,1,205.73,150Z"/><path class="cls-3" d="M205.73,150c-.1-.07-.24-.12-.3-.16A2.11,2.11,0,0,0,205.73,150Z"/><path class="cls-3" d="M206.12,148.45c.16,0,.12.39.43.29a12.78,12.78,0,0,1,2-.32c.31-.09.8.39,1.11.29.73-.12,2.61-.7,1.5-.68-1.66.07-2.74.18-4.23.26-1.21.18-2.37.38-3.61.54a6.59,6.59,0,0,1-1,0l1.35.19C204.35,149.1,205.12,148.55,206.12,148.45Z"/><path class="cls-3" d="M197.06,149.89l.47-.15a3.69,3.69,0,0,0,2.16.07l-.32-.22c-.42,0-.47.15-.1.24a7,7,0,0,0-2.48-.26C196.84,149.69,196.83,149.83,197.06,149.89Z"/><path class="cls-3" d="M196.31,149.61l.48,0,0,0-.48.06Z"/><path class="cls-3" d="M210.29,149.69c2.08,0,4,0,6,0,.14-.08.25-.18.44-.13a1.59,1.59,0,0,0,.45.15l.84,0,.29,0h0c.16-.05.11-.11,0-.18a2,2,0,0,1-.29-.15s.2.09.29.15a1.48,1.48,0,0,0,.45.12,4.25,4.25,0,0,1,.8,0,2.4,2.4,0,0,1-.8,0l-.47.06-.13,0,1.9.06.4,0a1.74,1.74,0,0,1,1.2.09l.34,0-.06,0,.12,0,1.44.05c.32-.08.64-.18,1-.24l.32.21a1.16,1.16,0,0,1,.54-.21c-.26-.13-.5-.27-.72-.36s-.72.43-1.1,0c.38.4.78-.25,1.1,0s.46.23.72.36a2.82,2.82,0,0,1,1.52.21,2,2,0,0,1-1.52-.21,1.16,1.16,0,0,0-.54.21l-.32-.21c-.32.06-.64.16-1,.24l2.87.11c6.25.28,12,.23,18.5.43,3.51.13,6.89.31,10.2.57,6.6.5,12.62-.08,19.29,1a76.22,76.22,0,0,0,9.78.13c3.3-.72,1.59-2.57,1.43-2.67-2-1.58-3.62-.7-7.76-1.63,2.82.53-2.08,1-4.75-.07-3.85-1.64-9.35-.33-14.1-.75-1.19-.1-2.45,0-3.87-.06-7.37-.56-14.22.14-22,0a41.32,41.32,0,0,0-5.59.62c-1.26.08-2.61-.14-3.64-.13a29.73,29.73,0,0,0-4.33.34c1.49-.08,2.57-.19,4.23-.26,1.11,0-.77.55-1.5.67-.31.1-.81-.38-1.12-.28a11.79,11.79,0,0,0-2,.32c-.31.09-.28-.34-.43-.29-1,.1-1.77.65-2.41.53-.48-.06-.92-.13-1.34-.2a5.58,5.58,0,0,0-.82,0l-.54.11a.94.94,0,0,1,.24.45c-.26,0-.63-.12-.9-.14.27,0,.64.12.9.14a.94.94,0,0,0-.24-.45c-1.32.25-2.83.48-4.24.66,0,0,0,0,0,0a7.07,7.07,0,0,1,2.48.26c-.37-.1-.32-.22.1-.24l.32.21a3.61,3.61,0,0,1-2.16-.06l-.47.14c-.23-.06-.22-.19-.27-.31l-.49,0A8.61,8.61,0,0,0,210.29,149.69Z"/><path class="cls-3" d="M218.75,149.7l-.4,0,1.6.06A1.74,1.74,0,0,0,218.75,149.7Z"/></g><g class="cls-2"><path class="cls-3" d="M281.93,169.52c0,.29,0,.59,0,.89a2,2,0,0,1,.15-.45A.5.5,0,0,0,281.93,169.52Z"/><path class="cls-3" d="M281.89,171.25c0,.05,0,.1,0,.15a1,1,0,0,1,0,.14Z"/><path class="cls-3" d="M282,172.81a4.24,4.24,0,0,0,0-.8A2.74,2.74,0,0,0,282,172.81Z"/><path class="cls-3" d="M282.1,171.56c-.06.1-.13.15-.18,0h0l.06.47A1.84,1.84,0,0,1,282.1,171.56Z"/><path class="cls-3" d="M282.1,171.56c.06-.09.12-.24.16-.29A2,2,0,0,0,282.1,171.56Z"/><path class="cls-3" d="M283.63,172c0,.15-.39.12-.29.43a14.09,14.09,0,0,1,.32,2c.09.31-.39.81-.29,1.12.12.73.7,2.6.67,1.5-.06-1.66-.18-2.74-.26-4.23-.17-1.21-.37-2.37-.53-3.61a6.59,6.59,0,0,1,0-1c-.07.42-.13.86-.2,1.34C283,170.19,283.53,171,283.63,172Z"/><path class="cls-3" d="M282.19,162.9l.15.47a3.69,3.69,0,0,0-.07,2.16l.22-.32c0-.42-.15-.47-.24-.1a6.84,6.84,0,0,0,.25-2.48C282.39,162.68,282.25,162.67,282.19,162.9Z"/><path class="cls-3" d="M282.47,162.14l0,.49,0,0-.06-.48Z"/><path class="cls-3" d="M282.39,176.12c0,2.08,0,4,0,5.95.08.15.18.25.13.45a2,2,0,0,0-.16.45c0,.28,0,.56,0,.83,0,.1,0,.2,0,.3h0c.05.15.11.11.18,0a1.57,1.57,0,0,1,.15-.29s-.09.2-.15.29a1.84,1.84,0,0,0-.13.45,3.45,3.45,0,0,1,0,.79,2.66,2.66,0,0,1,0-.79c0-.16,0-.32-.05-.47a.74.74,0,0,1,0-.14c0,.64,0,1.27-.07,1.91,0,.14,0,.28,0,.4a1.75,1.75,0,0,1-.09,1.2c0,.11,0,.22,0,.34a.25.25,0,0,0,0-.07,1,1,0,0,1,0,.13c0,.48,0,1-.05,1.44.08.31.18.63.24,1l-.22.32a1.16,1.16,0,0,1,.22.54c.13-.26.27-.5.36-.72s-.43-.72,0-1.1c-.4.38.25.78,0,1.1s-.23.46-.36.72a2.77,2.77,0,0,1-.21,1.51,1.93,1.93,0,0,1,.21-1.51,1.16,1.16,0,0,0-.22-.54l.22-.32c-.06-.33-.16-.65-.24-1,0,.94-.08,1.89-.12,2.87-.27,6.25-.22,12-.42,18.49-.13,3.52-.31,6.89-.57,10.2-.5,6.6.08,12.63-1,19.29a76.22,76.22,0,0,0-.13,9.78c.72,3.31,2.57,1.59,2.67,1.44,1.58-2,.7-3.62,1.63-7.76-.53,2.82-1-2.09.06-4.75,1.65-3.85.33-9.35.76-14.1.1-1.19,0-2.46.06-3.88.56-7.36-.14-14.21,0-22a41.35,41.35,0,0,0-.62-5.58c-.08-1.26.13-2.61.13-3.64a29.73,29.73,0,0,0-.34-4.33c.08,1.48.19,2.57.26,4.23,0,1.1-.55-.77-.68-1.5-.09-.32.39-.81.29-1.12a12.84,12.84,0,0,0-.32-2c-.09-.31.34-.28.29-.43-.1-1-.65-1.77-.53-2.41.06-.48.13-.92.19-1.34a4.47,4.47,0,0,0,0-.82c0-.18-.07-.36-.11-.55a.88.88,0,0,1-.45.25c0-.26.12-.64.14-.9,0,.26-.12.64-.14.9a.88.88,0,0,0,.45-.25c-.25-1.31-.48-2.82-.66-4.23a.05.05,0,0,0,0,0,7.1,7.1,0,0,1-.26,2.48c.09-.37.21-.33.24.1l-.22.32a3.69,3.69,0,0,1,.07-2.16s-.09-.32-.14-.47.19-.22.31-.27,0-.33,0-.49A8.28,8.28,0,0,0,282.39,176.12Z"/><path class="cls-3" d="M282.38,184.59c0-.11,0-.25,0-.4l-.06,1.6A1.74,1.74,0,0,0,282.38,184.59Z"/></g><g class="cls-2"><path class="cls-3" d="M254.38,169.52c0,.29,0,.59,0,.89a1.62,1.62,0,0,1,.16-.45C254.57,169.77,254.47,169.66,254.38,169.52Z"/><path class="cls-3" d="M254.34,171.25a.76.76,0,0,1,0,.15,1,1,0,0,1,0,.14Z"/><path class="cls-3" d="M254.45,172.81a4.24,4.24,0,0,0,0-.8A2.74,2.74,0,0,0,254.45,172.81Z"/><path class="cls-3" d="M254.55,171.56c-.06.1-.13.15-.18,0h0l.06.47A2.44,2.44,0,0,1,254.55,171.56Z"/><path class="cls-3" d="M254.55,171.56c.07-.09.12-.24.16-.29A2,2,0,0,0,254.55,171.56Z"/><path class="cls-3" d="M256.08,172c.05.15-.39.12-.29.43a12.84,12.84,0,0,1,.32,2c.09.31-.39.81-.29,1.12.12.73.7,2.6.68,1.5-.07-1.66-.18-2.74-.26-4.23-.18-1.21-.38-2.37-.54-3.61a6.59,6.59,0,0,1,0-1c-.06.42-.13.86-.19,1.34C255.43,170.19,256,171,256.08,172Z"/><path class="cls-3" d="M254.64,162.9l.15.47a3.69,3.69,0,0,0-.07,2.16l.22-.32c0-.42-.15-.47-.24-.1a7.07,7.07,0,0,0,.26-2.48C254.84,162.68,254.7,162.67,254.64,162.9Z"/><path class="cls-3" d="M254.92,162.14c0,.17,0,.33,0,.49l0,0-.06-.48Z"/><path class="cls-3" d="M254.84,176.12c0,2.08,0,4,0,5.95.08.15.18.25.13.45a1.59,1.59,0,0,0-.15.45l0,.83c0,.1,0,.2,0,.3h0c.05.15.11.11.18,0a1.57,1.57,0,0,1,.15-.29s-.09.2-.15.29a1.48,1.48,0,0,0-.12.45,4.15,4.15,0,0,1,0,.79,2.34,2.34,0,0,1,0-.79l-.06-.47a.74.74,0,0,1,0-.14l-.06,1.91c0,.14,0,.28,0,.4a1.75,1.75,0,0,1-.09,1.2c0,.11,0,.22,0,.34a.25.25,0,0,0,0-.07.4.4,0,0,1,0,.13c0,.48,0,1-.05,1.44.08.31.18.63.24,1l-.21.32a1.16,1.16,0,0,1,.21.54c.13-.26.27-.5.36-.72s-.43-.72,0-1.1c-.4.38.25.78,0,1.1s-.23.46-.36.72a2.77,2.77,0,0,1-.21,1.51,2,2,0,0,1,.21-1.51,1.16,1.16,0,0,0-.21-.54l.21-.32c-.06-.33-.16-.65-.24-1,0,.94-.08,1.89-.11,2.87-.28,6.25-.23,12-.43,18.49-.13,3.52-.31,6.89-.57,10.2-.5,6.6.08,12.63-1,19.29a76.22,76.22,0,0,0-.13,9.78c.72,3.31,2.57,1.59,2.67,1.44,1.58-2,.7-3.62,1.63-7.76-.53,2.82-1-2.09.07-4.75,1.64-3.85.33-9.35.75-14.1.1-1.19,0-2.46.06-3.88.56-7.36-.14-14.21,0-22a41.35,41.35,0,0,0-.62-5.58c-.08-1.26.14-2.61.13-3.64a29.73,29.73,0,0,0-.34-4.33c.08,1.48.19,2.57.26,4.23,0,1.1-.55-.77-.67-1.5-.1-.32.38-.81.28-1.12a11.79,11.79,0,0,0-.32-2c-.09-.31.34-.28.29-.43-.1-1-.65-1.77-.53-2.41.06-.48.13-.92.2-1.34a5.58,5.58,0,0,0,0-.82c0-.18-.07-.36-.11-.55a.88.88,0,0,1-.45.25c0-.26.12-.64.14-.9,0,.26-.12.64-.14.9a.88.88,0,0,0,.45-.25c-.25-1.31-.48-2.82-.66-4.23l0,0a7.1,7.1,0,0,1-.26,2.48c.1-.37.22-.33.24.1l-.21.32a3.61,3.61,0,0,1,.06-2.16s-.09-.32-.14-.47.19-.22.31-.27,0-.33,0-.49A8.28,8.28,0,0,0,254.84,176.12Z"/><path class="cls-3" d="M254.83,184.59c0-.11,0-.25,0-.4l-.06,1.6A1.74,1.74,0,0,0,254.83,184.59Z"/></g><g class="cls-2"><path class="cls-3" d="M226.83,169.52c0,.29,0,.59,0,.89A1.62,1.62,0,0,1,227,170C227,169.77,226.92,169.66,226.83,169.52Z"/><path class="cls-3" d="M226.79,171.25v.15l0,.14Z"/><path class="cls-3" d="M226.9,172.81a4.24,4.24,0,0,0,0-.8A2.74,2.74,0,0,0,226.9,172.81Z"/><path class="cls-3" d="M227,171.56c-.07.1-.14.15-.18,0h0c0,.16.05.31.06.47A1.84,1.84,0,0,1,227,171.56Z"/><path class="cls-3" d="M227,171.56c.06-.09.12-.24.15-.29A1.32,1.32,0,0,0,227,171.56Z"/><path class="cls-3" d="M228.53,172c.05.15-.38.12-.29.43a12.84,12.84,0,0,1,.32,2c.09.31-.38.81-.29,1.12.12.73.7,2.6.68,1.5-.07-1.66-.18-2.74-.26-4.23-.18-1.21-.38-2.37-.54-3.61a6.59,6.59,0,0,1,0-1c-.06.42-.13.86-.19,1.34C227.88,170.19,228.43,171,228.53,172Z"/><path class="cls-3" d="M227.1,162.9c0,.16.14.47.14.47a3.69,3.69,0,0,0-.07,2.16l.22-.32c0-.42-.15-.47-.24-.1a7.07,7.07,0,0,0,.26-2.48C227.29,162.68,227.15,162.67,227.1,162.9Z"/><path class="cls-3" d="M227.37,162.14c0,.17,0,.33,0,.49l0,0-.06-.48Z"/><path class="cls-3" d="M227.29,176.12c0,2.08,0,4,0,5.95.08.15.18.25.13.45a2,2,0,0,0-.15.45l0,.83c0,.1,0,.2,0,.3h0c0,.15.12.11.18,0a1.15,1.15,0,0,1,.16-.29s-.1.2-.16.29a1.48,1.48,0,0,0-.12.45,4.15,4.15,0,0,1,0,.79,2.34,2.34,0,0,1,0-.79l-.06-.47a.74.74,0,0,1,0-.14l-.06,1.91c0,.14,0,.28,0,.4a1.75,1.75,0,0,1-.09,1.2c0,.11,0,.22,0,.34l0-.07a.4.4,0,0,1,0,.13c0,.48,0,1-.05,1.44.08.31.18.63.24,1l-.21.32a1.06,1.06,0,0,1,.21.54c.13-.26.27-.5.36-.72s-.43-.72,0-1.1c-.41.38.24.78,0,1.1s-.23.46-.36.72a2.77,2.77,0,0,1-.21,1.51,2,2,0,0,1,.21-1.51,1.06,1.06,0,0,0-.21-.54l.21-.32c-.06-.33-.16-.65-.24-1,0,.94-.08,1.89-.11,2.87-.28,6.25-.23,12-.43,18.49-.13,3.52-.31,6.89-.56,10.2-.51,6.6.07,12.63-1,19.29a76.22,76.22,0,0,0-.13,9.78c.72,3.31,2.57,1.59,2.67,1.44,1.58-2,.71-3.62,1.63-7.76-.52,2.82-1-2.09.07-4.75,1.64-3.85.33-9.35.75-14.1.1-1.19,0-2.46.06-3.88.56-7.36-.13-14.21,0-22a41.35,41.35,0,0,0-.62-5.58c-.07-1.26.14-2.61.14-3.64a31.12,31.12,0,0,0-.35-4.33c.08,1.48.2,2.57.26,4.23,0,1.1-.55-.77-.67-1.5-.1-.32.38-.81.28-1.12a12.78,12.78,0,0,0-.31-2c-.1-.31.33-.28.28-.43-.09-1-.65-1.77-.53-2.41.06-.48.13-.92.2-1.34a5.58,5.58,0,0,0,0-.82c0-.18-.07-.36-.1-.55a1,1,0,0,1-.46.25c0-.26.12-.64.14-.9,0,.26-.12.64-.14.9a1,1,0,0,0,.46-.25c-.26-1.31-.49-2.82-.67-4.23l0,0a7.1,7.1,0,0,1-.26,2.48c.1-.37.22-.33.24.1l-.21.32a3.69,3.69,0,0,1,.06-2.16s-.09-.32-.14-.47.19-.22.31-.27l0-.49A7.7,7.7,0,0,0,227.29,176.12Z"/><path class="cls-3" d="M227.28,184.59c0-.11,0-.25,0-.4l-.06,1.6A1.74,1.74,0,0,0,227.28,184.59Z"/></g><g class="cls-2"><path class="cls-3" d="M199.29,169.52l0,.89a2,2,0,0,1,.16-.45C199.47,169.77,199.37,169.66,199.29,169.52Z"/><path class="cls-3" d="M199.24,171.25v.15a.57.57,0,0,0,0,.14C199.26,171.44,199.25,171.34,199.24,171.25Z"/><path class="cls-3" d="M199.35,172.81a3.54,3.54,0,0,0,0-.8A2.74,2.74,0,0,0,199.35,172.81Z"/><path class="cls-3" d="M199.46,171.56c-.07.1-.13.15-.18,0h0c0,.16,0,.31.05.47A1.84,1.84,0,0,1,199.46,171.56Z"/><path class="cls-3" d="M199.46,171.56c.06-.09.12-.24.15-.29A2,2,0,0,0,199.46,171.56Z"/><path class="cls-3" d="M201,172c.05.15-.38.12-.29.43a12.84,12.84,0,0,1,.32,2c.1.31-.38.81-.29,1.12.13.73.7,2.6.68,1.5-.07-1.66-.18-2.74-.26-4.23-.17-1.21-.38-2.37-.54-3.61a6.57,6.57,0,0,1,.05-1c-.07.42-.14.86-.2,1.34C200.33,170.19,200.88,171,201,172Z"/><path class="cls-3" d="M199.55,162.9l.14.47a3.69,3.69,0,0,0-.07,2.16l.22-.32c0-.42-.15-.47-.24-.1a7.07,7.07,0,0,0,.26-2.48C199.74,162.68,199.61,162.67,199.55,162.9Z"/><path class="cls-3" d="M199.82,162.14c0,.17,0,.33,0,.49l0,0c0-.16-.05-.32-.07-.48Z"/><path class="cls-3" d="M199.75,176.12c0,2.08,0,4-.05,5.95.08.15.18.25.13.45a2,2,0,0,0-.15.45c0,.28,0,.56,0,.83l0,.3h0c.05.15.12.11.18,0a1.57,1.57,0,0,1,.16-.29s-.1.2-.16.29a1.84,1.84,0,0,0-.12.45,4.13,4.13,0,0,1,0,.79,2.13,2.13,0,0,1,0-.79l-.06-.47s0-.09,0-.14l-.06,1.91c0,.14,0,.28,0,.4a1.75,1.75,0,0,1-.09,1.2c0,.11,0,.22,0,.34a.25.25,0,0,1,0-.07.89.89,0,0,1-.05.13c0,.48,0,1,0,1.44.08.31.18.63.24,1l-.21.32a1.06,1.06,0,0,1,.21.54,8,8,0,0,0,.36-.72c.22-.32-.43-.72,0-1.1-.41.38.24.78,0,1.1a8,8,0,0,1-.36.72,2.77,2.77,0,0,1-.21,1.51,2,2,0,0,1,.21-1.51,1.06,1.06,0,0,0-.21-.54l.21-.32c-.06-.33-.16-.65-.24-1,0,.94-.08,1.89-.11,2.87-.28,6.25-.23,12-.43,18.49-.13,3.52-.31,6.89-.56,10.2-.51,6.6.07,12.63-1,19.29a76.22,76.22,0,0,0-.13,9.78c.72,3.31,2.57,1.59,2.68,1.44,1.57-2,.7-3.62,1.62-7.76-.52,2.82-1-2.09.07-4.75,1.65-3.85.33-9.35.75-14.1.11-1.19,0-2.46.06-3.88.56-7.36-.13-14.21,0-22a41.35,41.35,0,0,0-.62-5.58c-.07-1.26.14-2.61.14-3.64a31.12,31.12,0,0,0-.35-4.33c.08,1.48.2,2.57.26,4.23,0,1.1-.55-.77-.67-1.5-.1-.32.38-.81.28-1.12a12.78,12.78,0,0,0-.31-2c-.1-.31.33-.28.28-.43-.09-1-.65-1.77-.53-2.41.07-.48.13-.92.2-1.34a5.58,5.58,0,0,0,0-.82c0-.18-.07-.36-.1-.55a1,1,0,0,1-.46.25c0-.26.12-.64.14-.9,0,.26-.12.64-.14.9a1,1,0,0,0,.46-.25c-.26-1.31-.48-2.82-.67-4.23l0,0a6.65,6.65,0,0,1-.26,2.48c.1-.37.22-.33.24.1l-.21.32a3.69,3.69,0,0,1,.07-2.16l-.15-.47c.06-.23.2-.22.31-.27l0-.49A7.47,7.47,0,0,0,199.75,176.12Z"/><path class="cls-3" d="M199.74,184.59a3.85,3.85,0,0,1,0-.4l-.06,1.6A1.8,1.8,0,0,0,199.74,184.59Z"/></g><g class="cls-2"><path class="cls-3" d="M176.32,247.77l-.89,0a2,2,0,0,1,.45.15C176.07,248,176.18,247.85,176.32,247.77Z"/><path class="cls-3" d="M174.59,247.72h-.15l-.14,0Z"/><path class="cls-3" d="M173,247.83a4.25,4.25,0,0,0,.8,0A2.4,2.4,0,0,0,173,247.83Z"/><path class="cls-3" d="M174.28,247.94c-.1-.06-.15-.13,0-.18h0l-.47.06A1.48,1.48,0,0,1,174.28,247.94Z"/><path class="cls-3" d="M174.28,247.94c.09.06.24.12.29.16A2,2,0,0,0,174.28,247.94Z"/><path class="cls-3" d="M173.88,249.46c-.16,0-.12-.38-.43-.28a12.78,12.78,0,0,1-2,.31c-.31.1-.81-.38-1.12-.28-.73.12-2.6.7-1.5.67,1.66-.06,2.74-.18,4.23-.26,1.21-.17,2.37-.38,3.61-.53a6.59,6.59,0,0,1,1,0c-.43-.07-.86-.14-1.35-.2S174.88,249.37,173.88,249.46Z"/><path class="cls-3" d="M182.94,248l-.47.14a3.69,3.69,0,0,0-2.16-.06l.32.21c.42,0,.47-.14.1-.24a6.85,6.85,0,0,0,2.48.26C183.16,248.22,183.17,248.09,182.94,248Z"/><path class="cls-3" d="M183.7,248.31l-.49,0s0,0,0,0l.48-.06Z"/><path class="cls-3" d="M169.71,248.23c-2.07,0-4,0-5.94,0-.15.09-.25.19-.45.13a2,2,0,0,0-.45-.15l-.83,0-.3,0h0c-.15.05-.11.12,0,.18a1.57,1.57,0,0,1,.29.16s-.2-.09-.29-.16a2.44,2.44,0,0,0-.45-.12,4.21,4.21,0,0,1-.8,0,2.74,2.74,0,0,1,.8,0l.47-.06.14,0-1.91-.06-.4,0a1.81,1.81,0,0,1-1.2-.1H158l.07,0-.13,0-1.44-.06c-.31.08-.64.19-1,.25l-.32-.22a1.16,1.16,0,0,1-.54.22c.26.13.5.27.72.36s.72-.44,1.1,0c-.38-.41-.78.24-1.1,0s-.46-.23-.72-.36a2.87,2.87,0,0,1-1.51-.21,1.89,1.89,0,0,1,1.51.21,1.16,1.16,0,0,0,.54-.22l.32.22c.32-.06.65-.17,1-.25l-2.87-.11c-6.25-.27-12-.22-18.5-.43-3.51-.12-6.88-.31-10.19-.56-6.6-.5-12.63.08-19.29-1a74.47,74.47,0,0,0-9.78-.13c-3.31.71-1.6,2.56-1.44,2.67,2,1.58,3.62.7,7.76,1.63-2.82-.53,2.08-1,4.75.06,3.85,1.65,9.35.33,14.1.75,1.19.11,2.46,0,3.88.07,7.36.56,14.21-.14,22,0a43,43,0,0,0,5.58-.63c1.26-.07,2.61.14,3.64.14a29.73,29.73,0,0,0,4.33-.34c-1.48.07-2.57.19-4.23.26-1.1,0,.77-.56,1.5-.68.32-.1.81.38,1.12.29a12.84,12.84,0,0,0,2-.32c.31-.1.28.34.43.29,1-.1,1.77-.65,2.41-.54l1.34.2a5.57,5.57,0,0,0,.82,0l.55-.11a.87.87,0,0,1-.25-.46c.26,0,.64.12.9.15-.26,0-.64-.12-.9-.15a.87.87,0,0,0,.25.46c1.31-.25,2.82-.48,4.23-.67l0,0a6.86,6.86,0,0,1-2.48-.25c.37.09.33.21-.1.24l-.32-.22a3.69,3.69,0,0,1,2.16.07l.47-.15c.23.06.22.2.27.31l.49,0A8.31,8.31,0,0,0,169.71,248.23Z"/><path class="cls-3" d="M161.25,248.22l.4,0-1.6-.05A1.74,1.74,0,0,0,161.25,248.22Z"/></g><g class="cls-2"><path class="cls-3" d="M176.32,220.22l-.89,0a2,2,0,0,1,.45.15A.5.5,0,0,0,176.32,220.22Z"/><path class="cls-3" d="M174.59,220.18h-.15l-.14,0Z"/><path class="cls-3" d="M173,220.29a4.24,4.24,0,0,0,.8,0A2.43,2.43,0,0,0,173,220.29Z"/><path class="cls-3" d="M174.28,220.39c-.1-.06-.15-.13,0-.18h0l-.47.06A1.84,1.84,0,0,1,174.28,220.39Z"/><path class="cls-3" d="M174.28,220.39c.09.06.24.12.29.16A2,2,0,0,0,174.28,220.39Z"/><path class="cls-3" d="M173.88,221.91c-.16.05-.12-.38-.43-.28a12.78,12.78,0,0,1-2,.31c-.31.1-.81-.38-1.12-.28-.73.12-2.6.7-1.5.67,1.66-.06,2.74-.18,4.23-.26,1.21-.17,2.37-.38,3.61-.53a6.59,6.59,0,0,1,1,0l-1.35-.2C175.65,221.26,174.88,221.82,173.88,221.91Z"/><path class="cls-3" d="M182.94,220.48l-.47.15a3.69,3.69,0,0,0-2.16-.07l.32.21c.42,0,.47-.14.1-.24a6.63,6.63,0,0,0,2.48.26C183.16,220.68,183.17,220.54,182.94,220.48Z"/><path class="cls-3" d="M183.7,220.76l-.49,0,0,0,.48-.06Z"/><path class="cls-3" d="M169.71,220.68c-2.07,0-4,0-5.94,0-.15.08-.25.18-.45.13a1.62,1.62,0,0,0-.45-.16l-.83,0-.3,0h0c-.15,0-.11.11,0,.17a1.57,1.57,0,0,1,.29.16s-.2-.09-.29-.16a2.44,2.44,0,0,0-.45-.12,4.21,4.21,0,0,1-.8,0,2.74,2.74,0,0,1,.8,0c.16,0,.32,0,.47-.06l.14,0c-.64,0-1.27,0-1.91-.06l-.4,0a1.75,1.75,0,0,1-1.2-.1H158l.07,0-.13,0-1.44-.06c-.31.08-.64.19-1,.25l-.32-.22a1.16,1.16,0,0,1-.54.22c.26.13.5.27.72.36s.72-.43,1.1,0c-.38-.4-.78.24-1.1,0s-.46-.23-.72-.36a2.77,2.77,0,0,1-1.51-.21,1.93,1.93,0,0,1,1.51.21,1.16,1.16,0,0,0,.54-.22l.32.22c.32-.06.65-.17,1-.25l-2.87-.11c-6.25-.27-12-.22-18.5-.43-3.51-.12-6.88-.31-10.19-.56-6.6-.5-12.63.08-19.29-1a74.47,74.47,0,0,0-9.78-.13c-3.31.71-1.6,2.57-1.44,2.67,2,1.58,3.62.7,7.76,1.63-2.82-.53,2.08-1,4.75.06,3.85,1.65,9.35.33,14.1.75,1.19.11,2.46,0,3.88.07,7.36.56,14.21-.14,22,0a43,43,0,0,0,5.58-.63c1.26-.07,2.61.14,3.64.14a29.73,29.73,0,0,0,4.33-.34c-1.48.08-2.57.19-4.23.26-1.1,0,.77-.56,1.5-.68.32-.09.81.38,1.12.29a12.84,12.84,0,0,0,2-.32c.31-.09.28.34.43.29,1-.1,1.77-.65,2.41-.53l1.34.19a4.47,4.47,0,0,0,.82,0l.55-.11a.88.88,0,0,1-.25-.45c.26,0,.64.11.9.14-.26,0-.64-.12-.9-.14a.88.88,0,0,0,.25.45c1.31-.25,2.82-.48,4.23-.67,0,0,0,0,0,0a7.1,7.1,0,0,1-2.48-.26c.37.09.33.21-.1.24l-.32-.22a3.69,3.69,0,0,1,2.16.07l.47-.14c.23.06.22.19.27.31l.49,0A8.31,8.31,0,0,0,169.71,220.68Z"/><path class="cls-3" d="M161.25,220.67l.4,0-1.6-.06A1.74,1.74,0,0,0,161.25,220.67Z"/></g><g class="cls-2"><path class="cls-3" d="M176.32,192.67l-.89,0a2,2,0,0,1,.45.15A.5.5,0,0,0,176.32,192.67Z"/><path class="cls-3" d="M174.59,192.63h-.15l-.14,0Z"/><path class="cls-3" d="M173,192.74a4.24,4.24,0,0,0,.8,0A2.74,2.74,0,0,0,173,192.74Z"/><path class="cls-3" d="M174.28,192.84c-.1-.06-.15-.13,0-.18h0l-.47.06A1.84,1.84,0,0,1,174.28,192.84Z"/><path class="cls-3" d="M174.28,192.84c.09.06.24.12.29.16A2,2,0,0,0,174.28,192.84Z"/><path class="cls-3" d="M173.88,194.37c-.16,0-.12-.39-.43-.29a12.78,12.78,0,0,1-2,.31c-.31.1-.81-.38-1.12-.28-.73.12-2.6.7-1.5.67,1.66-.06,2.74-.18,4.23-.26,1.21-.17,2.37-.37,3.61-.53a6.59,6.59,0,0,1,1,0l-1.35-.2C175.65,193.71,174.88,194.27,173.88,194.37Z"/><path class="cls-3" d="M182.94,192.93l-.47.15a3.69,3.69,0,0,0-2.16-.07l.32.21c.42,0,.47-.14.1-.23a6.84,6.84,0,0,0,2.48.25C183.16,193.13,183.17,193,182.94,192.93Z"/><path class="cls-3" d="M183.7,193.21l-.49,0s0,0,0,0l.48-.06Z"/><path class="cls-3" d="M169.71,193.13c-2.07,0-4,0-5.94,0-.15.08-.25.18-.45.13a2,2,0,0,0-.45-.16l-.83,0-.3,0h0c-.15,0-.11.11,0,.18a1.57,1.57,0,0,1,.29.15s-.2-.09-.29-.15a1.84,1.84,0,0,0-.45-.13,3.52,3.52,0,0,1-.8,0,2.74,2.74,0,0,1,.8,0,3.55,3.55,0,0,0,.47-.06l.14,0L160,193l-.4,0a1.75,1.75,0,0,1-1.2-.09l-.34,0,.07,0-.13,0-1.44-.06c-.31.09-.64.19-1,.25l-.32-.22a1.16,1.16,0,0,1-.54.22c.26.13.5.27.72.36s.72-.43,1.1,0c-.38-.4-.78.25-1.1,0s-.46-.23-.72-.36a2.77,2.77,0,0,1-1.51-.21,1.93,1.93,0,0,1,1.51.21,1.16,1.16,0,0,0,.54-.22l.32.22c.32-.06.65-.16,1-.25l-2.87-.11c-6.25-.27-12-.22-18.5-.42-3.51-.13-6.88-.31-10.19-.57-6.6-.5-12.63.08-19.29-1a76.25,76.25,0,0,0-9.78-.13c-3.31.72-1.6,2.57-1.44,2.67,2,1.58,3.62.7,7.76,1.63-2.82-.53,2.08-1,4.75.06,3.85,1.65,9.35.33,14.1.76,1.19.1,2.46,0,3.88.06,7.36.56,14.21-.14,22,0a43,43,0,0,0,5.58-.62c1.26-.08,2.61.13,3.64.13a29.73,29.73,0,0,0,4.33-.34c-1.48.08-2.57.19-4.23.26-1.1,0,.77-.55,1.5-.68.32-.09.81.39,1.12.29a12.84,12.84,0,0,0,2-.32c.31-.09.28.34.43.29,1-.1,1.77-.65,2.41-.53l1.34.19a4.47,4.47,0,0,0,.82,0l.55-.11a.88.88,0,0,1-.25-.45c.26,0,.64.12.9.14-.26,0-.64-.12-.9-.14a.88.88,0,0,0,.25.45c1.31-.25,2.82-.48,4.23-.66a.05.05,0,0,0,0,0,7.1,7.1,0,0,1-2.48-.26c.37.09.33.21-.1.24l-.32-.22a3.69,3.69,0,0,1,2.16.07l.47-.14c.23.06.22.19.27.31l.49,0A8.31,8.31,0,0,0,169.71,193.13Z"/><path class="cls-3" d="M161.25,193.12l.4,0-1.6-.06A1.74,1.74,0,0,0,161.25,193.12Z"/></g><g class="cls-2"><path class="cls-3" d="M176.32,165.12l-.89,0a1.62,1.62,0,0,1,.45.16C176.07,165.31,176.18,165.21,176.32,165.12Z"/><path class="cls-3" d="M174.59,165.08h-.15l-.14,0Z"/><path class="cls-3" d="M173,165.19a4.24,4.24,0,0,0,.8,0A2.74,2.74,0,0,0,173,165.19Z"/><path class="cls-3" d="M174.28,165.29c-.1-.06-.15-.13,0-.18h0l-.47.06A2.44,2.44,0,0,1,174.28,165.29Z"/><path class="cls-3" d="M174.28,165.29c.09.07.24.12.29.16A2,2,0,0,0,174.28,165.29Z"/><path class="cls-3" d="M173.88,166.82c-.16.05-.12-.39-.43-.29a12.84,12.84,0,0,1-2,.32c-.31.09-.81-.39-1.12-.29-.73.12-2.6.7-1.5.68,1.66-.07,2.74-.18,4.23-.26,1.21-.18,2.37-.38,3.61-.54a6.59,6.59,0,0,1,1,0l-1.35-.19C175.65,166.17,174.88,166.72,173.88,166.82Z"/><path class="cls-3" d="M182.94,165.38l-.47.15a3.69,3.69,0,0,0-2.16-.07l.32.22c.42,0,.47-.15.1-.24a7.07,7.07,0,0,0,2.48.26C183.16,165.58,183.17,165.44,182.94,165.38Z"/><path class="cls-3" d="M183.7,165.66l-.49,0,0,0,.48-.06Z"/><path class="cls-3" d="M169.71,165.58c-2.07,0-4,0-5.94,0-.15.08-.25.18-.45.13a1.59,1.59,0,0,0-.45-.15l-.83,0-.3,0h0c-.15.05-.11.11,0,.18a1.57,1.57,0,0,1,.29.15s-.2-.09-.29-.15a1.48,1.48,0,0,0-.45-.12,4.24,4.24,0,0,1-.8,0,2.4,2.4,0,0,1,.8,0l.47-.06.14,0-1.91-.06-.4,0a1.75,1.75,0,0,1-1.2-.09l-.34,0,.07,0a.4.4,0,0,1-.13,0l-1.44,0c-.31.08-.64.18-1,.24l-.32-.21a1.27,1.27,0,0,1-.54.21c.26.13.5.27.72.36s.72-.43,1.1,0c-.38-.4-.78.25-1.1,0s-.46-.23-.72-.36a2.77,2.77,0,0,1-1.51-.21,2,2,0,0,1,1.51.21,1.27,1.27,0,0,0,.54-.21l.32.21c.32-.06.65-.16,1-.24l-2.87-.11c-6.25-.28-12-.23-18.5-.43-3.51-.13-6.88-.31-10.19-.57-6.6-.5-12.63.08-19.29-1a76.25,76.25,0,0,0-9.78-.13c-3.31.72-1.6,2.57-1.44,2.67,2,1.58,3.62.7,7.76,1.63-2.82-.53,2.08-1,4.75.07,3.85,1.64,9.35.33,14.1.75,1.19.1,2.46,0,3.88.06,7.36.56,14.21-.14,22,0a41.35,41.35,0,0,0,5.58-.62c1.26-.08,2.61.14,3.64.13a29.73,29.73,0,0,0,4.33-.34c-1.48.08-2.57.19-4.23.26-1.1,0,.77-.55,1.5-.68.32-.09.81.39,1.12.29a11.79,11.79,0,0,0,2-.32c.31-.09.28.34.43.29,1-.1,1.77-.65,2.41-.53.48.06.92.13,1.34.2a5.58,5.58,0,0,0,.82,0l.55-.11a.88.88,0,0,1-.25-.45c.26,0,.64.12.9.14-.26,0-.64-.12-.9-.14a.88.88,0,0,0,.25.45c1.31-.25,2.82-.48,4.23-.66a.05.05,0,0,0,0,0,7.1,7.1,0,0,1-2.48-.26c.37.1.33.22-.1.24l-.32-.21a3.61,3.61,0,0,1,2.16.06l.47-.14c.23.06.22.19.27.31l.49,0A8.31,8.31,0,0,0,169.71,165.58Z"/><path class="cls-3" d="M161.25,165.57l.4,0-1.6-.06A1.74,1.74,0,0,0,161.25,165.57Z"/></g><text class="cls-4" transform="translate(81.85 345.65)">A<tspan class="cls-5" x="61.7" y="0">CRE</tspan></text></g></g></svg>