<svg xmlns="http://www.w3.org/2000/svg" xmlns:xlink="http://www.w3.org/1999/xlink" viewBox="0 0 392 392"><defs><style>.cls-1{fill:none;stroke:#83b0b2;stroke-miterlimit:10;stroke-width:4px;}.cls-2{fill:#fff;}.cls-3{fill:#83b0b2;}.cls-4{clip-path:url(#clip-path);}</style><clipPath id="clip-path"><path class="cls-1" d="M255.21,58.1c1,12,2.1,23.7,3.12,35.41,2,23.37,4,46.75,6.07,70.11,4.24,47.2-40,84.51-85.89,72.41-37.64-9.92-59.78-49.71-48-86.8a67.21,67.21,0,0,1,32.2-39.58Q208.41,84,254.24,58.47C254.45,58.36,254.69,58.3,255.21,58.1Z"/></clipPath></defs><title>Acre1Asset 10</title><g id="Layer_2" data-name="Layer 2"><g id="leaf2_Copy" data-name="leaf2 Copy"><rect class="cls-2" width="392" height="392"/><path class="cls-3" d="M64.09,347.45H54.61l26.17-60.93h.52l26.26,60.93H97.63l-3.42-8.34H67.52ZM81,307.15,71,330.77H90.7C90.79,330.77,81,307.15,81,307.15Z"/><path class="cls-3" d="M126.16,317.6C126.16,300,139.6,287,156.63,287c11.06,0,18.7,4.3,23.88,11.59l-7.2,5.09c-3.95-5.36-9-8.16-16.94-8.16-11.86,0-20.46,9.48-20.46,22.12,0,12.91,8.78,22.13,20.81,22.13,7.72,0,13.43-2.9,17.91-8.7l7.29,5c-6.15,8.16-14,12.2-25.55,12.2C139.33,348.24,126.16,335.25,126.16,317.6Z"/><path class="cls-3" d="M249.87,347.45H238.71L228.53,333a32.53,32.53,0,0,1-4.3.27h-5.88v14.22H209v-59.7h15.28c16.42,0,25.46,9,25.46,22.83,0,9.22-4.13,16.33-11.94,19.93Zm-26-22.3c11.5,0,16.15-5.44,16.15-14.57s-4.74-14.49-16.15-14.49h-5.53v29.06Z"/><path class="cls-3" d="M278,287.75h38v8.34H287.35v24.76h25.37V329H287.35v10.1H317.2v8.34H278Z"/><g class="cls-4"><line class="cls-1" x1="255.28" y1="58.14" x2="163.78" y2="230.25"/><line class="cls-1" x1="215.53" y1="132.91" x2="193.11" y2="53.28"/><line class="cls-1" x1="192.35" y1="176.51" x2="127.54" y2="71.41"/><line class="cls-1" x1="172.83" y1="213.23" x2="100.55" y2="127.7"/><line class="cls-1" x1="215.53" y1="132.91" x2="294.08" y2="106.97"/><line class="cls-1" x1="192.35" y1="176.51" x2="315.72" y2="171.46"/><line class="cls-1" x1="172.83" y1="213.23" x2="284.14" y2="225.31"/></g><path class="cls-1" d="M255.21,58.1c1,12,2.1,23.7,3.12,35.41,2,23.37,4,46.75,6.07,70.11,4.24,47.2-40,84.51-85.89,72.41-37.64-9.92-59.78-49.71-48-86.8a67.21,67.21,0,0,1,32.2-39.58Q208.41,84,254.24,58.47C254.45,58.36,254.69,58.3,255.21,58.1Z"/><path class="cls-1" d="M163.32,231c2.86-5.16-.42.79-5.13,9.12C156,244,151,251.65,147.44,254.3s-15.69,5.91-15.69,5.91"/></g></g></svg>