<?xml version="1.0" encoding="UTF-8"?>
<svg width="200px" height="200px" viewBox="0 0 200 200" version="1.1" xmlns="http://www.w3.org/2000/svg" xmlns:xlink="http://www.w3.org/1999/xlink">
    <!-- Generator: Sketch 51.2 (57519) - http://www.bohemiancoding.com/sketch -->
    <title>itunes-brands</title>
    <desc>Created with Sketch.</desc>
    <defs></defs>
    <g id="Page-1" stroke="none" stroke-width="1" fill="none" fill-rule="evenodd">
        <g id="Desktop-HD-Copy" transform="translate(-654.000000, -20.000000)" fill-rule="nonzero">
            <g id="itunes-brands" transform="translate(654.000000, 20.000000)">
                <circle id="Oval" fill="#DD8348" cx="100" cy="100" r="100"></circle>
                <path d="M99.8752788,26.5501917 C59.3580286,26.5501917 26.5930218,59.4008587 26.5930218,99.8752788 C26.5930218,140.349699 59.3580286,173.243196 99.8752788,173.243196 C140.392529,173.243196 173.200366,140.392529 173.200366,99.9181089 C173.200366,59.4008587 140.349699,26.5501917 99.8752788,26.5501917 Z M133.882358,129.34237 C132.511795,135.16726 128.100298,138.422346 122.189748,139.535928 C117.007309,140.478189 112.681471,140.73517 108.526954,137.394424 C103.473005,133.111416 103.387345,126.087284 107.927333,121.632957 C111.525059,118.206551 116.621838,117.521269 124.202761,116.150707 C125.487663,115.936557 126.601245,115.636746 127.500677,114.565994 C128.871239,113.024112 128.442938,113.709393 128.442938,79.9592943 C128.442938,77.5608101 127.286526,76.918359 124.845212,77.3466598 C123.132009,77.6464703 85.4843739,84.6706025 85.4843739,84.6706025 C83.3428702,85.1417333 82.6147589,85.7841844 82.6147589,88.2254986 C82.6147589,137.951215 82.8289093,135.681221 82.100798,138.979137 C81.2013665,142.833843 78.8457124,145.746288 75.7191169,147.373831 C72.1642208,149.344015 65.6968796,150.200616 62.2704736,149.600995 C53.1048377,147.887792 49.8925822,137.308764 56.1029429,131.226893 C59.7006692,127.800487 64.797448,127.115206 72.3783712,125.744644 C73.6632734,125.530493 74.7768553,125.230683 75.6762869,124.159931 C77.8177906,121.718617 76.0617575,69.7657366 76.7898688,66.8961217 C76.9611891,65.7825397 77.4323199,64.8402781 78.2889214,64.1549969 C79.188353,63.4268856 80.7730657,62.9985849 81.1585364,62.9985849 C124.416911,54.8608708 129.685011,53.832949 130.455952,53.832949 C132.897266,53.6616287 134.310659,55.1178512 134.310659,57.5591655 C134.267828,130.627272 134.481979,126.686905 133.882358,129.34237 Z M99.8752788,182.323172 C54.3469099,182.323172 17.4273859,145.403648 17.4273859,99.8752788 C17.4273859,54.3469099 54.3469099,17.4273859 99.8752788,17.4273859 C145.403648,17.4273859 182.323172,54.3469099 182.323172,99.8752788 C182.323172,145.403648 145.403648,182.323172 99.8752788,182.323172 Z" id="Shape" fill="#FFFFFF"></path>
            </g>
        </g>
    </g>
</svg>