<?xml version="1.0" encoding="UTF-8"?>
<svg width="200px" height="200px" viewBox="0 0 200 200" version="1.1" xmlns="http://www.w3.org/2000/svg" xmlns:xlink="http://www.w3.org/1999/xlink">
    <!-- Generator: Sketch 51.2 (57519) - http://www.bohemiancoding.com/sketch -->
    <title>spotify-brands</title>
    <desc>Created with Sketch.</desc>
    <defs></defs>
    <g id="Page-1" stroke="none" stroke-width="1" fill="none" fill-rule="evenodd">
        <g id="Desktop-HD-Copy" transform="translate(-399.000000, -24.000000)" fill-rule="nonzero">
            <g id="spotify-brands" transform="translate(399.000000, 24.000000)">
                <circle id="Oval-2" fill="#FFFFFF" cx="95" cy="95" r="77"></circle>
                <path d="M100,0 C44.7983871,0 0,44.7983871 0,100 C0,155.201613 44.7983871,200 100,200 C155.201613,200 200,155.201613 200,100 C200,44.7983871 155.201613,0 100,0 Z M140.604839,147.137097 C138.91129,147.137097 137.862903,146.612903 136.290323,145.685484 C111.129032,130.524194 81.8548387,129.879032 52.9435484,135.806452 C51.3709677,136.209677 49.3145161,136.854839 48.1451613,136.854839 C44.233871,136.854839 41.7741935,133.75 41.7741935,130.483871 C41.7741935,126.330645 44.233871,124.354839 47.2580645,123.709677 C80.2822581,116.41129 114.032258,117.056452 142.822581,134.274194 C145.282258,135.846774 146.733871,137.258065 146.733871,140.927419 C146.733871,144.596774 143.870968,147.137097 140.604839,147.137097 Z M151.451613,120.685484 C149.354839,120.685484 147.943548,119.758065 146.491935,118.991935 C121.290323,104.072581 83.7096774,98.0645161 50.2822581,107.137097 C48.3467742,107.66129 47.2983871,108.185484 45.483871,108.185484 C41.1693548,108.185484 37.6612903,104.677419 37.6612903,100.362903 C37.6612903,96.0483871 39.7580645,93.1854839 43.9112903,92.016129 C55.1209677,88.8709677 66.5725806,86.5322581 83.3467742,86.5322581 C109.516129,86.5322581 134.798387,93.0241935 154.717742,104.879032 C157.983871,106.814516 159.274194,109.314516 159.274194,112.822581 C159.233871,117.177419 155.846774,120.685484 151.451613,120.685484 Z M163.951613,89.9596774 C161.854839,89.9596774 160.564516,89.4354839 158.75,88.3870968 C130.040323,71.25 78.7096774,67.1370968 45.483871,76.4112903 C44.0322581,76.8145161 42.2177419,77.4596774 40.2822581,77.4596774 C34.9596774,77.4596774 30.8870968,73.3064516 30.8870968,67.9435484 C30.8870968,62.4596774 34.2741935,59.3548387 37.9032258,58.3064516 C52.0967742,54.1532258 67.983871,52.1774194 85.2822581,52.1774194 C114.717742,52.1774194 145.564516,58.3064516 168.104839,71.4516129 C171.25,73.266129 173.306452,75.766129 173.306452,80.5645161 C173.306452,86.0483871 168.870968,89.9596774 163.951613,89.9596774 Z" id="Shape" fill="#DD8348"></path>
            </g>
        </g>
    </g>
</svg>