<?xml version="1.0" encoding="UTF-8"?>
<svg width="134px" height="158px" viewBox="0 0 134 158" version="1.1" xmlns="http://www.w3.org/2000/svg" xmlns:xlink="http://www.w3.org/1999/xlink">
    <!-- Generator: Sketch 51.1 (57501) - http://www.bohemiancoding.com/sketch -->
    <title>pain-points</title>
    <desc>Created with Sketch.</desc>
    <defs></defs>
    <g id="Page-1" stroke="none" stroke-width="1" fill="none" fill-rule="evenodd">
        <g id="pain-points" fill="#575B67" fill-rule="nonzero">
            <path d="M133.912,111.8656 L133.912,157.6336 L113.8624,157.6336 L113.8624,125.8608 C113.8624,124.7168 112.9488,123.8048 111.8064,123.8048 C110.6704,123.8048 109.7504,124.7184 109.7504,125.8608 L109.7504,157.6336 L41.6224,157.6336 L41.6224,112.4496 L5.52,89.0608 C2.8464,87.3328 1.0528,84.528 0.6,81.3856 C0.1472,78.2352 1.0688,75.0432 3.1424,72.624 L31.6416,39.6736 C35.6064,35.0496 42.576,34.5232 47.1984,38.4896 C51.8224,42.4544 52.3488,49.416 48.3824,54.0384 L28.104,77.4112 L48.96,90.92 C49.4368,90.8784 49.9472,90.8624 50.4816,90.8624 L112.9008,90.8624 C124.4592,90.8624 133.912,100.3152 133.912,111.8656 Z" id="Shape"></path>
            <path d="M103.8336,60.1184 C103.8336,73.8912 92.6288,85.104 78.848,85.104 C65.0096,85.104 53.8624,71.4304 53.8624,60.1184 C53.8624,46.3376 65.0752,35.1328 78.848,35.1328 C92.6288,35.1312 103.8336,46.3376 103.8336,60.1184 Z" id="Shape"></path>
            <polygon id="Shape" points="114.1808 0.3664 100.7328 20.0848 110.5952 20.0848 101.1888 37.4672 128.5264 13.9488 114.1808 13.9488 128.5264 0.3664"></polygon>
        </g>
    </g>
</svg>