<?xml version="1.0" encoding="UTF-8"?>
<svg width="127px" height="140px" viewBox="0 0 127 140" version="1.1" xmlns="http://www.w3.org/2000/svg" xmlns:xlink="http://www.w3.org/1999/xlink">
    <!-- Generator: Sketch 51.1 (57501) - http://www.bohemiancoding.com/sketch -->
    <title>clinic</title>
    <desc>Created with Sketch.</desc>
    <defs></defs>
    <g id="Page-1" stroke="none" stroke-width="1" fill="none" fill-rule="evenodd">
        <g id="clinic" fill="#575B67" fill-rule="nonzero">
            <g id="Group">
                <path d="M123.28133,48.72 L77.4787724,48.72 L77.4787724,3.08 C77.4787724,1.4 76.0823529,0 74.4066496,0 L3.18925831,0 C1.51355499,0 0.396419437,1.4 0.396419437,3.08 L0.396419437,136.92 C0.396419437,138.6 1.79283887,140 3.4685422,140 L123.28133,140 C124.957033,140 126.353453,138.6 126.353453,136.92 L126.353453,51.8 C126.074169,50.12 124.957033,48.72 123.28133,48.72 Z M6.26138107,6.16 L71.6138107,6.16 L71.6138107,134.12 L60.4424552,134.12 L60.4424552,103.32 C60.4424552,101.64 59.0460358,100.24 57.3703325,100.24 L20.5048593,100.24 C18.829156,100.24 17.4327366,101.64 17.4327366,103.32 L17.4327366,133.84 L6.26138107,133.84 L6.26138107,6.16 Z M23.5769821,133.84 L23.5769821,106.4 L54.2982097,106.4 L54.2982097,133.84 L23.5769821,133.84 Z M120.209207,133.84 L77.4787724,133.84 L77.4787724,54.88 L119.929923,54.88 L119.929923,133.84 L120.209207,133.84 Z" id="Shape"></path>
                <path d="M86.6951407,87.36 L110.992839,87.36 C112.668542,87.36 114.064962,85.96 114.064962,84.28 L114.064962,65.8 C114.064962,64.12 112.668542,62.72 110.992839,62.72 L86.6951407,62.72 C85.0194373,62.72 83.6230179,64.12 83.6230179,65.8 L83.6230179,84.28 C83.6230179,85.96 85.0194373,87.36 86.6951407,87.36 Z M89.7672634,68.88 L107.920716,68.88 L107.920716,81.2 L89.7672634,81.2 L89.7672634,68.88 Z" id="Shape"></path>
                <path d="M86.6951407,126 L110.992839,126 C112.668542,126 114.064962,124.6 114.064962,122.92 L114.064962,104.44 C114.064962,102.76 112.668542,101.36 110.992839,101.36 L86.6951407,101.36 C85.0194373,101.36 83.6230179,102.76 83.6230179,104.44 L83.6230179,122.92 C83.6230179,124.6 85.0194373,126 86.6951407,126 Z M89.7672634,107.52 L107.920716,107.52 L107.920716,119.84 L89.7672634,119.84 L89.7672634,107.52 Z" id="Shape"></path>
                <path d="M32.5140665,87.36 C34.1897698,87.36 35.5861893,85.96 35.5861893,84.28 L35.5861893,63.28 C35.5861893,61.6 34.1897698,60.2 32.5140665,60.2 L15.4777494,60.2 C13.802046,60.2 12.4056266,61.6 12.4056266,63.28 L12.4056266,84.28 C12.4056266,85.96 13.802046,87.36 15.4777494,87.36 L32.5140665,87.36 Z M18.5498721,66.36 L29.7212276,66.36 L29.7212276,81.2 L18.5498721,81.2 L18.5498721,66.36 Z" id="Shape"></path>
                <path d="M42.2890026,63.28 L42.2890026,84.28 C42.2890026,85.96 43.685422,87.36 45.3611253,87.36 L62.3974425,87.36 C64.0731458,87.36 65.4695652,85.96 65.4695652,84.28 L65.4695652,63.28 C65.4695652,61.6 64.0731458,60.2 62.3974425,60.2 L45.3611253,60.2 C43.685422,60.2 42.2890026,61.6 42.2890026,63.28 Z M48.4332481,66.36 L59.6046036,66.36 L59.6046036,81.2 L48.4332481,81.2 L48.4332481,66.36 Z" id="Shape"></path>
                <path d="M24.1355499,40.04 L31.1176471,40.04 L31.1176471,47.04 C31.1176471,48.72 32.5140665,50.12 34.1897698,50.12 L44.2439898,50.12 C45.9196931,50.12 47.3161125,48.72 47.3161125,47.04 L47.3161125,40.04 L54.2982097,40.04 C55.973913,40.04 57.3703325,38.64 57.3703325,36.96 L57.3703325,26.88 C57.3703325,25.2 55.973913,23.8 54.2982097,23.8 L47.3161125,23.8 L47.3161125,17.08 C47.3161125,15.4 45.9196931,14 44.2439898,14 L34.1897698,14 C32.5140665,14 31.1176471,15.4 31.1176471,17.08 L31.1176471,24.08 L24.1355499,24.08 C22.4598465,24.08 21.0634271,25.48 21.0634271,27.16 L21.0634271,37.24 C21.0634271,38.64 22.4598465,40.04 24.1355499,40.04 Z M26.9283887,29.96 L33.9104859,29.96 C35.5861893,29.96 36.9826087,28.56 36.9826087,26.88 L36.9826087,20.16 L40.8925831,20.16 L40.8925831,27.16 C40.8925831,28.84 42.2890026,30.24 43.9647059,30.24 L50.9468031,30.24 L50.9468031,34.16 L43.9647059,34.16 C42.2890026,34.16 40.8925831,35.56 40.8925831,37.24 L40.8925831,44.24 L36.9826087,44.24 L36.9826087,37.24 C36.9826087,35.56 35.5861893,34.16 33.9104859,34.16 L26.9283887,34.16 L26.9283887,29.96 Z" id="Shape"></path>
            </g>
        </g>
    </g>
</svg>