<?xml version="1.0" encoding="UTF-8"?>
<svg width="150px" height="160px" viewBox="0 0 150 160" version="1.1" xmlns="http://www.w3.org/2000/svg" xmlns:xlink="http://www.w3.org/1999/xlink">
    <!-- Generator: Sketch 51.1 (57501) - http://www.bohemiancoding.com/sketch -->
    <title>system-usage</title>
    <desc>Created with Sketch.</desc>
    <defs></defs>
    <g id="Page-1" stroke="none" stroke-width="1" fill="none" fill-rule="evenodd">
        <g id="system-usage" fill="#575B67" fill-rule="nonzero">
            <polygon id="Shape" points="98.975 144.045 93.555 144.045 93.555 154.505 56.45 154.505 56.45 144.045 51.03 144.045 51.03 154.505 41.6 154.505 41.6 159.925 51.03 159.925 98.975 159.925 108.4 159.925 108.4 154.505 98.975 154.505"></polygon>
            <path d="M147.705,20.255 C146.24,18.775 144.275,17.955 142.185,17.955 L116.46,17.955 L98.515,0 L31.915,0 L31.915,17.955 L7.81,17.955 C5.72,17.955 3.75,18.765 2.285,20.245 C0.815,21.72 0,23.68 0,25.76 L0,115.895 L0,121.315 L0,130.515 C0,132.605 0.815,134.57 2.285,136.025 C3.75,137.51 5.715,138.32 7.81,138.32 L142.185,138.32 C144.285,138.32 146.25,137.51 147.705,136.045 C149.19,134.565 150,132.6 150,130.51 L150,121.32 L150,115.9 L150,25.76 C150,23.685 149.18,21.725 147.705,20.255 Z M144.58,130.51 C144.58,131.145 144.325,131.74 143.855,132.21 C143.415,132.65 142.82,132.895 142.185,132.895 L7.81,132.895 C7.175,132.895 6.57,132.65 6.12,132.19 C5.665,131.74 5.42,131.145 5.42,130.51 L5.42,121.31 L144.58,121.31 L144.58,130.51 Z M118.065,35.42 L132.53,35.42 L132.53,103.85 L118.065,103.85 L118.065,35.42 Z M100.105,9.255 L108.805,17.955 L100.105,17.955 L100.105,9.255 Z M94.69,5.415 L94.69,23.37 L112.65,23.37 L112.65,103.84 L37.35,103.84 L37.35,5.415 L94.69,5.415 Z M31.92,103.84 L17.47,103.84 L17.47,35.42 L31.925,35.42 L31.925,103.84 L31.92,103.84 Z M5.415,25.76 C5.415,25.125 5.665,24.525 6.12,24.075 C6.57,23.625 7.175,23.375 7.81,23.375 L31.915,23.375 L31.915,30 L12.05,30 L12.05,109.27 L137.95,109.27 L137.95,29.995 L118.065,29.995 L118.065,23.375 L142.185,23.375 C142.82,23.375 143.415,23.62 143.865,24.075 C144.325,24.535 144.58,25.13 144.58,25.76 L144.58,115.895 L5.415,115.895 L5.415,25.76 Z" id="Shape"></path>
            <rect id="Rectangle-path" x="70.74" y="78.52" width="31.33" height="5.415"></rect>
            <rect id="Rectangle-path" x="70.74" y="88.17" width="31.33" height="5.42"></rect>
            <polygon id="Shape" points="65.58 81.63 61.735 77.805 54.02 85.52 49.84 81.345 46.015 85.18 54.03 93.195"></polygon>
            <rect id="Rectangle-path" x="70.74" y="56.835" width="31.33" height="5.42"></rect>
            <rect id="Rectangle-path" x="70.74" y="66.47" width="31.33" height="5.42"></rect>
            <polygon id="Shape" points="65.58 59.95 61.735 56.115 54.02 63.84 49.84 59.66 46.015 63.49 54.03 71.51"></polygon>
            <rect id="Rectangle-path" x="70.74" y="35.15" width="31.33" height="5.42"></rect>
            <rect id="Rectangle-path" x="70.74" y="44.785" width="31.33" height="5.42"></rect>
            <polygon id="Shape" points="65.58 38.265 61.735 34.43 54.02 42.155 49.84 37.975 46.015 41.805 54.03 49.82"></polygon>
        </g>
    </g>
</svg>