<?xml version="1.0" encoding="UTF-8"?>
<svg width="147px" height="198px" viewBox="0 0 147 198" version="1.1" xmlns="http://www.w3.org/2000/svg" xmlns:xlink="http://www.w3.org/1999/xlink">
    <!-- Generator: Sketch 51.1 (57501) - http://www.bohemiancoding.com/sketch -->
    <title>noun_hospital forms_1183357</title>
    <desc>Created with Sketch.</desc>
    <defs></defs>
    <g id="Page-1" stroke="none" stroke-width="1" fill="none" fill-rule="evenodd">
        <g id="noun_hospital-forms_1183357" fill="#575B67" fill-rule="nonzero">
            <g id="Group" transform="translate(60.000000, 63.000000)">
                <path d="M13.5,26.16975 C11.9475,26.16975 10.6875,24.90975 10.6875,23.35725 L10.6875,3.18825 C10.6875,1.63575 11.9475,0.37575 13.5,0.37575 C15.0525,0.37575 16.3125,1.63575 16.3125,3.18825 L16.3125,23.35725 C16.3125,24.90975 15.0525,26.16975 13.5,26.16975 Z" id="Shape"></path>
                <path d="M23.58225,16.08525 L3.4155,16.08525 C1.863,16.08525 0.603,14.82525 0.603,13.27275 C0.603,11.72025 1.863,10.46025 3.4155,10.46025 L23.58225,10.46025 C25.13475,10.46025 26.39475,11.72025 26.39475,13.27275 C26.39475,14.82525 25.137,16.08525 23.58225,16.08525 Z" id="Shape"></path>
            </g>
            <path d="M102.222998,121 L43.7792253,121 C42.2450929,121 41,119.656 41,118 C41,116.344 42.2450929,115 43.7792253,115 L102.220775,115 C103.754907,115 105,116.344 105,118 C105,119.656 103.75713,121 102.222998,121 Z" id="Shape"></path>
            <path d="M102.222998,138 L43.7792253,138 C42.2450929,138 41,136.656 41,135 C41,133.344 42.2450929,132 43.7792253,132 L102.220775,132 C103.754907,132 105,133.344 105,135 C105,136.656 103.75713,138 102.222998,138 Z" id="Shape"></path>
            <path d="M102.222998,155 L43.7792253,155 C42.2450929,155 41,153.656 41,152 C41,150.344 42.2450929,149 43.7792253,149 L102.220775,149 C103.754907,149 105,150.344 105,152 C105,153.656 103.75713,155 102.222998,155 Z" id="Shape"></path>
            <path d="M109.230812,42 L36.7714052,42 C35.8269765,42 34.9490569,41.5160571 34.4391541,40.7176628 C33.9292512,39.9192685 33.8583082,38.9134701 34.2529287,38.0504014 L45.3976306,13.6257806 C45.8476752,12.6355932 46.8320094,12 47.9161071,12 L98.0838929,12 C99.1657737,12 100.152325,12.6355932 100.602369,13.6257806 L111.747071,38.0504014 C112.141692,38.9134701 112.070749,39.9192685 111.560846,40.7176628 C111.05316,41.5160571 110.17524,42 109.230812,42 Z M41.0922773,36.4246209 L104.907723,36.4246209 L96.305884,17.5753791 L49.694116,17.5753791 L41.0922773,36.4246209 Z" id="Shape"></path>
            <path d="M83.2476287,17 C81.7283198,17 80.4952575,15.728972 80.4952575,14.1628838 C80.4952575,9.48277704 77.1329607,5.67423231 73,5.67423231 C68.8670393,5.67423231 65.5047425,9.48277704 65.5047425,14.1628838 C65.5047425,15.728972 64.2716802,17 62.7523713,17 C61.2330623,17 60,15.728972 60,14.1628838 C60,6.35287049 65.8306233,0 73,0 C80.1693767,0 86,6.35287049 86,14.1628838 C86,15.728972 84.7691396,17 83.2476287,17 Z" id="Shape"></path>
            <path d="M127.215736,177 L19.7864906,177 C18.2483478,177 17,175.748491 17,174.206454 L17,29.7935458 C17,28.2515085 18.2483478,27 19.7864906,27 L41.5545554,27 C43.0926982,27 44.341046,28.2515085 44.341046,29.7935458 C44.341046,31.3355831 43.0926982,32.5870916 41.5545554,32.5870916 L22.5729813,32.5870916 L22.5729813,171.412908 L124.427016,171.412908 L124.427016,32.5870916 L105.445442,32.5870916 C103.907299,32.5870916 102.658951,31.3355831 102.658951,29.7935458 C102.658951,28.2515085 103.907299,27 105.445442,27 L127.213506,27 C128.751649,27 129.999997,28.2515085 129.999997,29.7935458 L129.999997,174.206454 C130.002226,175.750726 128.753878,177 127.215736,177 Z" id="Shape"></path>
            <path d="M132.27818,198 L14.7218199,198 C6.74193448,198 0,191.790764 0,184.440239 L0,30.6242779 C0,23.240382 6.74193448,17 14.7218199,17 L46.0691434,17 C47.6054495,17 48.8523066,18.2458517 48.8523066,19.7809189 C48.8523066,21.3159861 47.6054495,22.5618378 46.0691434,22.5618378 L14.7218199,22.5618378 C10.2999303,22.5618378 5.56632636,25.8010521 5.56632636,30.6242779 L5.56632636,184.440239 C5.56632636,189.22342 10.2999303,192.438162 14.7218199,192.438162 L132.280406,192.438162 C136.702296,192.438162 141.4359,189.225645 141.4359,184.440239 L141.4359,30.6242779 C141.4359,25.8032769 136.702296,22.5618378 132.280406,22.5618378 L100.930856,22.5618378 C99.3945499,22.5618378 98.1476928,21.3159861 98.1476928,19.7809189 C98.1476928,18.2458517 99.3945499,17 100.930856,17 L132.27818,17 C140.258065,17 146.999999,23.2381573 146.999999,30.6242779 L146.999999,184.440239 C147.002226,191.790764 140.258065,198 132.27818,198 Z" id="Shape"></path>
            <path d="M92.1998855,97 L54.7978762,97 C53.2534485,97 52,95.7465515 52,94.2021238 L52,56.7978762 C52,55.2534485 53.2534485,54 54.7978762,54 L92.2021238,54 C93.7465515,54 95,55.2534485 95,56.7978762 L95,94.2021238 C94.9977617,95.7487898 93.7465515,97 92.1998855,97 Z M57.5957524,91.4042476 L89.4042476,91.4042476 L89.4042476,59.5957524 L57.5957524,59.5957524 L57.5957524,91.4042476 Z" id="Shape"></path>
        </g>
    </g>
</svg>