<?xml version="1.0" encoding="UTF-8"?>
<svg width="169px" height="158px" viewBox="0 0 169 158" version="1.1" xmlns="http://www.w3.org/2000/svg" xmlns:xlink="http://www.w3.org/1999/xlink">
    <!-- Generator: Sketch 51.1 (57501) - http://www.bohemiancoding.com/sketch -->
    <title>gVets_team</title>
    <desc>Created with Sketch.</desc>
    <defs></defs>
    <g id="Page-1" stroke="none" stroke-width="1" fill="none" fill-rule="evenodd">
        <g id="gVets_team" fill="#575B67" fill-rule="nonzero">
            <g id="Group">
                <path d="M0.175824176,157.593407 L55.2087912,157.593407 L57.8461538,157.417582 L110.769231,157.417582 L110.769231,157.593407 L168.43956,157.593407 L168.43956,154.956044 C168.43956,138.956044 155.428571,126.120879 139.604396,126.120879 C130.989011,126.120879 123.076923,129.813187 117.626374,136.142857 C110.945055,124.714286 98.8131868,117.505495 85.2747253,117.505495 C71.2087912,117.505495 58.3736264,125.417582 52.043956,137.725275 C46.9450549,130.868132 39.032967,126.648352 30.4175824,126.120879 C40.967033,125.417582 49.0549451,116.802198 49.0549451,106.252747 C49.0549451,95.1758242 40.0879121,86.2087912 29.010989,86.2087912 C17.9340659,86.2087912 8.96703297,95.1758242 8.96703297,106.252747 C8.96703297,116.802198 17.2307692,125.417582 27.6043956,126.120879 C12.3076923,126.824176 3.55271368e-15,139.483516 3.55271368e-15,154.956044 L3.55271368e-15,157.593407 L0.175824176,157.593407 Z M14.4175824,106.252747 C14.4175824,98.1648352 21.0989011,91.4835165 29.1868132,91.4835165 C37.2747253,91.4835165 43.956044,98.1648352 43.956044,106.252747 C43.956044,114.340659 37.2747253,121.021978 29.1868132,121.021978 C21.0989011,121.021978 14.4175824,114.340659 14.4175824,106.252747 Z M29.010989,131.395604 C37.978022,131.395604 46.2417582,136.67033 50.2857143,144.758242 L53.0989011,150.384615 L55.2087912,144.406593 C59.6043956,131.571429 71.9120879,122.956044 85.4505495,122.956044 C98.2857143,122.956044 109.89011,130.516484 114.989011,142.296703 L116.923077,146.868132 L119.56044,142.648352 C123.956044,135.615385 131.340659,131.395604 139.604396,131.395604 C151.736264,131.395604 161.758242,140.538462 162.989011,152.318681 L116.043956,152.318681 L116.043956,152.142857 L55.3846154,152.142857 L52.7472527,152.318681 L5.62637363,152.318681 C7.03296703,140.538462 17.0549451,131.395604 29.010989,131.395604 Z" id="Shape"></path>
                <path d="M139.78022,126.120879 C150.857143,126.120879 159.824176,117.153846 159.824176,106.076923 C159.824176,95 150.857143,86.032967 139.78022,86.032967 C128.703297,86.032967 119.736264,95 119.736264,106.076923 C119.736264,117.153846 128.703297,126.120879 139.78022,126.120879 Z M139.78022,91.3076923 C147.868132,91.3076923 154.549451,97.989011 154.549451,106.076923 C154.549451,114.164835 147.868132,120.846154 139.78022,120.846154 C131.692308,120.846154 125.010989,114.164835 125.010989,106.076923 C125.010989,97.989011 131.516484,91.3076923 139.78022,91.3076923 Z" id="Shape"></path>
                <path d="M63.8241758,95.3516484 C63.8241758,107.307692 73.4945055,116.978022 85.4505495,116.978022 C97.4065934,116.978022 107.076923,107.307692 107.076923,95.3516484 C107.076923,83.3956044 97.4065934,73.7252747 85.4505495,73.7252747 C73.4945055,73.7252747 63.8241758,83.3956044 63.8241758,95.3516484 Z M101.802198,95.3516484 C101.802198,104.318681 94.4175824,111.703297 85.4505495,111.703297 C76.4835165,111.703297 69.0989011,104.318681 69.0989011,95.3516484 C69.0989011,86.3846154 76.4835165,79 85.4505495,79 C94.4175824,79 101.802198,86.3846154 101.802198,95.3516484 Z" id="Shape"></path>
                <path d="M118.857143,34.8681319 C118.857143,15.8791209 103.384615,0.406593407 84.3956044,0.406593407 C65.4065934,0.406593407 49.9340659,15.8791209 49.9340659,34.8681319 C49.9340659,53.8571429 65.4065934,69.1538462 84.3956044,69.1538462 C103.384615,69.1538462 118.857143,53.8571429 118.857143,34.8681319 Z M84.3956044,63.8791209 C68.3956044,63.8791209 55.2087912,50.8681319 55.2087912,34.6923077 C55.2087912,18.5164835 68.3956044,5.68131868 84.3956044,5.68131868 C100.395604,5.68131868 113.582418,18.6923077 113.582418,34.8681319 C113.582418,51.043956 100.395604,63.8791209 84.3956044,63.8791209 Z" id="Shape"></path>
                <path d="M104.791209,27.3076923 L91.0769231,27.3076923 L91.0769231,13.5934066 C91.0769231,12.1868132 89.8461538,10.956044 88.4395604,10.956044 L80.3516484,10.956044 C78.9450549,10.956044 77.7142857,12.1868132 77.7142857,13.5934066 L77.7142857,27.3076923 L64,27.3076923 C62.5934066,27.3076923 61.3626374,28.5384615 61.3626374,29.9450549 L61.3626374,38.032967 C61.3626374,39.4395604 62.5934066,40.6703297 64,40.6703297 L77.7142857,40.6703297 L77.7142857,54.3846154 C77.7142857,55.7912088 78.9450549,57.021978 80.3516484,57.021978 L88.4395604,57.021978 C89.8461538,57.021978 91.0769231,55.7912088 91.0769231,54.3846154 L91.0769231,40.6703297 L104.791209,40.6703297 C106.197802,40.6703297 107.428571,39.4395604 107.428571,38.032967 L107.428571,29.9450549 C107.428571,28.5384615 106.197802,27.3076923 104.791209,27.3076923 Z M102.153846,35.3956044 L88.4395604,35.3956044 C87.032967,35.3956044 85.8021978,36.6263736 85.8021978,38.032967 L85.8021978,51.7472527 L82.989011,51.7472527 L82.989011,38.032967 C82.989011,36.6263736 81.7582418,35.3956044 80.3516484,35.3956044 L66.6373626,35.3956044 L66.6373626,32.5824176 L80.3516484,32.5824176 C81.7582418,32.5824176 82.989011,31.3516484 82.989011,29.9450549 L82.989011,16.2307692 L85.8021978,16.2307692 L85.8021978,29.9450549 C85.8021978,31.3516484 87.032967,32.5824176 88.4395604,32.5824176 L102.153846,32.5824176 L102.153846,35.3956044 Z" id="Shape"></path>
            </g>
        </g>
    </g>
</svg>