<?xml version="1.0" encoding="UTF-8"?>
<svg width="239px" height="225px" viewBox="0 0 239 225" version="1.1" xmlns="http://www.w3.org/2000/svg" xmlns:xlink="http://www.w3.org/1999/xlink">
    <!-- Generator: Sketch 51.1 (57501) - http://www.bohemiancoding.com/sketch -->
    <title>noun_dropdown list_815631</title>
    <desc>Created with Sketch.</desc>
    <defs></defs>
    <g id="Page-1" stroke="none" stroke-width="1" fill="none" fill-rule="evenodd">
        <g id="noun_dropdown-list_815631" fill="#575B67">
            <path d="M0,21.091043 L0,203.908957 C0,215.553871 9.45052394,225 21.1004911,225 L217.899509,225 C229.543719,225 239,215.556117 239,203.908957 L239,21.091043 C239,9.44612789 229.549476,0 217.899509,0 L21.1004911,0 C9.45628103,0 0,9.44388457 0,21.091043 Z M224.941176,83.1705785 L224.941176,203.908957 C224.941176,207.784652 221.78419,210.9375 217.899509,210.9375 L21.1004911,210.9375 C17.2127132,210.9375 14.0588235,207.785078 14.0588235,203.908957 L14.0588235,83.1705785 C16.2612402,83.9507189 18.6314699,84.375 21.1004911,84.375 L217.899509,84.375 C220.368161,84.375 222.738468,83.9505277 224.941176,83.1705785 Z M168.705882,14.0625 L217.899509,14.0625 C221.787287,14.0625 224.941176,17.2149212 224.941176,21.091043 L224.941176,63.283957 C224.941176,67.1596538 221.78419,70.3125 217.899509,70.3125 L168.705882,70.3125 L168.705882,14.0625 Z M14.0588235,21.091043 C14.0588235,17.2153462 17.2158097,14.0625 21.1004911,14.0625 L154.647059,14.0625 L154.647059,70.3125 L21.1004911,70.3125 C17.2127132,70.3125 14.0588235,67.1600788 14.0588235,63.283957 L14.0588235,21.091043 Z M202.397101,50.6749697 C205.142258,53.4208433 209.593036,53.4208433 212.338193,50.6749697 C215.083347,47.9290957 215.083347,43.4771543 212.338193,40.7312803 L201.794076,30.1844053 C199.048918,27.4385317 194.598141,27.4385317 191.852983,30.1844053 L181.308865,40.7312803 C178.563711,43.4771543 178.563711,47.9290957 181.308865,50.6749697 C184.054023,53.4208433 188.504801,53.4208433 191.249958,50.6749697 L196.823529,45.099939 L202.397101,50.6749697 Z M35.1470588,49.21875 L98.4916048,49.21875 C102.37384,49.21875 105.521017,46.0707521 105.521017,42.1875 C105.521017,38.3042479 102.37384,35.15625 98.4916048,35.15625 L35.1470588,35.15625 C31.2648237,35.15625 28.1176471,38.3042479 28.1176471,42.1875 C28.1176471,46.0707521 31.2648237,49.21875 35.1470588,49.21875 Z M35.1470588,119.53125 L140.668075,119.53125 C144.550311,119.53125 147.697487,116.383252 147.697487,112.5 C147.697487,108.616748 144.550311,105.46875 140.668075,105.46875 L35.1470588,105.46875 C31.2648237,105.46875 28.1176471,108.616748 28.1176471,112.5 C28.1176471,116.383252 31.2648237,119.53125 35.1470588,119.53125 Z M35.1470588,154.6875 L98.4916048,154.6875 C102.37384,154.6875 105.521017,151.539502 105.521017,147.65625 C105.521017,143.772998 102.37384,140.625 98.4916048,140.625 L35.1470588,140.625 C31.2648237,140.625 28.1176471,143.772998 28.1176471,147.65625 C28.1176471,151.539502 31.2648237,154.6875 35.1470588,154.6875 Z M35.1470588,189.84375 L119.57984,189.84375 C123.462075,189.84375 126.609252,186.69575 126.609252,182.8125 C126.609252,178.92925 123.462075,175.78125 119.57984,175.78125 L35.1470588,175.78125 C31.2648237,175.78125 28.1176471,178.92925 28.1176471,182.8125 C28.1176471,186.69575 31.2648237,189.84375 35.1470588,189.84375 Z" id="Shape"></path>
        </g>
    </g>
</svg>