<?xml version="1.0" encoding="UTF-8"?>
<svg width="159px" height="174px" viewBox="0 0 159 174" version="1.1" xmlns="http://www.w3.org/2000/svg" xmlns:xlink="http://www.w3.org/1999/xlink">
    <!-- Generator: Sketch 51.1 (57501) - http://www.bohemiancoding.com/sketch -->
    <title>noun_Completed Courses_1838394</title>
    <desc>Created with Sketch.</desc>
    <defs></defs>
    <g id="Page-1" stroke="none" stroke-width="1" fill="none" fill-rule="evenodd">
        <g id="noun_Completed-Courses_1838394" fill="#575B67" fill-rule="nonzero">
            <g id="Group">
                <path d="M155.942308,51.8947368 L3.05769231,51.8947368 C1.36984615,51.8947368 0,50.5271579 0,48.8421053 L0,3.05263158 C0,1.36757895 1.36984615,0 3.05769231,0 L155.942308,0 C157.630154,0 159,1.36757895 159,3.05263158 L159,48.8421053 C159,50.5271579 157.630154,51.8947368 155.942308,51.8947368 Z M6.11538462,45.7894737 L152.884615,45.7894737 L152.884615,6.10526316 L6.11538462,6.10526316 L6.11538462,45.7894737 Z" id="Shape"></path>
                <path d="M58.0961538,51.8947368 L3.05769231,51.8947368 C1.36984615,51.8947368 0,50.5271579 0,48.8421053 L0,3.05263158 C0,1.36757895 1.36984615,0 3.05769231,0 L58.0961538,0 C59.784,0 61.1538462,1.36757895 61.1538462,3.05263158 L61.1538462,48.8421053 C61.1538462,50.5271579 59.784,51.8947368 58.0961538,51.8947368 Z M6.11538462,45.7894737 L55.0384615,45.7894737 L55.0384615,6.10526316 L6.11538462,6.10526316 L6.11538462,45.7894737 Z" id="Shape"></path>
                <path d="M24.4615385,39.6842105 C23.6787692,39.6842105 22.896,39.3850526 22.29975,38.7897895 L13.1266731,29.6318947 C11.9311154,28.4383158 11.9311154,26.5090526 13.1266731,25.3154737 C14.3191731,24.1218947 16.25775,24.1218947 17.45025,25.3154737 L26.6233269,34.4733684 C27.8188846,35.6669474 27.8188846,37.5962105 26.6233269,38.7897895 C26.0270769,39.3850526 25.2443077,39.6842105 24.4615385,39.6842105 Z" id="Shape"></path>
                <path d="M24.4615385,39.6842105 C23.6787692,39.6842105 22.896,39.3850526 22.29975,38.7897895 C21.1041923,37.5962105 21.1041923,35.6669474 22.29975,34.4733684 L43.7035962,13.1049474 C44.8960962,11.9113684 46.8346731,11.9113684 48.0271731,13.1049474 C49.2227308,14.2985263 49.2227308,16.2277895 48.0271731,17.4213684 L26.6233269,38.7897895 C26.0270769,39.3850526 25.2443077,39.6842105 24.4615385,39.6842105 Z" id="Shape"></path>
                <path d="M122.307692,21.3684211 L70.3269231,21.3684211 C68.6390769,21.3684211 67.2692308,20.0008421 67.2692308,18.3157895 C67.2692308,16.6307368 68.6390769,15.2631579 70.3269231,15.2631579 L122.307692,15.2631579 C123.995538,15.2631579 125.365385,16.6307368 125.365385,18.3157895 C125.365385,20.0008421 123.995538,21.3684211 122.307692,21.3684211 Z" id="Shape"></path>
                <path d="M143.711538,21.3684211 L134.538462,21.3684211 C132.850615,21.3684211 131.480769,20.0008421 131.480769,18.3157895 C131.480769,16.6307368 132.850615,15.2631579 134.538462,15.2631579 L143.711538,15.2631579 C145.399385,15.2631579 146.769231,16.6307368 146.769231,18.3157895 C146.769231,20.0008421 145.399385,21.3684211 143.711538,21.3684211 Z" id="Shape"></path>
                <path d="M143.711538,36.6315789 L91.7307692,36.6315789 C90.0429231,36.6315789 88.6730769,35.264 88.6730769,33.5789474 C88.6730769,31.8938947 90.0429231,30.5263158 91.7307692,30.5263158 L143.711538,30.5263158 C145.399385,30.5263158 146.769231,31.8938947 146.769231,33.5789474 C146.769231,35.264 145.399385,36.6315789 143.711538,36.6315789 Z" id="Shape"></path>
                <path d="M79.5,36.6315789 L70.3269231,36.6315789 C68.6390769,36.6315789 67.2692308,35.264 67.2692308,33.5789474 C67.2692308,31.8938947 68.6390769,30.5263158 70.3269231,30.5263158 L79.5,30.5263158 C81.1878462,30.5263158 82.5576923,31.8938947 82.5576923,33.5789474 C82.5576923,35.264 81.1878462,36.6315789 79.5,36.6315789 Z" id="Shape"></path>
                <path d="M155.942308,112.947368 L3.05769231,112.947368 C1.36984615,112.947368 0,111.579789 0,109.894737 L0,64.1052632 C0,62.4202105 1.36984615,61.0526316 3.05769231,61.0526316 L155.942308,61.0526316 C157.630154,61.0526316 159,62.4202105 159,64.1052632 L159,109.894737 C159,111.579789 157.630154,112.947368 155.942308,112.947368 Z M6.11538462,106.842105 L152.884615,106.842105 L152.884615,67.1578947 L6.11538462,67.1578947 L6.11538462,106.842105 Z" id="Shape"></path>
                <path d="M58.0961538,112.947368 L3.05769231,112.947368 C1.36984615,112.947368 0,111.579789 0,109.894737 L0,64.1052632 C0,62.4202105 1.36984615,61.0526316 3.05769231,61.0526316 L58.0961538,61.0526316 C59.784,61.0526316 61.1538462,62.4202105 61.1538462,64.1052632 L61.1538462,109.894737 C61.1538462,111.579789 59.784,112.947368 58.0961538,112.947368 Z M6.11538462,106.842105 L55.0384615,106.842105 L55.0384615,67.1578947 L6.11538462,67.1578947 L6.11538462,106.842105 Z" id="Shape"></path>
                <path d="M24.4615385,100.736842 C23.6787692,100.736842 22.896,100.437684 22.29975,99.8424211 L13.1266731,90.6845263 C11.9311154,89.4909474 11.9311154,87.5616842 13.1266731,86.3681053 C14.3191731,85.1745263 16.25775,85.1745263 17.45025,86.3681053 L26.6233269,95.526 C27.8188846,96.7195789 27.8188846,98.6488421 26.6233269,99.8424211 C26.0270769,100.437684 25.2443077,100.736842 24.4615385,100.736842 Z" id="Shape"></path>
                <path d="M24.4615385,100.736842 C23.6787692,100.736842 22.896,100.437684 22.29975,99.8424211 C21.1041923,98.6488421 21.1041923,96.7195789 22.29975,95.526 L43.7035962,74.1575789 C44.8960962,72.964 46.8346731,72.964 48.0271731,74.1575789 C49.2227308,75.3511579 49.2227308,77.2804211 48.0271731,78.474 L26.6233269,99.8424211 C26.0270769,100.437684 25.2443077,100.736842 24.4615385,100.736842 Z" id="Shape"></path>
                <path d="M122.307692,82.4210526 L70.3269231,82.4210526 C68.6390769,82.4210526 67.2692308,81.0534737 67.2692308,79.3684211 C67.2692308,77.6833684 68.6390769,76.3157895 70.3269231,76.3157895 L122.307692,76.3157895 C123.995538,76.3157895 125.365385,77.6833684 125.365385,79.3684211 C125.365385,81.0534737 123.995538,82.4210526 122.307692,82.4210526 Z" id="Shape"></path>
                <path d="M143.711538,82.4210526 L134.538462,82.4210526 C132.850615,82.4210526 131.480769,81.0534737 131.480769,79.3684211 C131.480769,77.6833684 132.850615,76.3157895 134.538462,76.3157895 L143.711538,76.3157895 C145.399385,76.3157895 146.769231,77.6833684 146.769231,79.3684211 C146.769231,81.0534737 145.399385,82.4210526 143.711538,82.4210526 Z" id="Shape"></path>
                <path d="M143.711538,97.6842105 L91.7307692,97.6842105 C90.0429231,97.6842105 88.6730769,96.3166316 88.6730769,94.6315789 C88.6730769,92.9465263 90.0429231,91.5789474 91.7307692,91.5789474 L143.711538,91.5789474 C145.399385,91.5789474 146.769231,92.9465263 146.769231,94.6315789 C146.769231,96.3166316 145.399385,97.6842105 143.711538,97.6842105 Z" id="Shape"></path>
                <path d="M79.5,97.6842105 L70.3269231,97.6842105 C68.6390769,97.6842105 67.2692308,96.3166316 67.2692308,94.6315789 C67.2692308,92.9465263 68.6390769,91.5789474 70.3269231,91.5789474 L79.5,91.5789474 C81.1878462,91.5789474 82.5576923,92.9465263 82.5576923,94.6315789 C82.5576923,96.3166316 81.1878462,97.6842105 79.5,97.6842105 Z" id="Shape"></path>
                <path d="M155.942308,174 L3.05769231,174 C1.36984615,174 0,172.632421 0,170.947368 L0,125.157895 C0,123.472842 1.36984615,122.105263 3.05769231,122.105263 L155.942308,122.105263 C157.630154,122.105263 159,123.472842 159,125.157895 L159,170.947368 C159,172.632421 157.630154,174 155.942308,174 Z M6.11538462,167.894737 L152.884615,167.894737 L152.884615,128.210526 L6.11538462,128.210526 L6.11538462,167.894737 Z" id="Shape"></path>
                <path d="M58.0961538,174 L3.05769231,174 C1.36984615,174 0,172.632421 0,170.947368 L0,125.157895 C0,123.472842 1.36984615,122.105263 3.05769231,122.105263 L58.0961538,122.105263 C59.784,122.105263 61.1538462,123.472842 61.1538462,125.157895 L61.1538462,170.947368 C61.1538462,172.632421 59.784,174 58.0961538,174 Z M6.11538462,167.894737 L55.0384615,167.894737 L55.0384615,128.210526 L6.11538462,128.210526 L6.11538462,167.894737 Z" id="Shape"></path>
                <path d="M24.4615385,161.789474 C23.6787692,161.789474 22.896,161.490316 22.29975,160.895053 L13.1266731,151.737158 C11.9311154,150.543579 11.9311154,148.614316 13.1266731,147.420737 C14.3191731,146.227158 16.25775,146.227158 17.45025,147.420737 L26.6233269,156.578632 C27.8188846,157.772211 27.8188846,159.701474 26.6233269,160.895053 C26.0270769,161.490316 25.2443077,161.789474 24.4615385,161.789474 Z" id="Shape"></path>
                <path d="M24.4615385,161.789474 C23.6787692,161.789474 22.896,161.490316 22.29975,160.895053 C21.1041923,159.701474 21.1041923,157.772211 22.29975,156.578632 L43.7035962,135.210211 C44.8960962,134.016632 46.8346731,134.016632 48.0271731,135.210211 C49.2227308,136.403789 49.2227308,138.333053 48.0271731,139.526632 L26.6233269,160.895053 C26.0270769,161.490316 25.2443077,161.789474 24.4615385,161.789474 Z" id="Shape"></path>
                <path d="M122.307692,143.473684 L70.3269231,143.473684 C68.6390769,143.473684 67.2692308,142.106105 67.2692308,140.421053 C67.2692308,138.736 68.6390769,137.368421 70.3269231,137.368421 L122.307692,137.368421 C123.995538,137.368421 125.365385,138.736 125.365385,140.421053 C125.365385,142.106105 123.995538,143.473684 122.307692,143.473684 Z" id="Shape"></path>
                <path d="M143.711538,143.473684 L134.538462,143.473684 C132.850615,143.473684 131.480769,142.106105 131.480769,140.421053 C131.480769,138.736 132.850615,137.368421 134.538462,137.368421 L143.711538,137.368421 C145.399385,137.368421 146.769231,138.736 146.769231,140.421053 C146.769231,142.106105 145.399385,143.473684 143.711538,143.473684 Z" id="Shape"></path>
                <path d="M143.711538,158.736842 L91.7307692,158.736842 C90.0429231,158.736842 88.6730769,157.369263 88.6730769,155.684211 C88.6730769,153.999158 90.0429231,152.631579 91.7307692,152.631579 L143.711538,152.631579 C145.399385,152.631579 146.769231,153.999158 146.769231,155.684211 C146.769231,157.369263 145.399385,158.736842 143.711538,158.736842 Z" id="Shape"></path>
                <path d="M79.5,158.736842 L70.3269231,158.736842 C68.6390769,158.736842 67.2692308,157.369263 67.2692308,155.684211 C67.2692308,153.999158 68.6390769,152.631579 70.3269231,152.631579 L79.5,152.631579 C81.1878462,152.631579 82.5576923,153.999158 82.5576923,155.684211 C82.5576923,157.369263 81.1878462,158.736842 79.5,158.736842 Z" id="Shape"></path>
            </g>
        </g>
    </g>
</svg>