<?xml version="1.0" encoding="UTF-8"?>
<svg width="200px" height="198px" viewBox="0 0 200 198" version="1.1" xmlns="http://www.w3.org/2000/svg" xmlns:xlink="http://www.w3.org/1999/xlink">
    <!-- Generator: Sketch 51.1 (57501) - http://www.bohemiancoding.com/sketch -->
    <title>communication</title>
    <desc>Created with Sketch.</desc>
    <defs></defs>
    <g id="Page-1" stroke="none" stroke-width="1" fill="none" fill-rule="evenodd">
        <g id="communication" transform="translate(0.000000, -1.000000)" fill="#575B67" fill-rule="nonzero">
            <g id="Group">
                <path d="M75.5666667,96.3444444 C71.2733333,96.3444444 66.8266667,95.8955556 62.3422222,95.0133333 L61.0822222,94.7644444 L36.4088889,110.064444 L43.9733333,88.4088889 L41.7533333,87.0288889 C28.2177778,78.6066667 20.4555556,65.9955556 20.4555556,52.4266667 C20.4555556,28.2088889 45.1777778,8.50888889 75.5688889,8.50888889 C97.1,8.50888889 115.773333,18.4044444 124.837778,32.78 C127.148889,32.4 129.513333,32.1466667 131.917778,32.02 C122.322222,14.3466667 100.682222,1.98222222 75.5666667,1.98222222 C41.5777778,1.98222222 13.9288889,24.6111111 13.9288889,52.4266667 C13.9288889,67.5333333 21.9777778,81.5133333 36.1066667,91.1377778 L24.16,125.335556 L62.3511111,101.655556 C66.82,102.462222 71.26,102.871111 75.5644444,102.871111 C80.9044444,102.871111 86.0888889,102.311111 91.0333333,101.262222 C89.4933333,99.4044444 88.1155556,97.4488889 86.9266667,95.4022222 C83.26,96.0177778 79.46,96.3444444 75.5666667,96.3444444 Z" id="Shape"></path>
                <path d="M168.006667,101.275556 C175.266667,94.6511111 179.231111,86.18 179.231111,77.16 C179.231111,75.8688889 179.14,74.5955556 178.977778,73.34 C178.306667,68.1155556 176.24,63.2377778 173.144444,58.9155556 C165.511111,48.2622222 151.455556,41.08 135.362222,41.08 C119.271111,41.08 105.213333,48.2666667 97.58,58.92 C94.4844444,63.24 92.42,68.1155556 91.7488889,73.34 C91.5866667,74.5955556 91.4955556,75.8688889 91.4955556,77.16 C91.4955556,97.0555556 111.173333,113.24 135.36,113.24 C139.893333,113.24 144.417778,112.644444 148.826667,111.473333 L181.264444,125.691111 L168.006667,101.275556 Z M149.302222,104.555556 L148.166667,104.886667 C143.984444,106.1 139.675556,106.715556 135.362222,106.715556 C114.773333,106.715556 98.0222222,93.4577778 98.0222222,77.1622222 C98.0222222,60.8666667 114.773333,47.6066667 135.362222,47.6066667 C155.953333,47.6066667 172.704444,60.8644444 172.704444,77.1622222 C172.704444,84.9866667 168.846667,92.3733333 161.842222,97.9622222 L159.704444,99.6688889 L166.44,112.068889 L149.302222,104.555556 Z" id="Shape"></path>
                <circle id="Oval" cx="114.235556" cy="78.4266667" r="4.95333333"></circle>
                <circle id="Oval" cx="135.362222" cy="78.4266667" r="4.95333333"></circle>
                <circle id="Oval" cx="156.491111" cy="78.4266667" r="4.95333333"></circle>
                <path d="M183.828889,171.8 C189.655556,174.111111 193.793333,179.791111 193.793333,186.431111 L193.793333,198.017778 L200,198.017778 L200,186.431111 C200,178.028889 195.251111,170.724444 188.302222,167.035556 C187.075556,168.855556 185.555556,170.453333 183.828889,171.8 Z" id="Shape"></path>
                <path d="M145.715556,186.431111 C145.715556,179.791111 149.853333,174.111111 155.68,171.8 C153.953333,170.453333 152.433333,168.855556 151.206667,167.035556 C144.257778,170.724444 139.508889,178.028889 139.508889,186.431111 L139.508889,198.017778 L145.715556,198.017778 L145.715556,186.431111 Z" id="Shape"></path>
                <path d="M168.831111,168.446667 L170.677778,168.446667 C178.595556,168.446667 185.013333,162.028889 185.013333,154.111111 L185.013333,148.155556 C185.013333,140.237778 178.595556,133.82 170.677778,133.82 L168.831111,133.82 C160.913333,133.82 154.495556,140.237778 154.495556,148.155556 L154.495556,154.111111 C154.495556,162.028889 160.915556,168.446667 168.831111,168.446667 Z M160.704444,148.155556 C160.704444,143.673333 164.351111,140.026667 168.833333,140.026667 L170.68,140.026667 C175.162222,140.026667 178.808889,143.673333 178.808889,148.155556 L178.808889,154.111111 C178.808889,158.593333 175.162222,162.24 170.68,162.24 L168.833333,162.24 C164.351111,162.24 160.704444,158.593333 160.704444,154.111111 L160.704444,148.155556 Z" id="Shape"></path>
                <rect id="Rectangle-path" x="151.502222" y="189.691111" width="5.99111111" height="8.32666667"></rect>
                <rect id="Rectangle-path" x="182.02" y="189.691111" width="5.99111111" height="8.32666667"></rect>
                <path d="M75.9622222,186.431111 C75.9622222,179.791111 80.1,174.111111 85.9266667,171.8 C84.2,170.453333 82.68,168.855556 81.4533333,167.035556 C74.5044444,170.724444 69.7555556,178.028889 69.7555556,186.431111 L69.7555556,198.017778 L75.9622222,198.017778 L75.9622222,186.431111 Z" id="Shape"></path>
                <path d="M114.073333,171.8 C119.9,174.111111 124.037778,179.791111 124.037778,186.431111 L124.037778,198.017778 L124.793333,198.017778 L130.244444,198.017778 L130.244444,186.431111 C130.244444,178.028889 125.495556,170.724444 118.546667,167.035556 C117.32,168.855556 115.8,170.453333 114.073333,171.8 Z" id="Shape"></path>
                <path d="M99.0777778,168.446667 L100.924444,168.446667 C108.842222,168.446667 115.26,162.028889 115.26,154.111111 L115.26,148.155556 C115.26,140.237778 108.842222,133.82 100.924444,133.82 L99.0777778,133.82 C91.16,133.82 84.7422222,140.237778 84.7422222,148.155556 L84.7422222,154.111111 C84.7422222,162.028889 91.16,168.446667 99.0777778,168.446667 Z M90.9488889,148.155556 C90.9488889,143.673333 94.5955556,140.026667 99.0777778,140.026667 L100.924444,140.026667 C105.406667,140.026667 109.053333,143.673333 109.053333,148.155556 L109.053333,154.111111 C109.053333,158.593333 105.406667,162.24 100.924444,162.24 L99.0777778,162.24 C94.5955556,162.24 90.9488889,158.593333 90.9488889,154.111111 L90.9488889,148.155556 Z" id="Shape"></path>
                <rect id="Rectangle-path" x="81.7466667" y="189.691111" width="5.99111111" height="8.32666667"></rect>
                <rect id="Rectangle-path" x="112.262222" y="189.691111" width="5.99111111" height="8.32666667"></rect>
                <path d="M44.32,171.8 C50.1466667,174.111111 54.2844444,179.791111 54.2844444,186.431111 L54.2844444,198.017778 L55.04,198.017778 L60.4911111,198.017778 L60.4911111,186.431111 C60.4911111,178.028889 55.7422222,170.724444 48.7933333,167.035556 C47.5644444,168.855556 46.0444444,170.453333 44.32,171.8 Z" id="Shape"></path>
                <path d="M6.20666667,186.431111 C6.20666667,179.791111 10.3444444,174.111111 16.1711111,171.8 C14.4444444,170.453333 12.9244444,168.855556 11.6977778,167.035556 C4.74888889,170.724444 0,178.028889 0,186.431111 L0,198.017778 L6.20666667,198.017778 L6.20666667,186.431111 Z" id="Shape"></path>
                <path d="M29.3222222,168.446667 L31.1688889,168.446667 C39.0866667,168.446667 45.5044444,162.028889 45.5044444,154.111111 L45.5044444,148.155556 C45.5044444,140.237778 39.0866667,133.82 31.1688889,133.82 L29.3222222,133.82 C21.4044444,133.82 14.9866667,140.237778 14.9866667,148.155556 L14.9866667,154.111111 C14.9866667,162.028889 21.4044444,168.446667 29.3222222,168.446667 Z M21.1933333,148.155556 C21.1933333,143.673333 24.84,140.026667 29.3222222,140.026667 L31.1688889,140.026667 C35.6511111,140.026667 39.2977778,143.673333 39.2977778,148.155556 L39.2977778,154.111111 C39.2977778,158.593333 35.6511111,162.24 31.1688889,162.24 L29.3222222,162.24 C24.84,162.24 21.1933333,158.593333 21.1933333,154.111111 L21.1933333,148.155556 Z" id="Shape"></path>
                <rect id="Rectangle-path" x="11.9911111" y="189.691111" width="5.99111111" height="8.32666667"></rect>
                <rect id="Rectangle-path" x="42.5088889" y="189.691111" width="5.99111111" height="8.32666667"></rect>
            </g>
        </g>
    </g>
</svg>