<?xml version="1.0" encoding="UTF-8"?>
<svg width="251px" height="251px" viewBox="0 0 251 251" version="1.1" xmlns="http://www.w3.org/2000/svg" xmlns:xlink="http://www.w3.org/1999/xlink">
    <!-- Generator: Sketch 51.1 (57501) - http://www.bohemiancoding.com/sketch -->
    <title>noun_Website input form_306143</title>
    <desc>Created with Sketch.</desc>
    <defs></defs>
    <g id="Page-1" stroke="none" stroke-width="1" fill="none" fill-rule="evenodd">
        <g id="noun_Website-input-form_306143" fill="#575B67" fill-rule="nonzero">
            <path d="M72.5111111,50.2 L30.6777778,50.2 L30.6777778,41.8333333 L72.5111111,41.8333333 L72.5111111,50.2 Z M83.6666667,55.7777778 L30.6777778,55.7777778 L30.6777778,58.5666667 L83.6666667,58.5666667 L83.6666667,55.7777778 Z M251,0 L251,251 L0,251 L0,0 L251,0 Z M245.422222,72.5111111 L5.57777778,72.5111111 L5.57777778,245.422222 L245.422222,245.422222 L245.422222,72.5111111 Z M30.6777778,101.794444 L30.6777778,104.583333 L128.288889,104.583333 L128.288889,101.794444 L30.6777778,101.794444 Z M86.4555556,96.2166667 L86.4555556,90.6388889 L30.6777778,90.6388889 L30.6777778,96.2166667 L86.4555556,96.2166667 Z M178.488889,143.627778 C180.162222,143.627778 181.277778,142.512222 181.277778,140.838889 L181.277778,132.472222 C181.277778,130.798889 180.162222,129.683333 178.488889,129.683333 L111.555556,129.683333 C109.882222,129.683333 108.766667,130.798889 108.766667,132.472222 L108.766667,140.838889 C108.766667,142.512222 109.882222,143.627778 111.555556,143.627778 L178.488889,143.627778 Z M136.655556,191.038889 L100.4,191.038889 C98.7266667,191.038889 97.6111111,192.154444 97.6111111,193.827778 L97.6111111,202.194444 C97.6111111,203.867778 98.7266667,204.983333 100.4,204.983333 L136.655556,204.983333 C138.328889,204.983333 139.444444,203.867778 139.444444,202.194444 L139.444444,193.827778 C139.444444,192.154444 138.328889,191.038889 136.655556,191.038889 Z M145.022222,121.316667 L108.766667,121.316667 L108.766667,124.105556 L145.022222,124.105556 L145.022222,121.316667 Z M30.6777778,121.316667 L30.6777778,124.105556 L72.5111111,124.105556 L72.5111111,121.316667 L30.6777778,121.316667 Z M30.6777778,132.472222 L30.6777778,140.838889 C30.6777778,142.512222 31.7933333,143.627778 33.4666667,143.627778 L100.4,143.627778 C102.073333,143.627778 103.188889,142.512222 103.188889,140.838889 L103.188889,132.472222 C103.188889,130.798889 102.073333,129.683333 100.4,129.683333 L33.4666667,129.683333 C31.7933333,129.683333 30.6777778,130.798889 30.6777778,132.472222 Z M30.6777778,151.994444 L30.6777778,154.783333 L58.5666667,154.783333 L58.5666667,151.994444 L30.6777778,151.994444 Z M30.6777778,163.15 L30.6777778,171.516667 C30.6777778,173.19 31.7933333,174.305556 33.4666667,174.305556 L117.133333,174.305556 C118.806667,174.305556 119.922222,173.19 119.922222,171.516667 L119.922222,163.15 C119.922222,161.476667 118.806667,160.361111 117.133333,160.361111 L33.4666667,160.361111 C31.7933333,160.361111 30.6777778,161.476667 30.6777778,163.15 Z M89.2444444,191.038889 L66.9333333,191.038889 C65.26,191.038889 64.1444444,192.154444 64.1444444,193.827778 L64.1444444,202.194444 C64.1444444,203.867778 65.26,204.983333 66.9333333,204.983333 L89.2444444,204.983333 C90.9177778,204.983333 92.0333333,203.867778 92.0333333,202.194444 L92.0333333,193.827778 C92.0333333,192.154444 90.9177778,191.038889 89.2444444,191.038889 Z M30.6777778,182.672222 L30.6777778,185.461111 L64.1444444,185.461111 L64.1444444,182.672222 L30.6777778,182.672222 Z M30.6777778,193.827778 L30.6777778,202.194444 C30.6777778,203.867778 31.7933333,204.983333 33.4666667,204.983333 L55.7777778,204.983333 C57.4511111,204.983333 58.5666667,203.867778 58.5666667,202.194444 L58.5666667,193.827778 C58.5666667,192.154444 57.4511111,191.038889 55.7777778,191.038889 L33.4666667,191.038889 C31.7933333,191.038889 30.6777778,192.154444 30.6777778,193.827778 Z M245.422222,27.8888889 L5.57777778,27.8888889 L5.57777778,69.7222222 L245.422222,69.7222222 L245.422222,27.8888889 Z M245.422222,5.57777778 L5.57777778,5.57777778 L5.57777778,25.1 L245.422222,25.1 L245.422222,5.57777778 Z M39.0444444,11.1555556 L11.1555556,11.1555556 L11.1555556,19.5222222 L39.0444444,19.5222222 L39.0444444,11.1555556 Z M184.066667,13.9444444 L161.755556,13.9444444 L161.755556,16.7333333 L184.066667,16.7333333 L184.066667,13.9444444 Z M239.844444,13.9444444 L217.533333,13.9444444 L217.533333,16.7333333 L239.844444,16.7333333 L239.844444,13.9444444 Z M156.177778,13.9444444 L133.866667,13.9444444 L133.866667,16.7333333 L156.177778,16.7333333 L156.177778,13.9444444 Z M211.955556,13.9444444 L189.644444,13.9444444 L189.644444,16.7333333 L211.955556,16.7333333 L211.955556,13.9444444 Z M220.322222,238.45 L220.322222,230.083333 C220.322222,228.41 219.206667,227.294444 217.533333,227.294444 L181.277778,227.294444 C179.604444,227.294444 178.488889,228.41 178.488889,230.083333 L178.488889,238.45 C178.488889,240.123333 179.604444,241.238889 181.277778,241.238889 L217.533333,241.238889 C219.206667,241.238889 220.322222,240.123333 220.322222,238.45 Z M167.333333,235.661111 L136.655556,235.661111 L136.655556,232.872222 L167.333333,232.872222 L167.333333,235.661111 Z" id="Shape"></path>
        </g>
    </g>
</svg>