<?xml version="1.0" encoding="UTF-8"?>
<svg width="174px" height="220px" viewBox="0 0 174 220" version="1.1" xmlns="http://www.w3.org/2000/svg" xmlns:xlink="http://www.w3.org/1999/xlink">
    <!-- Generator: Sketch 51.1 (57501) - http://www.bohemiancoding.com/sketch -->
    <title>noun_Robot_459508</title>
    <desc>Created with Sketch.</desc>
    <defs></defs>
    <g id="Page-1" stroke="none" stroke-width="1" fill="none" fill-rule="evenodd">
        <g id="noun_Robot_459508" fill="#575B67" fill-rule="nonzero">
            <g id="Group">
                <path d="M51.0235294,91.9302326 C51.8,91.9302326 52.5764706,91.672093 53.0941176,90.8976744 C56.9764706,85.7348837 64.2235294,84.1860465 64.2235294,83.927907 C65.5176471,83.6697674 66.5529412,82.3790698 66.2941176,80.8302326 C66.0352941,79.5395349 64.7411765,78.5069767 63.1882353,78.7651163 C62.9294118,78.7651163 54.1294118,80.8302326 48.9529412,87.5418605 C48.1764706,88.5744186 48.4352941,90.3813953 49.4705882,91.155814 C49.7294118,91.672093 50.5058824,91.9302326 51.0235294,91.9302326 Z" id="Shape"></path>
                <path d="M85.9647059,127.553488 C95.5411765,127.553488 103.305882,119.809302 103.305882,110.25814 C103.305882,100.706977 95.5411765,92.9627907 85.9647059,92.9627907 C76.3882353,92.9627907 68.6235294,100.706977 68.6235294,110.25814 C68.6235294,119.809302 76.3882353,127.553488 85.9647059,127.553488 Z M98.1294118,110.25814 C98.1294118,114.130233 96.3176471,117.486047 93.4705882,119.551163 L93.4705882,100.706977 C96.3176471,103.030233 98.1294118,106.386047 98.1294118,110.25814 Z M88.2941176,98.3837209 L88.2941176,121.1 C88.2941176,121.35814 88.2941176,121.874419 88.5529412,122.132558 C87.7764706,122.390698 86.7411765,122.390698 85.9647059,122.390698 C85.1882353,122.390698 84.4117647,122.390698 83.6352941,122.132558 C83.8941176,121.874419 83.8941176,121.35814 83.8941176,121.1 L83.8941176,98.3837209 C84.6705882,98.3837209 85.1882353,98.1255814 85.9647059,98.1255814 C86.7411765,98.1255814 87.5176471,98.1255814 88.2941176,98.3837209 Z M78.7176471,100.706977 L78.7176471,119.809302 C75.8705882,117.486047 73.8,114.130233 73.8,110.25814 C73.8,106.386047 75.6117647,102.772093 78.7176471,100.706977 Z" id="Shape"></path>
                <path d="M115.470588,138.653488 L59.5647059,138.653488 C54.6470588,138.653488 50.5058824,142.783721 50.5058824,147.688372 L50.5058824,150.011628 C50.5058824,154.916279 54.6470588,159.046512 59.5647059,159.046512 L115.470588,159.046512 C120.388235,159.046512 124.529412,154.916279 124.529412,150.011628 L124.529412,147.688372 C124.529412,142.783721 120.388235,138.653488 115.470588,138.653488 Z M69.4,143.816279 L77.9411765,143.816279 L77.9411765,153.625581 L77.9411765,153.883721 L69.1411765,153.883721 L69.1411765,153.625581 L69.1411765,143.816279 L69.4,143.816279 Z M83.1176471,153.625581 L83.1176471,143.816279 L91.6588235,143.816279 L91.6588235,153.625581 L91.6588235,153.883721 L82.8588235,153.883721 C83.1176471,153.625581 83.1176471,153.625581 83.1176471,153.625581 Z M97.0941176,153.625581 L97.0941176,143.816279 L105.635294,143.816279 L105.635294,153.625581 L105.635294,153.883721 L96.8352941,153.883721 C96.8352941,153.625581 97.0941176,153.625581 97.0941176,153.625581 Z M55.6823529,150.011628 L55.6823529,147.688372 C55.6823529,145.623256 57.4941176,143.816279 59.5647059,143.816279 L64.2235294,143.816279 L64.2235294,153.625581 L64.2235294,153.883721 L59.3058824,153.883721 C57.2352941,153.883721 55.6823529,152.076744 55.6823529,150.011628 Z M119.352941,150.011628 C119.352941,152.076744 117.541176,153.883721 115.470588,153.883721 L110.552941,153.883721 L110.552941,153.625581 L110.552941,143.816279 L115.470588,143.816279 C117.541176,143.816279 119.352941,145.623256 119.352941,147.688372 L119.352941,150.011628 Z" id="Shape"></path>
                <path d="M155.329412,93.2209302 C158.952941,93.2209302 161.8,90.3813953 161.8,86.7674419 C161.8,83.1534884 158.952941,80.3139535 155.329412,80.3139535 C151.705882,80.3139535 148.858824,83.1534884 148.858824,86.7674419 C148.858824,90.3813953 151.705882,93.2209302 155.329412,93.2209302 Z M155.329412,85.4767442 C156.105882,85.4767442 156.623529,85.9930233 156.623529,86.7674419 C156.623529,87.5418605 156.105882,88.0581395 155.329412,88.0581395 C154.552941,88.0581395 154.035294,87.5418605 154.035294,86.7674419 C154.035294,85.9930233 154.552941,85.4767442 155.329412,85.4767442 Z" id="Shape"></path>
                <path d="M164.388235,156.206977 L164.388235,101.739535 C169.564706,98.6418605 173.188235,93.2209302 173.188235,86.7674419 C173.188235,77.2162791 165.423529,69.472093 155.847059,69.472093 L126.341176,69.472093 C133.329412,64.5674419 137.729412,56.5651163 137.729412,47.272093 C137.729412,32.3 125.564706,19.9093023 110.294118,19.9093023 L90.1058824,19.9093023 L90.1058824,12.9395349 C92.4352941,11.9069767 93.9882353,9.58372093 93.9882353,7.00232558 C93.9882353,3.38837209 91.1411765,0.548837209 87.5176471,0.548837209 C83.8941176,0.548837209 81.0470588,3.38837209 81.0470588,7.00232558 C81.0470588,9.58372093 82.6,11.9069767 84.9294118,12.9395349 L84.9294118,19.9093023 L64.7411765,19.9093023 C49.7294118,19.9093023 37.3058824,32.0418605 37.3058824,47.272093 C37.3058824,56.3069767 41.7058824,64.3093023 48.6941176,69.472093 L17.6352941,69.472093 C8.05882353,69.472093 0.294117647,77.2162791 0.294117647,86.7674419 C0.294117647,93.2209302 3.91764706,98.9 9.09411765,101.739535 L9.09411765,156.206977 C4.43529412,159.304651 1.07058824,164.467442 1.07058824,170.662791 C1.07058824,177.116279 4.69411765,183.053488 10.3882353,185.893023 C11.1647059,186.151163 11.9411765,186.151163 12.7176471,185.893023 C13.4941176,185.634884 14.0117647,184.860465 14.0117647,184.086047 L16.0823529,173.244186 L19.7058824,173.244186 L21.7764706,184.086047 C22.0352941,184.860465 22.5529412,185.634884 23.0705882,185.893023 C23.3294118,186.151163 23.8470588,186.151163 24.1058824,186.151163 C24.6235294,186.151163 24.8823529,186.151163 25.4,185.893023 C31.0941176,183.053488 34.7176471,177.116279 34.7176471,170.662791 C34.7176471,164.725581 31.6117647,159.304651 26.6941176,156.206977 L26.6941176,104.062791 L34.2,104.062791 L34.2,152.076744 C34.2,164.467442 41.7058824,175.051163 52.3176471,179.697674 C41.7058824,184.344186 34.2,194.927907 34.2,207.318605 C34.2,214.288372 39.8941176,219.967442 46.8823529,219.967442 L125.564706,219.967442 C132.552941,219.967442 138.247059,214.288372 138.247059,207.318605 C138.247059,194.927907 130.741176,184.344186 120.129412,179.697674 C130.741176,175.051163 138.247059,164.467442 138.247059,152.076744 L138.247059,104.062791 L145.752941,104.062791 L145.752941,156.206977 C141.094118,159.304651 137.729412,164.467442 137.729412,170.662791 C137.729412,177.116279 141.352941,183.053488 147.047059,185.893023 C147.823529,186.151163 148.6,186.151163 149.376471,185.893023 C150.152941,185.634884 150.670588,184.860465 150.670588,184.086047 L152.741176,173.244186 L156.364706,173.244186 L158.435294,184.086047 C158.694118,184.860465 159.211765,185.634884 159.729412,185.893023 C159.988235,186.151163 160.505882,186.151163 160.764706,186.151163 C161.282353,186.151163 161.541176,186.151163 162.058824,185.893023 C167.752941,183.053488 171.376471,177.116279 171.376471,170.662791 C172.411765,164.467442 169.305882,159.304651 164.388235,156.206977 Z M87.5176471,5.45348837 C88.2941176,5.45348837 88.8117647,5.96976744 88.8117647,6.74418605 C88.8117647,7.51860465 88.2941176,8.03488372 87.5176471,8.03488372 C86.7411765,8.03488372 86.2235294,7.51860465 86.2235294,6.74418605 C86.2235294,6.22790698 86.7411765,5.45348837 87.5176471,5.45348837 Z M168.011765,86.7674419 C168.011765,93.4790698 162.576471,98.9 155.847059,98.9 L138.764706,98.9 C138.505882,88.8325581 133.329412,79.7976744 125.305882,74.3767442 L155.847059,74.3767442 C162.576471,74.3767442 168.011765,80.055814 168.011765,86.7674419 Z M42.4823529,47.272093 C42.4823529,35.1395349 52.3176471,25.072093 64.7411765,25.072093 L110.294118,25.072093 C122.458824,25.072093 132.552941,34.8813953 132.552941,47.272093 C132.552941,59.6627907 122.717647,69.472093 110.294118,69.472093 L108.223529,69.472093 L103.823529,69.472093 L69.6588235,69.472093 L65.2588235,69.472093 L64.7411765,69.472093 C52.5764706,69.2139535 42.4823529,59.4046512 42.4823529,47.272093 Z M17.8941176,74.3767442 L48.1764706,74.3767442 C40.1529412,79.7976744 34.9764706,88.5744186 34.7176471,98.9 L17.6352941,98.9 C10.9058824,98.9 5.47058824,93.4790698 5.47058824,86.7674419 C5.47058824,80.055814 10.9058824,74.3767442 17.8941176,74.3767442 Z M26.4352941,179.181395 L24.6235294,170.146512 C24.3647059,168.855814 23.3294118,168.081395 22.0352941,168.081395 L14.0117647,168.081395 C12.7176471,168.081395 11.6823529,168.855814 11.4235294,170.146512 L9.61176471,179.181395 C7.28235294,176.85814 5.98823529,174.018605 5.98823529,170.662791 C5.98823529,164.209302 11.4235294,158.788372 17.8941176,158.788372 C24.3647059,158.788372 29.8,164.209302 29.8,170.662791 C30.0588235,174.018605 28.7647059,176.85814 26.4352941,179.181395 Z M22.0352941,154.14186 C20.7411765,153.883721 19.4470588,153.625581 18.1529412,153.625581 C16.8588235,153.625581 15.5647059,153.883721 14.2705882,154.14186 L14.2705882,129.360465 L15.5647059,129.360465 C17.1176471,129.360465 18.1529412,128.327907 18.1529412,126.77907 C18.1529412,125.230233 17.1176471,124.197674 15.5647059,124.197674 L14.2705882,124.197674 L14.2705882,103.804651 C15.3058824,104.062791 16.6,104.062791 17.8941176,104.062791 L22.2941176,104.062791 L22.2941176,154.14186 L22.0352941,154.14186 Z M132.552941,201.123256 L118.576471,205.511628 L103.305882,200.606977 C102.788235,200.348837 102.270588,200.348837 101.752941,200.606977 L86.4823529,205.511628 L71.2117647,200.606977 C70.6941176,200.348837 70.1764706,200.348837 69.6588235,200.606977 L54.3882353,205.511628 L40.6705882,201.123256 C41.1882353,199.05814 41.9647059,196.993023 43.2588235,194.927907 L53.6117647,198.283721 C54.1294118,198.54186 54.6470588,198.54186 55.1647059,198.283721 L70.4352941,193.37907 L85.7058824,198.283721 C86.2235294,198.54186 86.7411765,198.54186 87.2588235,198.283721 L102.529412,193.37907 L117.8,198.283721 C118.058824,198.283721 118.317647,198.283721 118.576471,198.283721 C118.835294,198.283721 119.094118,198.283721 119.352941,198.283721 L129.964706,194.927907 C131.258824,196.993023 132.035294,199.05814 132.552941,201.123256 Z M126.082353,215.062791 L47.4,215.062791 C43.2588235,215.062791 39.8941176,211.706977 39.8941176,207.576744 C39.8941176,207.060465 39.8941176,206.802326 39.8941176,206.286047 L53.6117647,210.674419 C54.1294118,210.932558 54.6470588,210.932558 55.1647059,210.674419 L70.4352941,205.769767 L85.7058824,210.674419 C86.2235294,210.932558 86.7411765,210.932558 87.2588235,210.674419 L102.529412,205.769767 L117.8,210.674419 C118.058824,210.674419 118.317647,210.674419 118.576471,210.674419 C118.835294,210.674419 119.094118,210.674419 119.352941,210.674419 L133.329412,206.286047 C133.329412,206.802326 133.329412,207.060465 133.329412,207.576744 C133.588235,211.706977 130.223529,215.062791 126.082353,215.062791 Z M126.858824,190.797674 L118.576471,193.37907 L103.305882,188.474419 C102.788235,188.216279 102.270588,188.216279 101.752941,188.474419 L86.4823529,193.37907 L71.2117647,188.474419 C70.6941176,188.216279 70.1764706,188.216279 69.6588235,188.474419 L54.3882353,193.37907 L46.3647059,190.797674 C51.0235294,185.634884 57.4941176,182.537209 65,182.537209 L108.223529,182.537209 C115.729412,182.537209 122.2,185.634884 126.858824,190.797674 Z M133.329412,152.334884 C133.329412,166.274419 122.2,177.374419 108.482353,177.374419 L65.2588235,177.374419 C51.2823529,177.374419 40.1529412,166.016279 40.1529412,152.334884 L40.1529412,99.6744186 C40.1529412,85.7348837 51.5411765,74.6348837 65.2588235,74.6348837 L69.6588235,74.6348837 L103.823529,74.6348837 L108.223529,74.6348837 C122.2,74.6348837 133.329412,85.9930233 133.329412,99.6744186 L133.329412,152.334884 Z M151.447059,104.062791 L155.847059,104.062791 C157.141176,104.062791 158.176471,103.804651 159.470588,103.804651 L159.470588,124.197674 L158.176471,124.197674 C156.623529,124.197674 155.588235,125.230233 155.588235,126.77907 C155.588235,128.327907 156.623529,129.360465 158.176471,129.360465 L159.470588,129.360465 L159.470588,154.14186 C158.176471,153.883721 156.882353,153.625581 155.588235,153.625581 C154.294118,153.625581 153,153.883721 151.705882,154.14186 L151.447059,104.062791 Z M163.611765,179.181395 L161.8,170.146512 C161.541176,168.855814 160.505882,168.081395 159.211765,168.081395 L151.188235,168.081395 C149.894118,168.081395 148.858824,168.855814 148.6,170.146512 L146.788235,179.181395 C144.458824,176.85814 143.164706,174.018605 143.164706,170.662791 C143.164706,164.209302 148.6,158.788372 155.070588,158.788372 C161.541176,158.788372 166.976471,164.209302 166.976471,170.662791 C167.235294,174.018605 165.941176,176.85814 163.611765,179.181395 Z" id="Shape"></path>
                <path d="M80.2705882,47.272093 C80.2705882,40.5604651 74.5764706,34.8813953 67.8470588,34.8813953 C61.1176471,34.8813953 55.4235294,40.5604651 55.4235294,47.272093 C55.4235294,53.9837209 61.1176471,59.6627907 67.8470588,59.6627907 C74.5764706,59.6627907 80.2705882,53.9837209 80.2705882,47.272093 Z M60.6,47.272093 C60.6,43.4 63.9647059,40.044186 67.8470588,40.044186 C71.7294118,40.044186 75.0941176,43.4 75.0941176,47.272093 C75.0941176,51.144186 71.7294118,54.5 67.8470588,54.5 C63.9647059,54.5 60.6,51.144186 60.6,47.272093 Z" id="Shape"></path>
                <path d="M105.635294,59.6627907 C112.364706,59.6627907 118.058824,53.9837209 118.058824,47.272093 C118.058824,40.5604651 112.364706,34.8813953 105.635294,34.8813953 C98.9058824,34.8813953 93.2117647,40.5604651 93.2117647,47.272093 C93.2117647,53.9837209 98.9058824,59.6627907 105.635294,59.6627907 Z M105.635294,40.044186 C109.517647,40.044186 112.882353,43.4 112.882353,47.272093 C112.882353,51.144186 109.517647,54.5 105.635294,54.5 C101.752941,54.5 98.3882353,51.144186 98.3882353,47.272093 C98.3882353,43.4 101.752941,40.044186 105.635294,40.044186 Z" id="Shape"></path>
                <path d="M60.8588235,33.3325581 C62.1529412,33.0744186 63.1882353,31.5255814 62.6705882,30.2348837 C62.4117647,28.944186 60.8588235,27.9116279 59.5647059,28.427907 C59.3058824,28.427907 55.6823529,29.4604651 52.5764706,32.3 C51.5411765,33.3325581 51.5411765,34.8813953 52.3176471,35.9139535 C52.8352941,36.4302326 53.6117647,36.6883721 54.1294118,36.6883721 C54.6470588,36.6883721 55.4235294,36.4302326 55.9411765,35.9139535 C58.2705882,34.1069767 60.8588235,33.3325581 60.8588235,33.3325581 Z" id="Shape"></path>
                <path d="M18.1529412,93.2209302 C21.7764706,93.2209302 24.6235294,90.3813953 24.6235294,86.7674419 C24.6235294,83.1534884 21.7764706,80.3139535 18.1529412,80.3139535 C14.5294118,80.3139535 11.6823529,83.1534884 11.6823529,86.7674419 C11.6823529,90.3813953 14.5294118,93.2209302 18.1529412,93.2209302 Z M18.1529412,85.4767442 C18.9294118,85.4767442 19.4470588,85.9930233 19.4470588,86.7674419 C19.4470588,87.5418605 18.9294118,88.0581395 18.1529412,88.0581395 C17.3764706,88.0581395 16.8588235,87.5418605 16.8588235,86.7674419 C16.8588235,85.9930233 17.3764706,85.4767442 18.1529412,85.4767442 Z" id="Shape"></path>
            </g>
        </g>
    </g>
</svg>