<?xml version="1.0" encoding="UTF-8"?>
<svg width="128px" height="160px" viewBox="0 0 128 160" version="1.1" xmlns="http://www.w3.org/2000/svg" xmlns:xlink="http://www.w3.org/1999/xlink">
    <!-- Generator: Sketch 51.1 (57501) - http://www.bohemiancoding.com/sketch -->
    <title>data</title>
    <desc>Created with Sketch.</desc>
    <defs></defs>
    <g id="Page-1" stroke="none" stroke-width="1" fill="none" fill-rule="evenodd">
        <g id="data" fill="#575B67" fill-rule="nonzero">
            <g id="Group">
                <path d="M123.27907,5.39534884 L123.27907,135.069767 L31.5581395,135.069767 L31.5581395,5.39534884 L123.27907,5.39534884 Z M26.7209302,0.558139535 L26.7209302,139.906977 L127.930233,139.906977 L127.930233,0.558139535 L26.7209302,0.558139535 Z" id="Shape"></path>
                <rect id="Rectangle-path" x="42.9069767" y="90.2325581" width="8" height="25.1162791"></rect>
                <rect id="Rectangle-path" x="61.3255814" y="79.8139535" width="8" height="35.3488372"></rect>
                <rect id="Rectangle-path" x="79.5581395" y="89.8604651" width="8" height="25.3023256"></rect>
                <rect id="Rectangle-path" x="97.7906977" y="82.2325581" width="8" height="32.9302326"></rect>
                <rect id="Rectangle-path" x="39.9302326" y="121.674419" width="34.4186047" height="6.3255814"></rect>
                <rect id="Rectangle-path" x="80.4883721" y="121.674419" width="34.4186047" height="6.3255814"></rect>
                <rect id="Rectangle-path" x="42.9069767" y="90.2325581" width="8" height="25.1162791"></rect>
                <rect id="Rectangle-path" x="61.3255814" y="79.8139535" width="8" height="35.3488372"></rect>
                <rect id="Rectangle-path" x="79.5581395" y="89.8604651" width="8" height="25.3023256"></rect>
                <rect id="Rectangle-path" x="97.7906977" y="82.2325581" width="8" height="32.9302326"></rect>
                <g transform="translate(65.116279, 19.604651)" id="Shape">
                    <path d="M35.8372093,29.1395349 C35.2790698,30.627907 34.5348837,32.1162791 33.4186047,33.2325581 L41.6046512,44.5813953 C45.6976744,41.0465116 48.6744186,36.2093023 49.7906977,30.627907 L35.8372093,29.1395349 Z"></path>
                    <path d="M27.4651163,14.627907 C32.1162791,15.5581395 35.8372093,19.6511628 36.2093023,24.4883721 L50.1627907,25.9767442 C50.1627907,25.7906977 50.1627907,25.6046512 50.1627907,25.4186047 C50.1627907,12.3953488 40.1162791,1.60465116 27.4651163,0.488372093 L27.4651163,14.627907 Z"></path>
                    <path d="M17.0465116,18.1627907 C18.5348837,16.4883721 20.5813953,15.1860465 23,14.627907 L23,0.674418605 C15.5581395,1.41860465 9.04651163,5.3255814 4.95348837,10.9069767 L17.0465116,18.1627907 Z"></path>
                    <path d="M29.6976744,35.8372093 C28.3953488,36.3953488 26.7209302,36.7674419 25.2325581,36.7674419 C19.0930233,36.7674419 14.0697674,31.744186 14.0697674,25.6046512 C14.0697674,24.3023256 14.255814,23.1860465 14.627907,22.0697674 L2.72093023,15 C1.23255814,18.1627907 0.302325581,21.8837209 0.302325581,25.6046512 C0.302325581,39.372093 11.4651163,50.5348837 25.2325581,50.5348837 C29.8837209,50.5348837 34.1627907,49.2325581 37.8837209,47 L29.6976744,35.8372093 Z"></path>
                </g>
                <rect id="Rectangle-path" x="42.3488372" y="21.3953488" width="8.55813953" height="45.9534884"></rect>
                <rect id="Rectangle-path" x="39.9302326" y="121.674419" width="34.4186047" height="6.3255814"></rect>
                <rect id="Rectangle-path" x="80.4883721" y="121.674419" width="34.4186047" height="6.3255814"></rect>
                <rect id="Rectangle-path" x="12.9534884" y="38.1395349" width="7.25581395" height="7.06976744"></rect>
                <rect id="Rectangle-path" x="12.9534884" y="54.8837209" width="7.25581395" height="7.06976744"></rect>
                <rect id="Rectangle-path" x="12.9534884" y="105.116279" width="7.25581395" height="7.06976744"></rect>
                <rect id="Rectangle-path" x="12.9534884" y="121.860465" width="7.25581395" height="7.06976744"></rect>
                <polygon id="Shape" points="96.6744186 144.55814 96.6744186 154.790698 4.95348837 154.604651 5.13953488 24.9302326 21.8837209 24.9302326 21.8837209 20.0930233 5.13953488 20.0930233 0.302325581 20.0930233 0.302325581 24.9302326 0.302325581 154.604651 0.302325581 159.44186 4.95348837 159.44186 96.6744186 159.44186 101.511628 159.44186 101.511628 154.790698 101.511628 144.55814"></polygon>
            </g>
        </g>
    </g>
</svg>