<?xml version="1.0" encoding="UTF-8"?>
<svg width="150px" height="150px" viewBox="0 0 150 150" version="1.1" xmlns="http://www.w3.org/2000/svg" xmlns:xlink="http://www.w3.org/1999/xlink">
    <!-- Generator: Sketch 51.1 (57501) - http://www.bohemiancoding.com/sketch -->
    <title>Management</title>
    <desc>Created with Sketch.</desc>
    <defs></defs>
    <g id="Page-1" stroke="none" stroke-width="1" fill="none" fill-rule="evenodd">
        <g id="Management" fill="#575B67" fill-rule="nonzero">
            <g id="Group">
                <path d="M135.475,112.15 L131.85,111.45 C130.15,111.125 128.825,110.025 128.2,108.425 C127.575,106.825 127.8,105.1 128.825,103.7 L131.1,100.6 C131.825,99.6 131.725,98.225 130.85,97.35 L125.95,92.45 C125.1,91.6 123.775,91.475 122.775,92.15 L119.725,94.2 C118.9,94.75 117.95,95.05 116.975,95.05 C114.875,95.05 112.5,93.6 112.075,90.875 L111.5,87.075 C111.3,85.85 110.25,84.95 109.025,84.95 L102.1,84.95 C100.9,84.95 99.875,85.8 99.65,86.975 L98.75,91.65 C98.25,94.275 95.925,95.65 93.9,95.65 C92.925,95.65 91.975,95.35 91.15,94.8 L87.225,92.15 C86.225,91.475 84.9,91.6 84.05,92.45 L79.15,97.35 C78.275,98.225 78.175,99.6 78.9,100.6 L81.175,103.7 C82.2,105.1 82.425,106.8 81.8,108.425 C81.175,110.025 79.825,111.125 78.15,111.45 L74.55,112.15 C73.375,112.375 72.525,113.4 72.525,114.6 L72.525,121.525 C72.525,122.75 73.425,123.8 74.65,124 L78.425,124.575 C80.125,124.85 81.5,125.9 82.2,127.475 C82.9,129.05 82.725,130.775 81.775,132.2 L79.725,135.25 C79.05,136.25 79.175,137.575 80.025,138.425 L84.925,143.325 C85.8,144.2 87.175,144.3 88.175,143.575 L91.275,141.3 C92.125,140.675 93.125,140.35 94.175,140.35 C96.2,140.35 98.525,141.725 99.025,144.35 L99.725,147.95 C99.95,149.125 100.975,149.975 102.175,149.975 L109.1,149.975 C110.325,149.975 111.375,149.075 111.575,147.85 L111.975,145.175 C112.4,142.425 114.75,141 116.875,141 C117.9,141 118.9,141.325 119.775,141.95 L121.95,143.55 C122.95,144.275 124.325,144.175 125.2,143.3 L130.1,138.4 C130.95,137.55 131.075,136.225 130.4,135.225 L128.35,132.175 C127.375,130.75 127.225,129.025 127.925,127.45 C128.625,125.875 130,124.825 131.7,124.55 L135.475,123.975 C136.7,123.775 137.6,122.725 137.6,121.5 L137.6,114.575 C137.5,113.4 136.65,112.375 135.475,112.15 Z M132.5,119.375 L130.825,119.625 C127.45,120.15 124.6,122.325 123.225,125.475 C121.85,128.625 122.175,132.175 124.1,135.025 L125,136.35 L123.075,138.275 L122.625,137.95 C120.9,136.7 118.875,136.025 116.775,136.025 C111.825,136.025 107.7,139.575 106.95,144.45 L106.9,145 L104.175,145 L103.875,143.425 C102.975,138.75 98.875,135.375 94.1,135.375 C92,135.375 89.975,136.05 88.25,137.3 L86.9,138.3 L84.975,136.375 L85.875,135.05 C87.8,132.225 88.125,128.65 86.75,125.5 C85.375,122.375 82.55,120.175 79.15,119.65 L77.5,119.375 L77.5,116.675 L79.075,116.375 C82.425,115.725 85.2,113.45 86.45,110.25 C87.7,107.075 87.25,103.525 85.225,100.75 L84.225,99.4 L86.15,97.475 L88.375,98.975 C90.025,100.1 91.95,100.7 93.925,100.7 C98.7,100.7 102.8,97.3 103.7,92.65 L104.2,90.025 L106.925,90.025 L107.175,91.7 C107.925,96.575 112.075,100.125 117,100.125 C118.975,100.125 120.9,99.525 122.55,98.4 L123.875,97.5 L125.8,99.425 L124.8,100.775 C122.775,103.525 122.325,107.075 123.575,110.275 C124.825,113.45 127.575,115.75 130.95,116.4 L132.5,116.675 L132.5,119.375 Z" id="Shape"></path>
                <path d="M105,105 C98.1,105 92.5,110.6 92.5,117.5 C92.5,124.4 98.1,130 105,130 C111.9,130 117.5,124.4 117.5,117.5 C117.5,110.6 111.9,105 105,105 Z M105,125 C100.875,125 97.5,121.625 97.5,117.5 C97.5,113.375 100.875,110 105,110 C109.125,110 112.5,113.375 112.5,117.5 C112.5,121.625 109.125,125 105,125 Z" id="Shape"></path>
                <path d="M72.5,65.05 C68.9,65.975 66.075,68.85 65.25,72.5 L47.5,72.5 C46.125,72.5 45,73.625 45,75 C45,76.375 46.125,77.5 47.5,77.5 L65.45,77.5 C66.675,81.65 70.475,84.7 75,84.7 C80.525,84.7 85,80.225 85,74.7 C85,70.05 81.8,66.175 77.5,65.05 L77.5,39.7 C77.5,38.325 76.375,37.2 75,37.2 C73.625,37.2 72.5,38.325 72.5,39.7 L72.5,65.05 Z M80,74.7 C80,77.45 77.75,79.7 75,79.7 C72.25,79.7 70,77.45 70,74.7 C70,71.95 72.25,69.7 75,69.7 C77.75,69.7 80,71.95 80,74.7 Z" id="Shape"></path>
                <path d="M75,24.7 C76.375,24.7 77.5,23.575 77.5,22.2 L77.5,19.7 C77.5,18.325 76.375,17.2 75,17.2 C73.625,17.2 72.5,18.325 72.5,19.7 L72.5,22.2 C72.5,23.575 73.625,24.7 75,24.7 Z" id="Shape"></path>
                <path d="M130,77.2 C131.375,77.2 132.5,76.075 132.5,74.7 C132.5,73.325 131.375,72.2 130,72.2 L127.5,72.2 C126.125,72.2 125,73.325 125,74.7 C125,76.075 126.125,77.2 127.5,77.2 L130,77.2 Z" id="Shape"></path>
                <path d="M20,72.2 C18.625,72.2 17.5,73.325 17.5,74.7 C17.5,76.075 18.625,77.2 20,77.2 L22.5,77.2 C23.875,77.2 25,76.075 25,74.7 C25,73.325 23.875,72.2 22.5,72.2 L20,72.2 Z" id="Shape"></path>
                <path d="M113.9,39.35 L115.675,37.575 C116.65,36.6 116.65,35.025 115.675,34.05 C114.7,33.075 113.125,33.075 112.15,34.05 L110.375,35.825 C109.4,36.8 109.4,38.375 110.375,39.35 C110.875,39.85 111.5,40.075 112.15,40.075 C112.8,40.075 113.4,39.825 113.9,39.35 Z" id="Shape"></path>
                <path d="M36.1,110.05 L34.325,111.825 C33.35,112.8 33.35,114.375 34.325,115.35 C34.825,115.85 35.45,116.075 36.1,116.075 C36.75,116.075 37.375,115.825 37.875,115.35 L39.65,113.575 C40.625,112.6 40.625,111.025 39.65,110.05 C38.675,109.075 37.075,109.075 36.1,110.05 Z" id="Shape"></path>
                <path d="M39.65,35.8 L37.875,34.025 C36.9,33.05 35.325,33.05 34.35,34.025 C33.375,35 33.375,36.575 34.35,37.55 L36.125,39.325 C36.625,39.825 37.25,40.05 37.9,40.05 C38.55,40.05 39.175,39.8 39.675,39.325 C40.625,38.375 40.625,36.775 39.65,35.8 Z" id="Shape"></path>
                <path d="M75,0 C33.65,0 0,33.65 0,75 C0,109.575 23.4,139.5 56.9,147.8 C57.1,147.85 57.3,147.875 57.5,147.875 C58.625,147.875 59.65,147.125 59.925,145.975 C60.25,144.625 59.45,143.275 58.1,142.95 C26.85,135.2 5,107.25 5,75 C5,36.4 36.4,5 75,5 C113.6,5 145,36.4 145,75 C145,83.675 143.425,92.15 140.3,100.225 C139.8,101.5 140.45,102.95 141.725,103.45 C143,103.95 144.45,103.3 144.95,102.025 C148.3,93.375 150,84.275 150,75 C150,33.65 116.35,0 75,0 Z" id="Shape"></path>
            </g>
        </g>
    </g>
</svg>