<?xml version="1.0" encoding="UTF-8"?>
<svg width="1906px" height="1241px" viewBox="0 0 1906 1241" version="1.1" xmlns="http://www.w3.org/2000/svg" xmlns:xlink="http://www.w3.org/1999/xlink">
    <!-- Generator: Sketch 51.2 (57519) - http://www.bohemiancoding.com/sketch -->
    <title>US map</title>
    <desc>Created with Sketch.</desc>
    <defs>
        <filter x="-1.1%" y="-1.6%" width="102.4%" height="103.8%" filterUnits="objectBoundingBox" id="filter-1">
            <feOffset dx="2" dy="4" in="SourceAlpha" result="shadowOffsetOuter1"></feOffset>
            <feGaussianBlur stdDeviation="7" in="shadowOffsetOuter1" result="shadowBlurOuter1"></feGaussianBlur>
            <feColorMatrix values="0 0 0 0 0   0 0 0 0 0   0 0 0 0 0  0 0 0 0.5 0" type="matrix" in="shadowBlurOuter1" result="shadowMatrixOuter1"></feColorMatrix>
            <feMerge>
                <feMergeNode in="shadowMatrixOuter1"></feMergeNode>
                <feMergeNode in="SourceGraphic"></feMergeNode>
            </feMerge>
        </filter>
    </defs>
    <g id="Page-1" stroke="none" stroke-width="1" fill="none" fill-rule="evenodd">
        <g id="US-map" transform="translate(12.000000, 10.000000)" fill-rule="nonzero">
            <g id="noun_United-States_536081" filter="url(#filter-1)" fill="#FFFFFF">
                <path d="M1869.42301,174.05271 C1865.62887,169.214511 1862.14071,164.947912 1858.87693,160.967115 C1848.06568,147.799862 1840.90577,139.103351 1836.25489,124.466265 C1827.27951,96.3352968 1803.65794,79.0035174 1785.36041,87.2304987 C1771.18338,93.6406032 1741.64622,106.971171 1742.80894,133.550649 L1742.97213,136.653629 C1743.82887,154.822397 1745.60355,192.629765 1727.61199,204.000555 C1717.3311,210.492317 1692.50601,216.80035 1670.59792,222.373466 C1637.16463,230.886249 1616.15408,236.663508 1606.40355,245.441677 C1600.18198,251.014793 1596.28585,257.874013 1592.14494,265.161935 C1583.29195,280.656423 1573.27624,298.233175 1536.1712,313.80932 C1516.64975,321.995473 1511.87648,337.428718 1508.02114,349.799812 C1505.6753,357.393948 1503.63545,363.946953 1498.65819,368.172723 C1471.38527,391.363419 1435.74893,417.983726 1417.51259,423.107726 C1414.77918,423.883472 1413.0249,424.026372 1410.80145,424.108029 C1410.0671,422.964826 1408.88398,415.064474 1416.83943,397.09985 C1430.46569,366.294603 1415.79911,332.713004 1404.11071,323.322405 C1397.15479,317.749289 1387.11869,320.933927 1381.83545,324.057322 C1381.75386,323.791935 1381.65186,323.506134 1381.54987,323.179505 L1379.18363,315.136253 C1372.22771,291.169811 1362.70157,258.323129 1337.73369,258.323129 C1335.71423,258.323129 1333.67437,258.547687 1331.63451,259.017217 C1316.72314,262.405998 1312.929,272.898972 1310.44038,279.860264 C1308.21693,286.04581 1307.38059,288.352631 1300.73065,289.863293 C1274.27367,295.824282 1263.62561,322.179202 1269.03123,368.213551 C1277.43545,439.99039 1263.44202,446.584224 1263.29923,446.625053 C1255.18059,449.238089 1249.14261,440.235362 1245.83803,423.720157 C1240.75878,398.304297 1238.86172,349.289453 1250.91728,324.751409 C1260.30064,305.684411 1256.22092,294.987294 1251.65163,286.474512 C1249.73417,282.922415 1249.73417,282.922415 1250.52971,281.330096 C1254.71142,272.694828 1295.18223,258.996802 1308.50251,258.996802 C1318.55902,258.996802 1324.71939,254.607718 1328.12596,250.912722 C1333.47039,245.094633 1335.99981,236.806409 1335.24507,227.517881 C1333.93956,211.696764 1314.74448,211.574278 1292.55081,211.431377 C1282.80028,211.370134 1271.78504,211.308891 1261.62654,210.145273 C1235.49595,207.164779 1223.97074,197.753766 1215.42373,188.016123 C1211.93557,184.05574 1207.08071,181.891819 1201.71588,181.891819 C1189.53792,181.891819 1176.91119,192.46645 1161.65304,206.266548 L1150.94378,215.86129 C1146.12971,220.270789 1140.13253,225.741833 1136.97075,225.741833 C1135.56324,225.741833 1133.64578,224.006614 1132.62585,222.945068 C1127.77098,217.923139 1122.48775,215.310103 1117.83687,213.799441 C1123.48728,208.083424 1131.68751,202.326579 1139.60216,196.733048 C1154.9827,185.913445 1168.24179,176.584089 1169.03733,163.927195 C1169.30252,159.681011 1167.87461,155.679799 1165.05961,152.638062 C1159.24601,146.452515 1149.2711,145.921742 1138.68423,145.921742 L1126.0575,146.023814 C1121.59021,146.023814 1109.71823,146.023814 1104.72057,143.267877 C1096.60193,138.797136 1084.79115,137.960147 1071.14449,137.000673 C1050.52151,135.551255 1027.18552,133.897693 1015.8847,120.199667 C1008.76559,111.584813 1003.01319,105.480924 993.691033,105.480924 C989.856098,105.480924 986.34754,106.522055 981.900647,107.848988 C970.293848,111.258183 948.385759,117.647874 893.085175,113.973291 C839.82445,110.482438 817.3656,110.339538 800.965132,110.237466 C783.259154,110.135394 771.57076,110.074151 733.731371,105.930039 C658.358572,97.6826436 454.862214,65.3667345 365.047211,44.0541578 C352.46128,41.0736633 241.248154,14.6166714 215.484731,6.02223195 C203.225177,1.93936283 196.452845,0 191.067616,0 C181.1539,0 176.910993,6.65507666 174.646749,10.2275871 C173.749211,11.6565913 172.953666,13.0651812 172.219317,14.4329423 C171.546163,15.6782174 170.628227,17.3521937 168.445577,17.8625524 C167.690829,17.8625524 166.874886,17.8013093 165.956949,17.6992376 C162.89716,17.3317794 161.142881,16.0252613 157.777113,13.3713964 C153.207829,9.75805719 146.986258,4.81778556 136.154605,4.81778556 C135.930221,4.81778556 134.033152,4.87902859 133.829166,4.87902859 C126.38368,5.34855854 120.14171,8.83941164 116.286376,14.7187432 C109.330456,25.3342029 111.982273,40.6245477 114.368909,47.2183813 C115.592824,50.6479914 114.430104,55.588263 113.206189,60.8347498 C112.75742,62.7128696 112.329049,64.5705751 111.961875,66.3874518 C111.227525,70.2457631 111.329518,74.1040745 111.411113,77.860314 C111.553903,83.6784025 111.696693,89.6802201 108.800093,96.6006833 C105.597514,104.256063 104.618382,111.135697 103.659648,117.790774 C102.721312,124.343779 101.844173,130.54974 98.7027897,137.511032 L96.2753572,142.961662 C87.4223681,162.947306 60.4962261,223.822885 42.8718422,244.482203 C28.7968134,260.997408 27.4505063,267.632071 27.8788767,277.900486 C28.0216669,281.370925 28.1848556,284.984264 26.4305767,291.557684 C25.5534372,295.130194 22.7384314,302.601845 19.3318665,311.727057 C7.9902491,342.185261 -0.617956908,366.417089 0.0347980506,378.216581 C0.463168492,386.076104 2.84980381,393.608997 4.97125742,400.264074 C7.27629837,407.511166 9.43854917,414.370387 8.35742377,419.208586 C5.39962786,432.253353 2.38063618,457.015954 15.3337424,476.470826 C23.2891934,488.392804 33.7536714,545.695872 35.7323348,569.886871 C36.7522645,582.339622 44.2589465,596.588835 51.5004468,610.368518 C57.3752414,621.514751 64.0251826,634.171645 64.1883713,641.132937 C64.2495671,644.052189 63.9639868,646.665225 63.7396023,649.114946 C61.9853233,666.671284 63.6580079,679.24652 101.701383,705.866827 C144.78321,736.018816 156.736785,756.861862 164.569845,774.030327 C166.160935,777.500766 166.834088,780.664989 167.548039,784.012942 C171.709352,803.631128 180.684733,810.612834 222.705833,810.612834 C243.61439,810.612834 256.66949,810.980292 261.565152,811.67438 C262.115914,812.348054 262.809466,813.042141 263.62541,813.613743 C264.05378,814.103687 264.522948,814.818189 265.155304,815.675592 C271.213686,824.106717 285.431505,843.867803 335.775231,864.302563 C354.011573,871.712971 365.2104,878.449705 376.042053,884.982295 C398.990469,898.782393 418.817901,910.704371 490.559751,919.033424 C495.740993,919.564197 500.453068,916.277487 501.656585,911.255558 L503.920829,901.762887 C517.118718,902.62029 541.066665,904.151366 550.266431,904.539238 C552.87745,907.295175 557.773113,913.725694 561.812034,919.053838 C572.664085,933.282637 587.534659,952.798751 602.568422,963.883741 C610.095502,969.416029 612.665725,977.357209 615.909101,987.380653 C620.947553,1002.9568 627.23032,1022.3096 655.237587,1033.9866 C663.417423,1037.3958 670.577329,1039.04936 677.125277,1039.04936 C691.812264,1039.04936 700.114491,1030.78155 706.78483,1024.14689 C712.986003,1017.96134 717.473693,1013.51101 727.713786,1013.51101 L727.754584,1013.51101 C747.092449,1014.00096 749.764665,1018.65543 762.472988,1046.56184 C765.818357,1053.87018 769.673691,1062.36254 774.589752,1072.14102 C778.343093,1079.57184 782.178028,1087.96213 786.196551,1096.82196 C807.411087,1143.32584 836.438284,1207.0186 892.473218,1207.0186 C898.67439,1207.0186 903.610849,1204.95675 907.139805,1200.89429 C913.442971,1193.66761 914.360907,1181.64357 910.668762,1154.98243 C907.180603,1129.93403 918.114248,1111.29573 946.141914,1094.57638 C955.974036,1088.69705 966.601702,1079.18396 977.841327,1069.09928 C997.525969,1051.42045 1019.86243,1031.37357 1038.52714,1030.92445 L1041.13816,1030.88362 C1055.0704,1030.88362 1060.72081,1033.78246 1066.71799,1036.8242 C1072.69478,1039.86594 1079.48751,1043.31596 1091.50228,1043.31596 C1091.64507,1043.31596 1093.76653,1043.27513 1093.88892,1043.27513 C1099.31494,1043.07099 1103.47626,1042.68311 1106.98482,1042.35649 C1116.28657,1041.49908 1117.75527,1039.82511 1141.86641,1051.23673 C1158.28728,1058.99418 1178.2371,1063.60782 1195.20873,1063.60782 C1217.01482,1063.60782 1223.44038,1055.91161 1224.97027,1049.48109 C1228.09126,1036.37508 1219.58505,1009.55063 1214.34261,999.404702 C1213.71025,998.200256 1213.30228,996.281307 1214.22022,994.750231 C1216.09689,991.667665 1226.54097,988.8709 1242.88024,992.055538 C1281.69876,999.547603 1300.17988,994.688988 1318.68141,986.543664 C1322.45515,986.543664 1330.51259,993.137498 1336.38739,997.975698 C1346.56628,1006.30475 1358.09149,1015.75659 1371.92173,1016.04239 C1384.65046,1016.04239 1392.13674,1008.75447 1397.62396,1003.40591 C1400.92853,1000.18045 1403.07039,998.200256 1404.72267,998.200256 C1405.43662,998.200256 1407.10931,998.465642 1410.1283,1000.22128 C1431.8936,1012.7761 1454.90321,1038.43693 1453.10813,1053.99266 C1449.66077,1084.02216 1457.39184,1108.90725 1474.36347,1122.31948 C1481.38058,1127.85176 1483.84881,1132.09795 1487.58175,1138.48764 C1491.2943,1144.8365 1495.88398,1152.69602 1505.8181,1163.67894 C1514.01833,1172.78374 1519.70954,1176.98909 1523.44248,1179.76545 C1524.544,1180.58202 1525.42114,1181.13321 1525.72712,1181.29652 C1525.84951,1181.66398 1526.13509,1183.01133 1526.13509,1187.86994 C1526.13509,1210.55028 1539.29219,1213 1544.9426,1213 C1550.59301,1213 1557.12056,1210.73401 1566.03474,1205.67125 C1586.8413,1193.85134 1595.5515,1169.61952 1591.96135,1133.69027 C1589.8399,1112.58183 1581.59887,1098.76132 1572.01153,1082.75648 C1564.64764,1070.4058 1556.26381,1056.40156 1548.45115,1035.45644 C1546.06452,1029.06675 1543.57589,1022.61581 1541.08726,1016.18529 C1525.19676,975.050388 1508.75549,932.527306 1516.97613,894.454552 C1523.25889,865.486595 1542.24998,851.523183 1559.03802,839.213332 C1567.25866,833.1911 1575.01012,827.515912 1580.74213,820.534206 C1584.65865,815.818492 1589.49312,809.816675 1594.79676,803.141184 C1610.80965,783.155539 1632.71774,755.820731 1646.01762,743.755853 L1652.1372,738.366465 C1673.06615,720.136455 1708.13134,689.637422 1690.11938,649.911106 C1678.30859,623.821572 1689.62981,588.137296 1696.38175,566.804305 C1698.17682,561.149531 1699.68632,556.331746 1700.54306,552.677578 C1702.09335,546.022501 1702.31774,538.897895 1702.56252,531.344587 C1703.05209,516.523772 1703.50085,502.539945 1713.39417,493.088103 C1725.9801,481.043639 1723.02231,463.936418 1720.61527,450.177149 C1717.82067,434.151887 1717.3923,426.659823 1724.81738,422.107424 C1737.17893,414.533701 1756.72078,406.77625 1773.97799,399.937444 C1796.29405,391.077618 1810.30788,385.341187 1816.91703,379.237298 C1822.93461,373.684596 1825.9536,366.580404 1825.66802,358.720881 C1825.21926,346.574345 1816.71304,333.590821 1801.04692,321.199313 C1792.37752,314.340093 1792.6223,313.890978 1796.78362,306.317255 C1798.59909,303.010131 1800.49616,299.458035 1801.84247,295.415995 C1803.35196,290.863596 1804.06592,286.576583 1804.75947,282.412057 C1806.14657,273.797203 1806.90132,269.04066 1815.9175,262.671385 C1825.83121,255.64885 1830.46169,247.809741 1834.19464,241.522123 C1838.07037,234.928289 1840.02863,231.92738 1845.49546,229.885946 C1863.24223,223.210455 1873.8699,214.105656 1877.03168,202.796109 C1879.6019,193.507582 1877.05208,183.831182 1869.42301,174.05271 Z" id="Shape"></path>
            </g>
            <g id="clinic" transform="translate(535.000000, 800.000000)" fill="#5A96BA">
                <g id="Group">
                    <path d="M67.577973,26.5344927 L42.5073529,26.5344927 L42.5073529,1.67746793 C42.5073529,0.762485421 41.7430047,0 40.8257869,0 L1.84402999,0 C0.926812183,0 0.315333643,0.762485421 0.315333643,1.67746793 L0.315333643,74.5710742 C0.315333643,75.4860567 1.07968182,76.2485421 1.99689963,76.2485421 L67.577973,76.2485421 C68.4951908,76.2485421 69.259539,75.4860567 69.259539,74.5710742 L69.259539,28.2119606 C69.1066694,27.2969781 68.4951908,26.5344927 67.577973,26.5344927 Z M3.52559598,3.35493585 L39.2970906,3.35493585 L39.2970906,73.0461033 L33.1823052,73.0461033 L33.1823052,56.2714241 C33.1823052,55.3564416 32.417957,54.5939561 31.5007392,54.5939561 L11.3219474,54.5939561 C10.4047295,54.5939561 9.64038137,55.3564416 9.64038137,56.2714241 L9.64038137,72.8936063 L3.52559598,72.8936063 L3.52559598,3.35493585 Z M13.0035133,72.8936063 L13.0035133,57.948892 L29.8191732,57.948892 L29.8191732,72.8936063 L13.0035133,72.8936063 Z M65.896407,72.8936063 L42.5073529,72.8936063 L42.5073529,29.8894285 L65.7435374,29.8894285 L65.7435374,72.8936063 L65.896407,72.8936063 Z" id="Shape"></path>
                    <path d="M47.5520508,47.5790903 L60.8517091,47.5790903 C61.7689269,47.5790903 62.5332751,46.8166049 62.5332751,45.9016223 L62.5332751,35.8368148 C62.5332751,34.9218323 61.7689269,34.1593469 60.8517091,34.1593469 L47.5520508,34.1593469 C46.634833,34.1593469 45.8704849,34.9218323 45.8704849,35.8368148 L45.8704849,45.9016223 C45.8704849,46.8166049 46.634833,47.5790903 47.5520508,47.5790903 Z M49.2336168,37.5142827 L59.1701431,37.5142827 L59.1701431,44.2241544 L49.2336168,44.2241544 L49.2336168,37.5142827 Z" id="Shape"></path>
                    <path d="M47.5520508,68.6236879 L60.8517091,68.6236879 C61.7689269,68.6236879 62.5332751,67.8612025 62.5332751,66.94622 L62.5332751,56.8814124 C62.5332751,55.9664299 61.7689269,55.2039445 60.8517091,55.2039445 L47.5520508,55.2039445 C46.634833,55.2039445 45.8704849,55.9664299 45.8704849,56.8814124 L45.8704849,66.94622 C45.8704849,67.8612025 46.634833,68.6236879 47.5520508,68.6236879 Z M49.2336168,58.5588803 L59.1701431,58.5588803 L59.1701431,65.268752 L49.2336168,65.268752 L49.2336168,58.5588803 Z" id="Shape"></path>
                    <path d="M17.8953417,47.5790903 C18.8125595,47.5790903 19.5769076,46.8166049 19.5769076,45.9016223 L19.5769076,34.464341 C19.5769076,33.5493585 18.8125595,32.7868731 17.8953417,32.7868731 L8.57029393,32.7868731 C7.65307612,32.7868731 6.88872795,33.5493585 6.88872795,34.464341 L6.88872795,45.9016223 C6.88872795,46.8166049 7.65307612,47.5790903 8.57029393,47.5790903 L17.8953417,47.5790903 Z M10.2518599,36.141809 L16.3666453,36.141809 L16.3666453,44.2241544 L10.2518599,44.2241544 L10.2518599,36.141809 Z" id="Shape"></path>
                    <path d="M23.2457789,34.464341 L23.2457789,45.9016223 C23.2457789,46.8166049 24.0101271,47.5790903 24.9273449,47.5790903 L34.2523926,47.5790903 C35.1696104,47.5790903 35.9339586,46.8166049 35.9339586,45.9016223 L35.9339586,34.464341 C35.9339586,33.5493585 35.1696104,32.7868731 34.2523926,32.7868731 L24.9273449,32.7868731 C24.0101271,32.7868731 23.2457789,33.5493585 23.2457789,34.464341 Z M26.6089109,36.141809 L32.7236963,36.141809 L32.7236963,44.2241544 L26.6089109,44.2241544 L26.6089109,36.141809 Z" id="Shape"></path>
                    <path d="M13.3092526,21.807083 L17.1309935,21.807083 L17.1309935,25.6195101 C17.1309935,26.5344927 17.8953417,27.2969781 18.8125595,27.2969781 L24.3158663,27.2969781 C25.2330841,27.2969781 25.9974323,26.5344927 25.9974323,25.6195101 L25.9974323,21.807083 L29.8191732,21.807083 C30.736391,21.807083 31.5007392,21.0445976 31.5007392,20.1296151 L31.5007392,14.6397201 C31.5007392,13.7247376 30.736391,12.9622522 29.8191732,12.9622522 L25.9974323,12.9622522 L25.9974323,9.30232214 C25.9974323,8.38733963 25.2330841,7.62485421 24.3158663,7.62485421 L18.8125595,7.62485421 C17.8953417,7.62485421 17.1309935,8.38733963 17.1309935,9.30232214 L17.1309935,13.1147492 L13.3092526,13.1147492 C12.3920348,13.1147492 11.6276866,13.8772347 11.6276866,14.7922172 L11.6276866,20.2821122 C11.6276866,21.0445976 12.3920348,21.807083 13.3092526,21.807083 Z M14.837949,16.317188 L18.6596898,16.317188 C19.5769076,16.317188 20.3412558,15.5547026 20.3412558,14.6397201 L20.3412558,10.9797901 L22.4814307,10.9797901 L22.4814307,14.7922172 C22.4814307,15.7071997 23.2457789,16.4696851 24.1629967,16.4696851 L27.9847376,16.4696851 L27.9847376,18.6046443 L24.1629967,18.6046443 C23.2457789,18.6046443 22.4814307,19.3671297 22.4814307,20.2821122 L22.4814307,24.0945393 L20.3412558,24.0945393 L20.3412558,20.2821122 C20.3412558,19.3671297 19.5769076,18.6046443 18.6596898,18.6046443 L14.837949,18.6046443 L14.837949,16.317188 Z" id="Shape"></path>
                </g>
            </g>
            <g id="clinic-copy" transform="translate(1554.000000, 667.000000)" fill="#5A96BA">
                <g id="Group">
                    <path d="M67.577973,26.5344927 L42.5073529,26.5344927 L42.5073529,1.67746793 C42.5073529,0.762485421 41.7430047,0 40.8257869,0 L1.84402999,0 C0.926812183,0 0.315333643,0.762485421 0.315333643,1.67746793 L0.315333643,74.5710742 C0.315333643,75.4860567 1.07968182,76.2485421 1.99689963,76.2485421 L67.577973,76.2485421 C68.4951908,76.2485421 69.259539,75.4860567 69.259539,74.5710742 L69.259539,28.2119606 C69.1066694,27.2969781 68.4951908,26.5344927 67.577973,26.5344927 Z M3.52559598,3.35493585 L39.2970906,3.35493585 L39.2970906,73.0461033 L33.1823052,73.0461033 L33.1823052,56.2714241 C33.1823052,55.3564416 32.417957,54.5939561 31.5007392,54.5939561 L11.3219474,54.5939561 C10.4047295,54.5939561 9.64038137,55.3564416 9.64038137,56.2714241 L9.64038137,72.8936063 L3.52559598,72.8936063 L3.52559598,3.35493585 Z M13.0035133,72.8936063 L13.0035133,57.948892 L29.8191732,57.948892 L29.8191732,72.8936063 L13.0035133,72.8936063 Z M65.896407,72.8936063 L42.5073529,72.8936063 L42.5073529,29.8894285 L65.7435374,29.8894285 L65.7435374,72.8936063 L65.896407,72.8936063 Z" id="Shape"></path>
                    <path d="M47.5520508,47.5790903 L60.8517091,47.5790903 C61.7689269,47.5790903 62.5332751,46.8166049 62.5332751,45.9016223 L62.5332751,35.8368148 C62.5332751,34.9218323 61.7689269,34.1593469 60.8517091,34.1593469 L47.5520508,34.1593469 C46.634833,34.1593469 45.8704849,34.9218323 45.8704849,35.8368148 L45.8704849,45.9016223 C45.8704849,46.8166049 46.634833,47.5790903 47.5520508,47.5790903 Z M49.2336168,37.5142827 L59.1701431,37.5142827 L59.1701431,44.2241544 L49.2336168,44.2241544 L49.2336168,37.5142827 Z" id="Shape"></path>
                    <path d="M47.5520508,68.6236879 L60.8517091,68.6236879 C61.7689269,68.6236879 62.5332751,67.8612025 62.5332751,66.94622 L62.5332751,56.8814124 C62.5332751,55.9664299 61.7689269,55.2039445 60.8517091,55.2039445 L47.5520508,55.2039445 C46.634833,55.2039445 45.8704849,55.9664299 45.8704849,56.8814124 L45.8704849,66.94622 C45.8704849,67.8612025 46.634833,68.6236879 47.5520508,68.6236879 Z M49.2336168,58.5588803 L59.1701431,58.5588803 L59.1701431,65.268752 L49.2336168,65.268752 L49.2336168,58.5588803 Z" id="Shape"></path>
                    <path d="M17.8953417,47.5790903 C18.8125595,47.5790903 19.5769076,46.8166049 19.5769076,45.9016223 L19.5769076,34.464341 C19.5769076,33.5493585 18.8125595,32.7868731 17.8953417,32.7868731 L8.57029393,32.7868731 C7.65307612,32.7868731 6.88872795,33.5493585 6.88872795,34.464341 L6.88872795,45.9016223 C6.88872795,46.8166049 7.65307612,47.5790903 8.57029393,47.5790903 L17.8953417,47.5790903 Z M10.2518599,36.141809 L16.3666453,36.141809 L16.3666453,44.2241544 L10.2518599,44.2241544 L10.2518599,36.141809 Z" id="Shape"></path>
                    <path d="M23.2457789,34.464341 L23.2457789,45.9016223 C23.2457789,46.8166049 24.0101271,47.5790903 24.9273449,47.5790903 L34.2523926,47.5790903 C35.1696104,47.5790903 35.9339586,46.8166049 35.9339586,45.9016223 L35.9339586,34.464341 C35.9339586,33.5493585 35.1696104,32.7868731 34.2523926,32.7868731 L24.9273449,32.7868731 C24.0101271,32.7868731 23.2457789,33.5493585 23.2457789,34.464341 Z M26.6089109,36.141809 L32.7236963,36.141809 L32.7236963,44.2241544 L26.6089109,44.2241544 L26.6089109,36.141809 Z" id="Shape"></path>
                    <path d="M13.3092526,21.807083 L17.1309935,21.807083 L17.1309935,25.6195101 C17.1309935,26.5344927 17.8953417,27.2969781 18.8125595,27.2969781 L24.3158663,27.2969781 C25.2330841,27.2969781 25.9974323,26.5344927 25.9974323,25.6195101 L25.9974323,21.807083 L29.8191732,21.807083 C30.736391,21.807083 31.5007392,21.0445976 31.5007392,20.1296151 L31.5007392,14.6397201 C31.5007392,13.7247376 30.736391,12.9622522 29.8191732,12.9622522 L25.9974323,12.9622522 L25.9974323,9.30232214 C25.9974323,8.38733963 25.2330841,7.62485421 24.3158663,7.62485421 L18.8125595,7.62485421 C17.8953417,7.62485421 17.1309935,8.38733963 17.1309935,9.30232214 L17.1309935,13.1147492 L13.3092526,13.1147492 C12.3920348,13.1147492 11.6276866,13.8772347 11.6276866,14.7922172 L11.6276866,20.2821122 C11.6276866,21.0445976 12.3920348,21.807083 13.3092526,21.807083 Z M14.837949,16.317188 L18.6596898,16.317188 C19.5769076,16.317188 20.3412558,15.5547026 20.3412558,14.6397201 L20.3412558,10.9797901 L22.4814307,10.9797901 L22.4814307,14.7922172 C22.4814307,15.7071997 23.2457789,16.4696851 24.1629967,16.4696851 L27.9847376,16.4696851 L27.9847376,18.6046443 L24.1629967,18.6046443 C23.2457789,18.6046443 22.4814307,19.3671297 22.4814307,20.2821122 L22.4814307,24.0945393 L20.3412558,24.0945393 L20.3412558,20.2821122 C20.3412558,19.3671297 19.5769076,18.6046443 18.6596898,18.6046443 L14.837949,18.6046443 L14.837949,16.317188 Z" id="Shape"></path>
                </g>
            </g>
            <g id="clinic-copy-4" transform="translate(1595.000000, 488.000000)" fill="#5A96BA">
                <g id="Group">
                    <path d="M67.577973,26.5344927 L42.5073529,26.5344927 L42.5073529,1.67746793 C42.5073529,0.762485421 41.7430047,0 40.8257869,0 L1.84402999,0 C0.926812183,0 0.315333643,0.762485421 0.315333643,1.67746793 L0.315333643,74.5710742 C0.315333643,75.4860567 1.07968182,76.2485421 1.99689963,76.2485421 L67.577973,76.2485421 C68.4951908,76.2485421 69.259539,75.4860567 69.259539,74.5710742 L69.259539,28.2119606 C69.1066694,27.2969781 68.4951908,26.5344927 67.577973,26.5344927 Z M3.52559598,3.35493585 L39.2970906,3.35493585 L39.2970906,73.0461033 L33.1823052,73.0461033 L33.1823052,56.2714241 C33.1823052,55.3564416 32.417957,54.5939561 31.5007392,54.5939561 L11.3219474,54.5939561 C10.4047295,54.5939561 9.64038137,55.3564416 9.64038137,56.2714241 L9.64038137,72.8936063 L3.52559598,72.8936063 L3.52559598,3.35493585 Z M13.0035133,72.8936063 L13.0035133,57.948892 L29.8191732,57.948892 L29.8191732,72.8936063 L13.0035133,72.8936063 Z M65.896407,72.8936063 L42.5073529,72.8936063 L42.5073529,29.8894285 L65.7435374,29.8894285 L65.7435374,72.8936063 L65.896407,72.8936063 Z" id="Shape"></path>
                    <path d="M47.5520508,47.5790903 L60.8517091,47.5790903 C61.7689269,47.5790903 62.5332751,46.8166049 62.5332751,45.9016223 L62.5332751,35.8368148 C62.5332751,34.9218323 61.7689269,34.1593469 60.8517091,34.1593469 L47.5520508,34.1593469 C46.634833,34.1593469 45.8704849,34.9218323 45.8704849,35.8368148 L45.8704849,45.9016223 C45.8704849,46.8166049 46.634833,47.5790903 47.5520508,47.5790903 Z M49.2336168,37.5142827 L59.1701431,37.5142827 L59.1701431,44.2241544 L49.2336168,44.2241544 L49.2336168,37.5142827 Z" id="Shape"></path>
                    <path d="M47.5520508,68.6236879 L60.8517091,68.6236879 C61.7689269,68.6236879 62.5332751,67.8612025 62.5332751,66.94622 L62.5332751,56.8814124 C62.5332751,55.9664299 61.7689269,55.2039445 60.8517091,55.2039445 L47.5520508,55.2039445 C46.634833,55.2039445 45.8704849,55.9664299 45.8704849,56.8814124 L45.8704849,66.94622 C45.8704849,67.8612025 46.634833,68.6236879 47.5520508,68.6236879 Z M49.2336168,58.5588803 L59.1701431,58.5588803 L59.1701431,65.268752 L49.2336168,65.268752 L49.2336168,58.5588803 Z" id="Shape"></path>
                    <path d="M17.8953417,47.5790903 C18.8125595,47.5790903 19.5769076,46.8166049 19.5769076,45.9016223 L19.5769076,34.464341 C19.5769076,33.5493585 18.8125595,32.7868731 17.8953417,32.7868731 L8.57029393,32.7868731 C7.65307612,32.7868731 6.88872795,33.5493585 6.88872795,34.464341 L6.88872795,45.9016223 C6.88872795,46.8166049 7.65307612,47.5790903 8.57029393,47.5790903 L17.8953417,47.5790903 Z M10.2518599,36.141809 L16.3666453,36.141809 L16.3666453,44.2241544 L10.2518599,44.2241544 L10.2518599,36.141809 Z" id="Shape"></path>
                    <path d="M23.2457789,34.464341 L23.2457789,45.9016223 C23.2457789,46.8166049 24.0101271,47.5790903 24.9273449,47.5790903 L34.2523926,47.5790903 C35.1696104,47.5790903 35.9339586,46.8166049 35.9339586,45.9016223 L35.9339586,34.464341 C35.9339586,33.5493585 35.1696104,32.7868731 34.2523926,32.7868731 L24.9273449,32.7868731 C24.0101271,32.7868731 23.2457789,33.5493585 23.2457789,34.464341 Z M26.6089109,36.141809 L32.7236963,36.141809 L32.7236963,44.2241544 L26.6089109,44.2241544 L26.6089109,36.141809 Z" id="Shape"></path>
                    <path d="M13.3092526,21.807083 L17.1309935,21.807083 L17.1309935,25.6195101 C17.1309935,26.5344927 17.8953417,27.2969781 18.8125595,27.2969781 L24.3158663,27.2969781 C25.2330841,27.2969781 25.9974323,26.5344927 25.9974323,25.6195101 L25.9974323,21.807083 L29.8191732,21.807083 C30.736391,21.807083 31.5007392,21.0445976 31.5007392,20.1296151 L31.5007392,14.6397201 C31.5007392,13.7247376 30.736391,12.9622522 29.8191732,12.9622522 L25.9974323,12.9622522 L25.9974323,9.30232214 C25.9974323,8.38733963 25.2330841,7.62485421 24.3158663,7.62485421 L18.8125595,7.62485421 C17.8953417,7.62485421 17.1309935,8.38733963 17.1309935,9.30232214 L17.1309935,13.1147492 L13.3092526,13.1147492 C12.3920348,13.1147492 11.6276866,13.8772347 11.6276866,14.7922172 L11.6276866,20.2821122 C11.6276866,21.0445976 12.3920348,21.807083 13.3092526,21.807083 Z M14.837949,16.317188 L18.6596898,16.317188 C19.5769076,16.317188 20.3412558,15.5547026 20.3412558,14.6397201 L20.3412558,10.9797901 L22.4814307,10.9797901 L22.4814307,14.7922172 C22.4814307,15.7071997 23.2457789,16.4696851 24.1629967,16.4696851 L27.9847376,16.4696851 L27.9847376,18.6046443 L24.1629967,18.6046443 C23.2457789,18.6046443 22.4814307,19.3671297 22.4814307,20.2821122 L22.4814307,24.0945393 L20.3412558,24.0945393 L20.3412558,20.2821122 C20.3412558,19.3671297 19.5769076,18.6046443 18.6596898,18.6046443 L14.837949,18.6046443 L14.837949,16.317188 Z" id="Shape"></path>
                </g>
            </g>
            <g id="clinic-copy-3" transform="translate(1373.000000, 461.000000)" fill="#5A96BA">
                <g id="Group">
                    <path d="M67.577973,26.5344927 L42.5073529,26.5344927 L42.5073529,1.67746793 C42.5073529,0.762485421 41.7430047,0 40.8257869,0 L1.84402999,0 C0.926812183,0 0.315333643,0.762485421 0.315333643,1.67746793 L0.315333643,74.5710742 C0.315333643,75.4860567 1.07968182,76.2485421 1.99689963,76.2485421 L67.577973,76.2485421 C68.4951908,76.2485421 69.259539,75.4860567 69.259539,74.5710742 L69.259539,28.2119606 C69.1066694,27.2969781 68.4951908,26.5344927 67.577973,26.5344927 Z M3.52559598,3.35493585 L39.2970906,3.35493585 L39.2970906,73.0461033 L33.1823052,73.0461033 L33.1823052,56.2714241 C33.1823052,55.3564416 32.417957,54.5939561 31.5007392,54.5939561 L11.3219474,54.5939561 C10.4047295,54.5939561 9.64038137,55.3564416 9.64038137,56.2714241 L9.64038137,72.8936063 L3.52559598,72.8936063 L3.52559598,3.35493585 Z M13.0035133,72.8936063 L13.0035133,57.948892 L29.8191732,57.948892 L29.8191732,72.8936063 L13.0035133,72.8936063 Z M65.896407,72.8936063 L42.5073529,72.8936063 L42.5073529,29.8894285 L65.7435374,29.8894285 L65.7435374,72.8936063 L65.896407,72.8936063 Z" id="Shape"></path>
                    <path d="M47.5520508,47.5790903 L60.8517091,47.5790903 C61.7689269,47.5790903 62.5332751,46.8166049 62.5332751,45.9016223 L62.5332751,35.8368148 C62.5332751,34.9218323 61.7689269,34.1593469 60.8517091,34.1593469 L47.5520508,34.1593469 C46.634833,34.1593469 45.8704849,34.9218323 45.8704849,35.8368148 L45.8704849,45.9016223 C45.8704849,46.8166049 46.634833,47.5790903 47.5520508,47.5790903 Z M49.2336168,37.5142827 L59.1701431,37.5142827 L59.1701431,44.2241544 L49.2336168,44.2241544 L49.2336168,37.5142827 Z" id="Shape"></path>
                    <path d="M47.5520508,68.6236879 L60.8517091,68.6236879 C61.7689269,68.6236879 62.5332751,67.8612025 62.5332751,66.94622 L62.5332751,56.8814124 C62.5332751,55.9664299 61.7689269,55.2039445 60.8517091,55.2039445 L47.5520508,55.2039445 C46.634833,55.2039445 45.8704849,55.9664299 45.8704849,56.8814124 L45.8704849,66.94622 C45.8704849,67.8612025 46.634833,68.6236879 47.5520508,68.6236879 Z M49.2336168,58.5588803 L59.1701431,58.5588803 L59.1701431,65.268752 L49.2336168,65.268752 L49.2336168,58.5588803 Z" id="Shape"></path>
                    <path d="M17.8953417,47.5790903 C18.8125595,47.5790903 19.5769076,46.8166049 19.5769076,45.9016223 L19.5769076,34.464341 C19.5769076,33.5493585 18.8125595,32.7868731 17.8953417,32.7868731 L8.57029393,32.7868731 C7.65307612,32.7868731 6.88872795,33.5493585 6.88872795,34.464341 L6.88872795,45.9016223 C6.88872795,46.8166049 7.65307612,47.5790903 8.57029393,47.5790903 L17.8953417,47.5790903 Z M10.2518599,36.141809 L16.3666453,36.141809 L16.3666453,44.2241544 L10.2518599,44.2241544 L10.2518599,36.141809 Z" id="Shape"></path>
                    <path d="M23.2457789,34.464341 L23.2457789,45.9016223 C23.2457789,46.8166049 24.0101271,47.5790903 24.9273449,47.5790903 L34.2523926,47.5790903 C35.1696104,47.5790903 35.9339586,46.8166049 35.9339586,45.9016223 L35.9339586,34.464341 C35.9339586,33.5493585 35.1696104,32.7868731 34.2523926,32.7868731 L24.9273449,32.7868731 C24.0101271,32.7868731 23.2457789,33.5493585 23.2457789,34.464341 Z M26.6089109,36.141809 L32.7236963,36.141809 L32.7236963,44.2241544 L26.6089109,44.2241544 L26.6089109,36.141809 Z" id="Shape"></path>
                    <path d="M13.3092526,21.807083 L17.1309935,21.807083 L17.1309935,25.6195101 C17.1309935,26.5344927 17.8953417,27.2969781 18.8125595,27.2969781 L24.3158663,27.2969781 C25.2330841,27.2969781 25.9974323,26.5344927 25.9974323,25.6195101 L25.9974323,21.807083 L29.8191732,21.807083 C30.736391,21.807083 31.5007392,21.0445976 31.5007392,20.1296151 L31.5007392,14.6397201 C31.5007392,13.7247376 30.736391,12.9622522 29.8191732,12.9622522 L25.9974323,12.9622522 L25.9974323,9.30232214 C25.9974323,8.38733963 25.2330841,7.62485421 24.3158663,7.62485421 L18.8125595,7.62485421 C17.8953417,7.62485421 17.1309935,8.38733963 17.1309935,9.30232214 L17.1309935,13.1147492 L13.3092526,13.1147492 C12.3920348,13.1147492 11.6276866,13.8772347 11.6276866,14.7922172 L11.6276866,20.2821122 C11.6276866,21.0445976 12.3920348,21.807083 13.3092526,21.807083 Z M14.837949,16.317188 L18.6596898,16.317188 C19.5769076,16.317188 20.3412558,15.5547026 20.3412558,14.6397201 L20.3412558,10.9797901 L22.4814307,10.9797901 L22.4814307,14.7922172 C22.4814307,15.7071997 23.2457789,16.4696851 24.1629967,16.4696851 L27.9847376,16.4696851 L27.9847376,18.6046443 L24.1629967,18.6046443 C23.2457789,18.6046443 22.4814307,19.3671297 22.4814307,20.2821122 L22.4814307,24.0945393 L20.3412558,24.0945393 L20.3412558,20.2821122 C20.3412558,19.3671297 19.5769076,18.6046443 18.6596898,18.6046443 L14.837949,18.6046443 L14.837949,16.317188 Z" id="Shape"></path>
                </g>
            </g>
            <g id="Management-Copy" transform="translate(1177.000000, 429.000000)" fill="#5A96BA">
                <g id="Group">
                    <path d="M67.8036782,57.9002437 L65.9800292,57.5360305 C65.1248007,57.3669316 64.4582255,56.7945966 64.1438033,55.9621093 C63.829381,55.1296221 63.942573,54.2320968 64.4582255,53.5036704 L65.6027225,51.8907264 C65.9674523,51.3704219 65.9171447,50.6550031 65.4769536,50.1997367 L63.0118832,47.6502445 C62.5842689,47.2079856 61.9176938,47.1429476 61.4146182,47.4941531 L59.8802376,48.5607774 C59.4652002,48.8469449 58.9872784,49.0030363 58.4967797,49.0030363 C57.4403209,49.0030363 56.2455164,48.2485947 56.0317093,46.8307648 L55.7424408,44.8536076 C55.6418257,44.2162346 55.1135963,43.7479605 54.4973287,43.7479605 L51.0135302,43.7479605 C50.4098395,43.7479605 49.894187,44.1902194 49.780995,44.8015772 L49.328227,47.2340009 C49.0766892,48.5998002 47.9070384,49.315219 46.8883103,49.315219 C46.3978116,49.315219 45.9198898,49.1591276 45.5048524,48.8729601 L43.5302807,47.4941531 C43.0272051,47.1429476 42.36063,47.2079856 41.9330157,47.6502445 L39.4679453,50.1997367 C39.0277541,50.6550031 38.9774466,51.3704219 39.3421764,51.8907264 L40.4866734,53.5036704 C41.0023259,54.2320968 41.1155179,55.1166145 40.8010956,55.9621093 C40.4866734,56.7945966 39.8075213,57.3669316 38.9648697,57.5360305 L37.1537976,57.9002437 C36.5626837,58.0173122 36.1350695,58.5506244 36.1350695,59.1749898 L36.1350695,62.7780987 C36.1350695,63.4154717 36.5878375,63.9617915 37.2041051,64.0658524 L39.1032155,64.3650275 C39.958444,64.5081112 40.6501729,65.054431 41.0023259,65.8739106 C41.3544788,66.6933902 41.2664405,67.5909156 40.7885187,68.3323495 L39.7572138,69.9192783 C39.4176377,70.4395829 39.4805222,71.1289864 39.9081364,71.5712452 L42.3732069,74.1207374 C42.813398,74.5760039 43.5051269,74.6280343 44.0082025,74.2508135 L45.5677369,73.0671207 C45.9953511,72.7419304 46.4984267,72.5728314 47.0266561,72.5728314 C48.0453842,72.5728314 49.215035,73.2882502 49.4665728,74.6540495 L49.8187257,76.5271458 C49.9319177,77.1385037 50.4475702,77.5807625 51.0512609,77.5807625 L54.5350594,77.5807625 C55.151327,77.5807625 55.6795564,77.1124884 55.7801715,76.4751154 L55.9814017,75.0833008 C56.1952089,73.6524633 57.3774365,72.9110294 58.4464721,72.9110294 C58.9621246,72.9110294 59.4652002,73.0801283 59.9053914,73.4053187 L60.9995808,74.2378059 C61.5026564,74.6150267 62.1943853,74.5629962 62.6345765,74.1077298 L65.0996469,71.5582376 C65.5272612,71.1159787 65.5901456,70.4265752 65.2505696,69.9062707 L64.2192646,68.3193419 C63.7287659,67.5779079 63.6533046,66.6803826 64.0054575,65.860903 C64.3576104,65.0414234 65.0493393,64.4951036 65.9045678,64.3520199 L67.8036782,64.0528448 C68.4199458,63.9487839 68.8727139,63.4024641 68.8727139,62.765091 L68.8727139,59.1619822 C68.8224063,58.5506244 68.394792,58.0173122 67.8036782,57.9002437 Z M66.3070283,61.6594439 L65.4643767,61.7895201 C63.7664966,62.0626799 62.3327311,63.1943423 61.6410022,64.8333016 C60.9492732,66.4722608 61.1127728,68.3193419 62.0811933,69.8022098 L62.5339614,70.4916133 L61.5655408,71.4931995 L61.3391568,71.3241006 C60.4713514,70.6737199 59.4526233,70.3225143 58.3961646,70.3225143 C55.9059404,70.3225143 53.8307536,72.1695954 53.4534469,74.70608 L53.4282931,74.9922475 L52.0574121,74.9922475 L51.9064894,74.1727679 C51.4537214,71.7403442 49.3911114,69.9843164 46.9889254,69.9843164 C45.9324667,69.9843164 44.9137386,70.3355219 44.0459332,70.9859026 L43.3667812,71.5062071 L42.3983606,70.5046209 L42.8511287,69.8152174 C43.8195492,68.3453571 43.9830488,66.4852684 43.2913198,64.8463092 C42.5995909,63.2203575 41.1784023,62.0756875 39.4679453,61.8025277 L38.6378706,61.6594439 L38.6378706,60.2546217 L39.4302146,60.0985303 C41.1155179,59.7603324 42.5115526,58.5766396 43.1403971,56.9116651 C43.7692416,55.2596982 43.5428576,53.4126171 42.5241295,51.9687721 L42.0210539,51.266361 L42.9894745,50.2647747 L44.1088177,51.0452315 C44.9388924,51.6305741 45.9073129,51.9427568 46.9008872,51.9427568 C49.3030732,51.9427568 51.3656831,50.1737214 51.8184512,47.7543054 L52.069989,46.388506 L53.44087,46.388506 L53.5666389,47.2600161 C53.9439456,49.7965007 56.0317093,51.6435817 58.5093566,51.6435817 C59.5029309,51.6435817 60.4713514,51.331399 61.3014261,50.7460564 L61.9680013,50.2777823 L62.9364218,51.2793686 L62.4333462,51.9817797 C61.4146182,53.4126171 61.1882341,55.2596982 61.8170786,56.9246727 C62.4459231,58.5766396 63.829381,59.77334 65.5272612,60.111538 L66.3070283,60.2546217 L66.3070283,61.6594439 Z" id="Shape"></path>
                    <path d="M52.8836661,54.2094293 C49.4124445,54.2094293 46.5952212,57.1231347 46.5952212,60.7132359 C46.5952212,64.3033372 49.4124445,67.2170426 52.8836661,67.2170426 C56.3548877,67.2170426 59.1721111,64.3033372 59.1721111,60.7132359 C59.1721111,57.1231347 56.3548877,54.2094293 52.8836661,54.2094293 Z M52.8836661,64.6155199 C50.8084793,64.6155199 49.1105991,62.8594921 49.1105991,60.7132359 C49.1105991,58.5669798 50.8084793,56.810952 52.8836661,56.810952 C54.9588529,56.810952 56.6567331,58.5669798 56.6567331,60.7132359 C56.6567331,62.8594921 54.9588529,64.6155199 52.8836661,64.6155199 Z" id="Shape"></path>
                    <path d="M36.656728,33.5113335 C34.8456559,33.9926152 33.4244673,35.4884907 33.00943,37.3876023 L24.0798381,37.3876023 C23.3881092,37.3876023 22.8221491,37.9729449 22.8221491,38.6883636 C22.8221491,39.4037823 23.3881092,39.9891249 24.0798381,39.9891249 L33.1100451,39.9891249 C33.7263127,42.1483887 35.6379999,43.7353175 37.914417,43.7353175 C40.6939097,43.7353175 42.945173,41.4069548 42.945173,38.5322722 C42.945173,36.1128562 41.3353311,34.0966761 39.172106,33.5113335 L39.172106,20.3216137 C39.172106,19.606195 38.606146,19.0208524 37.914417,19.0208524 C37.2226881,19.0208524 36.656728,19.606195 36.656728,20.3216137 L36.656728,33.5113335 Z M40.429795,38.5322722 C40.429795,39.9631097 39.2978749,41.1337949 37.914417,41.1337949 C36.5309591,41.1337949 35.399039,39.9631097 35.399039,38.5322722 C35.399039,37.1014348 36.5309591,35.9307496 37.914417,35.9307496 C39.2978749,35.9307496 40.429795,37.1014348 40.429795,38.5322722 Z" id="Shape"></path>
                    <path d="M37.3927585,12.4616675 C38.0844874,12.4616675 38.6504474,11.876325 38.6504474,11.1609062 L38.6504474,9.8601449 C38.6504474,9.14472617 38.0844874,8.55938358 37.3927585,8.55938358 C36.7010295,8.55938358 36.1350695,9.14472617 36.1350695,9.8601449 L36.1350695,11.1609062 C36.1350695,11.876325 36.7010295,12.4616675 37.3927585,12.4616675 Z" id="Shape"></path>
                    <path d="M65.2762881,39.6921848 C65.9680171,39.6921848 66.5339771,39.1068422 66.5339771,38.3914235 C66.5339771,37.6760048 65.9680171,37.0906622 65.2762881,37.0906622 L64.0185991,37.0906622 C63.3268702,37.0906622 62.7609101,37.6760048 62.7609101,38.3914235 C62.7609101,39.1068422 63.3268702,39.6921848 64.0185991,39.6921848 L65.2762881,39.6921848 Z" id="Shape"></path>
                    <path d="M9.81599492,37.0906622 C9.12426597,37.0906622 8.55830593,37.6760048 8.55830593,38.3914235 C8.55830593,39.1068422 9.12426597,39.6921848 9.81599492,39.6921848 L11.0736839,39.6921848 C11.7654129,39.6921848 12.3313729,39.1068422 12.3313729,38.3914235 C12.3313729,37.6760048 11.7654129,37.0906622 11.0736839,37.0906622 L9.81599492,37.0906622 Z" id="Shape"></path>
                    <path d="M57.2947426,20.2568538 L58.1877018,19.3333133 C58.6782005,18.8260164 58.6782005,18.0065368 58.1877018,17.4992398 C57.6972031,16.9919429 56.904859,16.9919429 56.4143603,17.4992398 L55.5214011,18.4227804 C55.0309024,18.9300773 55.0309024,19.7495569 55.5214011,20.2568538 C55.7729389,20.5170061 56.0873612,20.6340746 56.4143603,20.6340746 C56.7413594,20.6340746 57.0432048,20.5039985 57.2947426,20.2568538 Z" id="Shape"></path>
                    <path d="M18.3774451,56.4919873 L17.4844859,57.4155278 C16.9939872,57.9228247 16.9939872,58.7423043 17.4844859,59.2496013 C17.7360237,59.5097535 18.0504459,59.626822 18.3774451,59.626822 C18.7044442,59.626822 19.0188665,59.4967459 19.2704042,59.2496013 L20.1633634,58.3260607 C20.6538621,57.8187638 20.6538621,56.9992842 20.1633634,56.4919873 C19.6728647,55.9846903 18.8679438,55.9846903 18.3774451,56.4919873 Z" id="Shape"></path>
                    <path d="M20.1507865,18.4227804 L19.2578274,17.4992398 C18.7673287,16.9919429 17.9749846,16.9919429 17.4844859,17.4992398 C16.9939872,18.0065368 16.9939872,18.8260164 17.4844859,19.3333133 L18.3774451,20.2568538 C18.6289829,20.5170061 18.9434051,20.6340746 19.2704042,20.6340746 C19.5974034,20.6340746 19.9118256,20.5039985 20.1633634,20.2568538 C20.6412852,19.7625645 20.6412852,18.9300773 20.1507865,18.4227804 Z" id="Shape"></path>
                    <path d="M37.7306697,0 C16.9284938,0 0,17.5082474 0,39.0228397 C0,57.0123688 11.7719689,72.5824818 28.6250014,76.9010094 C28.7256165,76.9270246 28.8262316,76.9400323 28.9268468,76.9400323 C29.4928068,76.9400323 30.0084593,76.5498039 30.1468051,75.9514536 C30.3103046,75.2490425 29.9078442,74.5466314 29.2286921,74.3775324 C13.5075797,70.3451723 2.51537798,55.8026608 2.51537798,39.0228397 C2.51537798,18.9390849 18.3119517,2.60152265 37.7306697,2.60152265 C57.1493877,2.60152265 72.9459614,18.9390849 72.9459614,39.0228397 C72.9459614,43.5364815 72.1536173,47.9460624 70.5815061,52.1475214 C70.3299683,52.8109097 70.6569674,53.5653513 71.2983888,53.8255035 C71.9398102,54.0856558 72.6692698,53.7474579 72.9208076,53.0840696 C74.6061108,48.5834354 75.4613394,43.8486642 75.4613394,39.0228397 C75.4613394,17.5082474 58.5328456,0 37.7306697,0 Z" id="Shape"></path>
                </g>
            </g>
            <g id="Management-Copy-2" transform="translate(1300.000000, 348.000000)" fill="#5A96BA">
                <g id="Group">
                    <path d="M67.8036782,57.9002437 L65.9800292,57.5360305 C65.1248007,57.3669316 64.4582255,56.7945966 64.1438033,55.9621093 C63.829381,55.1296221 63.942573,54.2320968 64.4582255,53.5036704 L65.6027225,51.8907264 C65.9674523,51.3704219 65.9171447,50.6550031 65.4769536,50.1997367 L63.0118832,47.6502445 C62.5842689,47.2079856 61.9176938,47.1429476 61.4146182,47.4941531 L59.8802376,48.5607774 C59.4652002,48.8469449 58.9872784,49.0030363 58.4967797,49.0030363 C57.4403209,49.0030363 56.2455164,48.2485947 56.0317093,46.8307648 L55.7424408,44.8536076 C55.6418257,44.2162346 55.1135963,43.7479605 54.4973287,43.7479605 L51.0135302,43.7479605 C50.4098395,43.7479605 49.894187,44.1902194 49.780995,44.8015772 L49.328227,47.2340009 C49.0766892,48.5998002 47.9070384,49.315219 46.8883103,49.315219 C46.3978116,49.315219 45.9198898,49.1591276 45.5048524,48.8729601 L43.5302807,47.4941531 C43.0272051,47.1429476 42.36063,47.2079856 41.9330157,47.6502445 L39.4679453,50.1997367 C39.0277541,50.6550031 38.9774466,51.3704219 39.3421764,51.8907264 L40.4866734,53.5036704 C41.0023259,54.2320968 41.1155179,55.1166145 40.8010956,55.9621093 C40.4866734,56.7945966 39.8075213,57.3669316 38.9648697,57.5360305 L37.1537976,57.9002437 C36.5626837,58.0173122 36.1350695,58.5506244 36.1350695,59.1749898 L36.1350695,62.7780987 C36.1350695,63.4154717 36.5878375,63.9617915 37.2041051,64.0658524 L39.1032155,64.3650275 C39.958444,64.5081112 40.6501729,65.054431 41.0023259,65.8739106 C41.3544788,66.6933902 41.2664405,67.5909156 40.7885187,68.3323495 L39.7572138,69.9192783 C39.4176377,70.4395829 39.4805222,71.1289864 39.9081364,71.5712452 L42.3732069,74.1207374 C42.813398,74.5760039 43.5051269,74.6280343 44.0082025,74.2508135 L45.5677369,73.0671207 C45.9953511,72.7419304 46.4984267,72.5728314 47.0266561,72.5728314 C48.0453842,72.5728314 49.215035,73.2882502 49.4665728,74.6540495 L49.8187257,76.5271458 C49.9319177,77.1385037 50.4475702,77.5807625 51.0512609,77.5807625 L54.5350594,77.5807625 C55.151327,77.5807625 55.6795564,77.1124884 55.7801715,76.4751154 L55.9814017,75.0833008 C56.1952089,73.6524633 57.3774365,72.9110294 58.4464721,72.9110294 C58.9621246,72.9110294 59.4652002,73.0801283 59.9053914,73.4053187 L60.9995808,74.2378059 C61.5026564,74.6150267 62.1943853,74.5629962 62.6345765,74.1077298 L65.0996469,71.5582376 C65.5272612,71.1159787 65.5901456,70.4265752 65.2505696,69.9062707 L64.2192646,68.3193419 C63.7287659,67.5779079 63.6533046,66.6803826 64.0054575,65.860903 C64.3576104,65.0414234 65.0493393,64.4951036 65.9045678,64.3520199 L67.8036782,64.0528448 C68.4199458,63.9487839 68.8727139,63.4024641 68.8727139,62.765091 L68.8727139,59.1619822 C68.8224063,58.5506244 68.394792,58.0173122 67.8036782,57.9002437 Z M66.3070283,61.6594439 L65.4643767,61.7895201 C63.7664966,62.0626799 62.3327311,63.1943423 61.6410022,64.8333016 C60.9492732,66.4722608 61.1127728,68.3193419 62.0811933,69.8022098 L62.5339614,70.4916133 L61.5655408,71.4931995 L61.3391568,71.3241006 C60.4713514,70.6737199 59.4526233,70.3225143 58.3961646,70.3225143 C55.9059404,70.3225143 53.8307536,72.1695954 53.4534469,74.70608 L53.4282931,74.9922475 L52.0574121,74.9922475 L51.9064894,74.1727679 C51.4537214,71.7403442 49.3911114,69.9843164 46.9889254,69.9843164 C45.9324667,69.9843164 44.9137386,70.3355219 44.0459332,70.9859026 L43.3667812,71.5062071 L42.3983606,70.5046209 L42.8511287,69.8152174 C43.8195492,68.3453571 43.9830488,66.4852684 43.2913198,64.8463092 C42.5995909,63.2203575 41.1784023,62.0756875 39.4679453,61.8025277 L38.6378706,61.6594439 L38.6378706,60.2546217 L39.4302146,60.0985303 C41.1155179,59.7603324 42.5115526,58.5766396 43.1403971,56.9116651 C43.7692416,55.2596982 43.5428576,53.4126171 42.5241295,51.9687721 L42.0210539,51.266361 L42.9894745,50.2647747 L44.1088177,51.0452315 C44.9388924,51.6305741 45.9073129,51.9427568 46.9008872,51.9427568 C49.3030732,51.9427568 51.3656831,50.1737214 51.8184512,47.7543054 L52.069989,46.388506 L53.44087,46.388506 L53.5666389,47.2600161 C53.9439456,49.7965007 56.0317093,51.6435817 58.5093566,51.6435817 C59.5029309,51.6435817 60.4713514,51.331399 61.3014261,50.7460564 L61.9680013,50.2777823 L62.9364218,51.2793686 L62.4333462,51.9817797 C61.4146182,53.4126171 61.1882341,55.2596982 61.8170786,56.9246727 C62.4459231,58.5766396 63.829381,59.77334 65.5272612,60.111538 L66.3070283,60.2546217 L66.3070283,61.6594439 Z" id="Shape"></path>
                    <path d="M52.8836661,54.2094293 C49.4124445,54.2094293 46.5952212,57.1231347 46.5952212,60.7132359 C46.5952212,64.3033372 49.4124445,67.2170426 52.8836661,67.2170426 C56.3548877,67.2170426 59.1721111,64.3033372 59.1721111,60.7132359 C59.1721111,57.1231347 56.3548877,54.2094293 52.8836661,54.2094293 Z M52.8836661,64.6155199 C50.8084793,64.6155199 49.1105991,62.8594921 49.1105991,60.7132359 C49.1105991,58.5669798 50.8084793,56.810952 52.8836661,56.810952 C54.9588529,56.810952 56.6567331,58.5669798 56.6567331,60.7132359 C56.6567331,62.8594921 54.9588529,64.6155199 52.8836661,64.6155199 Z" id="Shape"></path>
                    <path d="M36.656728,33.5113335 C34.8456559,33.9926152 33.4244673,35.4884907 33.00943,37.3876023 L24.0798381,37.3876023 C23.3881092,37.3876023 22.8221491,37.9729449 22.8221491,38.6883636 C22.8221491,39.4037823 23.3881092,39.9891249 24.0798381,39.9891249 L33.1100451,39.9891249 C33.7263127,42.1483887 35.6379999,43.7353175 37.914417,43.7353175 C40.6939097,43.7353175 42.945173,41.4069548 42.945173,38.5322722 C42.945173,36.1128562 41.3353311,34.0966761 39.172106,33.5113335 L39.172106,20.3216137 C39.172106,19.606195 38.606146,19.0208524 37.914417,19.0208524 C37.2226881,19.0208524 36.656728,19.606195 36.656728,20.3216137 L36.656728,33.5113335 Z M40.429795,38.5322722 C40.429795,39.9631097 39.2978749,41.1337949 37.914417,41.1337949 C36.5309591,41.1337949 35.399039,39.9631097 35.399039,38.5322722 C35.399039,37.1014348 36.5309591,35.9307496 37.914417,35.9307496 C39.2978749,35.9307496 40.429795,37.1014348 40.429795,38.5322722 Z" id="Shape"></path>
                    <path d="M37.3927585,12.4616675 C38.0844874,12.4616675 38.6504474,11.876325 38.6504474,11.1609062 L38.6504474,9.8601449 C38.6504474,9.14472617 38.0844874,8.55938358 37.3927585,8.55938358 C36.7010295,8.55938358 36.1350695,9.14472617 36.1350695,9.8601449 L36.1350695,11.1609062 C36.1350695,11.876325 36.7010295,12.4616675 37.3927585,12.4616675 Z" id="Shape"></path>
                    <path d="M65.2762881,39.6921848 C65.9680171,39.6921848 66.5339771,39.1068422 66.5339771,38.3914235 C66.5339771,37.6760048 65.9680171,37.0906622 65.2762881,37.0906622 L64.0185991,37.0906622 C63.3268702,37.0906622 62.7609101,37.6760048 62.7609101,38.3914235 C62.7609101,39.1068422 63.3268702,39.6921848 64.0185991,39.6921848 L65.2762881,39.6921848 Z" id="Shape"></path>
                    <path d="M9.81599492,37.0906622 C9.12426597,37.0906622 8.55830593,37.6760048 8.55830593,38.3914235 C8.55830593,39.1068422 9.12426597,39.6921848 9.81599492,39.6921848 L11.0736839,39.6921848 C11.7654129,39.6921848 12.3313729,39.1068422 12.3313729,38.3914235 C12.3313729,37.6760048 11.7654129,37.0906622 11.0736839,37.0906622 L9.81599492,37.0906622 Z" id="Shape"></path>
                    <path d="M57.2947426,20.2568538 L58.1877018,19.3333133 C58.6782005,18.8260164 58.6782005,18.0065368 58.1877018,17.4992398 C57.6972031,16.9919429 56.904859,16.9919429 56.4143603,17.4992398 L55.5214011,18.4227804 C55.0309024,18.9300773 55.0309024,19.7495569 55.5214011,20.2568538 C55.7729389,20.5170061 56.0873612,20.6340746 56.4143603,20.6340746 C56.7413594,20.6340746 57.0432048,20.5039985 57.2947426,20.2568538 Z" id="Shape"></path>
                    <path d="M18.3774451,56.4919873 L17.4844859,57.4155278 C16.9939872,57.9228247 16.9939872,58.7423043 17.4844859,59.2496013 C17.7360237,59.5097535 18.0504459,59.626822 18.3774451,59.626822 C18.7044442,59.626822 19.0188665,59.4967459 19.2704042,59.2496013 L20.1633634,58.3260607 C20.6538621,57.8187638 20.6538621,56.9992842 20.1633634,56.4919873 C19.6728647,55.9846903 18.8679438,55.9846903 18.3774451,56.4919873 Z" id="Shape"></path>
                    <path d="M20.1507865,18.4227804 L19.2578274,17.4992398 C18.7673287,16.9919429 17.9749846,16.9919429 17.4844859,17.4992398 C16.9939872,18.0065368 16.9939872,18.8260164 17.4844859,19.3333133 L18.3774451,20.2568538 C18.6289829,20.5170061 18.9434051,20.6340746 19.2704042,20.6340746 C19.5974034,20.6340746 19.9118256,20.5039985 20.1633634,20.2568538 C20.6412852,19.7625645 20.6412852,18.9300773 20.1507865,18.4227804 Z" id="Shape"></path>
                    <path d="M37.7306697,0 C16.9284938,0 0,17.5082474 0,39.0228397 C0,57.0123688 11.7719689,72.5824818 28.6250014,76.9010094 C28.7256165,76.9270246 28.8262316,76.9400323 28.9268468,76.9400323 C29.4928068,76.9400323 30.0084593,76.5498039 30.1468051,75.9514536 C30.3103046,75.2490425 29.9078442,74.5466314 29.2286921,74.3775324 C13.5075797,70.3451723 2.51537798,55.8026608 2.51537798,39.0228397 C2.51537798,18.9390849 18.3119517,2.60152265 37.7306697,2.60152265 C57.1493877,2.60152265 72.9459614,18.9390849 72.9459614,39.0228397 C72.9459614,43.5364815 72.1536173,47.9460624 70.5815061,52.1475214 C70.3299683,52.8109097 70.6569674,53.5653513 71.2983888,53.8255035 C71.9398102,54.0856558 72.6692698,53.7474579 72.9208076,53.0840696 C74.6061108,48.5834354 75.4613394,43.8486642 75.4613394,39.0228397 C75.4613394,17.5082474 58.5328456,0 37.7306697,0 Z" id="Shape"></path>
                </g>
            </g>
            <g id="gVets_team-Copy" transform="translate(319.000000, 740.000000)" fill="#5A96BA">
                <g id="Group">
                    <path d="M0.0873295391,78.383887 L27.4214753,78.383887 L28.7314184,78.2965574 L55.0176096,78.2965574 L55.0176096,78.383887 L83.6616985,78.383887 L83.6616985,77.0739439 C83.6616985,69.1269558 77.1993126,62.7518995 69.3396541,62.7518995 C65.0605066,62.7518995 61.1306774,64.5858198 58.4234617,67.7296832 C55.1049392,62.0532632 49.079201,58.4727521 42.3548265,58.4727521 C35.3684633,58.4727521 28.993407,62.4025813 25.8495436,68.5156491 C23.3169869,65.109797 19.3871577,63.0138881 15.1080103,62.7518995 C20.3477826,62.4025813 24.3649414,58.1234339 24.3649414,52.8836616 C24.3649414,47.3819006 19.9111349,42.9280941 14.409374,42.9280941 C8.90761299,42.9280941 4.45380649,47.3819006 4.45380649,52.8836616 C4.45380649,58.1234339 8.55829483,62.4025813 13.7107376,62.7518995 C6.11306774,63.1012176 3.55271368e-15,69.3889444 3.55271368e-15,77.0739439 L3.55271368e-15,78.383887 L0.0873295391,78.383887 Z M7.16102221,52.8836616 C7.16102221,48.8665028 10.4795447,45.5479803 14.4967035,45.5479803 C18.5138623,45.5479803 21.8323848,48.8665028 21.8323848,52.8836616 C21.8323848,56.9008204 18.5138623,60.2193428 14.4967035,60.2193428 C10.4795447,60.2193428 7.16102221,56.9008204 7.16102221,52.8836616 Z M14.409374,65.3717856 C18.8631804,65.3717856 22.9676688,67.9916718 24.9762482,72.0088306 L26.3735208,74.8033759 L27.4214753,71.8341715 C29.6047138,65.4591152 35.7177815,61.1799678 42.442156,61.1799678 C48.8172124,61.1799678 54.5809619,64.9351379 57.1135186,70.7862171 L58.0741435,73.0567851 L59.3840866,70.9608761 C61.5673251,67.4676946 65.2351657,65.3717856 69.3396541,65.3717856 C75.3653922,65.3717856 80.343176,69.9129217 80.9544828,75.7640008 L57.6374958,75.7640008 L57.6374958,75.6766713 L27.5088048,75.6766713 L26.1988617,75.7640008 L2.79454525,75.7640008 C3.49318156,69.9129217 8.47096529,65.3717856 14.409374,65.3717856 Z" id="Shape"></path>
                    <path d="M69.4269836,62.7518995 C74.9287446,62.7518995 79.382551,58.298093 79.382551,52.796332 C79.382551,47.2945711 74.9287446,42.8407646 69.4269836,42.8407646 C63.9252226,42.8407646 59.4714161,47.2945711 59.4714161,52.796332 C59.4714161,58.298093 63.9252226,62.7518995 69.4269836,62.7518995 Z M69.4269836,45.4606507 C73.4441424,45.4606507 76.7626649,48.7791732 76.7626649,52.796332 C76.7626649,56.8134908 73.4441424,60.1320133 69.4269836,60.1320133 C65.4098248,60.1320133 62.0913023,56.8134908 62.0913023,52.796332 C62.0913023,48.7791732 65.3224953,45.4606507 69.4269836,45.4606507 Z" id="Shape"></path>
                    <path d="M31.7006227,47.4692301 C31.7006227,53.4076388 36.5037473,58.2107634 42.442156,58.2107634 C48.3805647,58.2107634 53.1836893,53.4076388 53.1836893,47.4692301 C53.1836893,41.5308215 48.3805647,36.7276968 42.442156,36.7276968 C36.5037473,36.7276968 31.7006227,41.5308215 31.7006227,47.4692301 Z M50.5638031,47.4692301 C50.5638031,51.9230366 46.8959625,55.5908773 42.442156,55.5908773 C37.9883495,55.5908773 34.3205089,51.9230366 34.3205089,47.4692301 C34.3205089,43.0154236 37.9883495,39.347583 42.442156,39.347583 C46.8959625,39.347583 50.5638031,43.0154236 50.5638031,47.4692301 Z" id="Shape"></path>
                    <path d="M59.0347684,17.4278687 C59.0347684,7.99627845 51.349769,0.311279011 41.9181788,0.311279011 C32.4865885,0.311279011 24.8015891,7.99627845 24.8015891,17.4278687 C24.8015891,26.8594589 32.4865885,34.4571288 41.9181788,34.4571288 C51.349769,34.4571288 59.0347684,26.8594589 59.0347684,17.4278687 Z M41.9181788,31.8372426 C33.9711907,31.8372426 27.4214753,25.3748567 27.4214753,17.3405391 C27.4214753,9.30622154 33.9711907,2.93116518 41.9181788,2.93116518 C49.8651668,2.93116518 56.4148823,9.39355108 56.4148823,17.4278687 C56.4148823,25.4621863 49.8651668,31.8372426 41.9181788,31.8372426 Z" id="Shape"></path>
                    <path d="M52.0484053,13.6726985 L45.2367013,13.6726985 L45.2367013,6.86099444 C45.2367013,6.16235813 44.6253945,5.55105136 43.9267582,5.55105136 L39.9095994,5.55105136 C39.2109631,5.55105136 38.5996563,6.16235813 38.5996563,6.86099444 L38.5996563,13.6726985 L31.7879522,13.6726985 C31.0893159,13.6726985 30.4780091,14.2840053 30.4780091,14.9826416 L30.4780091,18.9998004 C30.4780091,19.6984367 31.0893159,20.3097435 31.7879522,20.3097435 L38.5996563,20.3097435 L38.5996563,27.1214475 C38.5996563,27.8200838 39.2109631,28.4313906 39.9095994,28.4313906 L43.9267582,28.4313906 C44.6253945,28.4313906 45.2367013,27.8200838 45.2367013,27.1214475 L45.2367013,20.3097435 L52.0484053,20.3097435 C52.7470416,20.3097435 53.3583484,19.6984367 53.3583484,18.9998004 L53.3583484,14.9826416 C53.3583484,14.2840053 52.7470416,13.6726985 52.0484053,13.6726985 Z M50.7384622,17.6898573 L43.9267582,17.6898573 C43.2281219,17.6898573 42.6168151,18.3011641 42.6168151,18.9998004 L42.6168151,25.8115044 L41.2195425,25.8115044 L41.2195425,18.9998004 C41.2195425,18.3011641 40.6082357,17.6898573 39.9095994,17.6898573 L33.0978953,17.6898573 L33.0978953,16.2925847 L39.9095994,16.2925847 C40.6082357,16.2925847 41.2195425,15.6812779 41.2195425,14.9826416 L41.2195425,8.17093753 L42.6168151,8.17093753 L42.6168151,14.9826416 C42.6168151,15.6812779 43.2281219,16.2925847 43.9267582,16.2925847 L50.7384622,16.2925847 L50.7384622,17.6898573 Z" id="Shape"></path>
                </g>
            </g>
            <g id="gVets_team-Copy-5" transform="translate(374.000000, 766.000000)">
                <g id="Group">
                    <circle id="Oval-2" fill="#FFFFFF" cx="14.5" cy="52.5" r="8.5"></circle>
                    <path d="M0.0873295391,78.383887 L27.4214753,78.383887 L28.7314184,78.2965574 L55.0176096,78.2965574 L55.0176096,78.383887 L83.6616985,78.383887 L83.6616985,77.0739439 C83.6616985,69.1269558 77.1993126,62.7518995 69.3396541,62.7518995 C65.0605066,62.7518995 61.1306774,64.5858198 58.4234617,67.7296832 C55.1049392,62.0532632 49.079201,58.4727521 42.3548265,58.4727521 C35.3684633,58.4727521 28.993407,62.4025813 25.8495436,68.5156491 C23.3169869,65.109797 19.3871577,63.0138881 15.1080103,62.7518995 C20.3477826,62.4025813 24.3649414,58.1234339 24.3649414,52.8836616 C24.3649414,47.3819006 19.9111349,42.9280941 14.409374,42.9280941 C8.90761299,42.9280941 4.45380649,47.3819006 4.45380649,52.8836616 C4.45380649,58.1234339 8.55829483,62.4025813 13.7107376,62.7518995 C6.11306774,63.1012176 3.55271368e-15,69.3889444 3.55271368e-15,77.0739439 L3.55271368e-15,78.383887 L0.0873295391,78.383887 Z M7.16102221,52.8836616 C7.16102221,48.8665028 10.4795447,45.5479803 14.4967035,45.5479803 C18.5138623,45.5479803 21.8323848,48.8665028 21.8323848,52.8836616 C21.8323848,56.9008204 18.5138623,60.2193428 14.4967035,60.2193428 C10.4795447,60.2193428 7.16102221,56.9008204 7.16102221,52.8836616 Z M14.409374,65.3717856 C18.8631804,65.3717856 22.9676688,67.9916718 24.9762482,72.0088306 L26.3735208,74.8033759 L27.4214753,71.8341715 C29.6047138,65.4591152 35.7177815,61.1799678 42.442156,61.1799678 C48.8172124,61.1799678 54.5809619,64.9351379 57.1135186,70.7862171 L58.0741435,73.0567851 L59.3840866,70.9608761 C61.5673251,67.4676946 65.2351657,65.3717856 69.3396541,65.3717856 C75.3653922,65.3717856 80.343176,69.9129217 80.9544828,75.7640008 L57.6374958,75.7640008 L57.6374958,75.6766713 L27.5088048,75.6766713 L26.1988617,75.7640008 L2.79454525,75.7640008 C3.49318156,69.9129217 8.47096529,65.3717856 14.409374,65.3717856 Z" id="Shape" fill="#5A96BA"></path>
                    <path d="M69.4269836,62.7518995 C74.9287446,62.7518995 79.382551,58.298093 79.382551,52.796332 C79.382551,47.2945711 74.9287446,42.8407646 69.4269836,42.8407646 C63.9252226,42.8407646 59.4714161,47.2945711 59.4714161,52.796332 C59.4714161,58.298093 63.9252226,62.7518995 69.4269836,62.7518995 Z M69.4269836,45.4606507 C73.4441424,45.4606507 76.7626649,48.7791732 76.7626649,52.796332 C76.7626649,56.8134908 73.4441424,60.1320133 69.4269836,60.1320133 C65.4098248,60.1320133 62.0913023,56.8134908 62.0913023,52.796332 C62.0913023,48.7791732 65.3224953,45.4606507 69.4269836,45.4606507 Z" id="Shape" fill="#5A96BA"></path>
                    <path d="M31.7006227,47.4692301 C31.7006227,53.4076388 36.5037473,58.2107634 42.442156,58.2107634 C48.3805647,58.2107634 53.1836893,53.4076388 53.1836893,47.4692301 C53.1836893,41.5308215 48.3805647,36.7276968 42.442156,36.7276968 C36.5037473,36.7276968 31.7006227,41.5308215 31.7006227,47.4692301 Z M50.5638031,47.4692301 C50.5638031,51.9230366 46.8959625,55.5908773 42.442156,55.5908773 C37.9883495,55.5908773 34.3205089,51.9230366 34.3205089,47.4692301 C34.3205089,43.0154236 37.9883495,39.347583 42.442156,39.347583 C46.8959625,39.347583 50.5638031,43.0154236 50.5638031,47.4692301 Z" id="Shape" fill="#5A96BA"></path>
                    <path d="M59.0347684,17.4278687 C59.0347684,7.99627845 51.349769,0.311279011 41.9181788,0.311279011 C32.4865885,0.311279011 24.8015891,7.99627845 24.8015891,17.4278687 C24.8015891,26.8594589 32.4865885,34.4571288 41.9181788,34.4571288 C51.349769,34.4571288 59.0347684,26.8594589 59.0347684,17.4278687 Z M41.9181788,31.8372426 C33.9711907,31.8372426 27.4214753,25.3748567 27.4214753,17.3405391 C27.4214753,9.30622154 33.9711907,2.93116518 41.9181788,2.93116518 C49.8651668,2.93116518 56.4148823,9.39355108 56.4148823,17.4278687 C56.4148823,25.4621863 49.8651668,31.8372426 41.9181788,31.8372426 Z" id="Shape" fill="#5A96BA"></path>
                    <path d="M52.0484053,13.6726985 L45.2367013,13.6726985 L45.2367013,6.86099444 C45.2367013,6.16235813 44.6253945,5.55105136 43.9267582,5.55105136 L39.9095994,5.55105136 C39.2109631,5.55105136 38.5996563,6.16235813 38.5996563,6.86099444 L38.5996563,13.6726985 L31.7879522,13.6726985 C31.0893159,13.6726985 30.4780091,14.2840053 30.4780091,14.9826416 L30.4780091,18.9998004 C30.4780091,19.6984367 31.0893159,20.3097435 31.7879522,20.3097435 L38.5996563,20.3097435 L38.5996563,27.1214475 C38.5996563,27.8200838 39.2109631,28.4313906 39.9095994,28.4313906 L43.9267582,28.4313906 C44.6253945,28.4313906 45.2367013,27.8200838 45.2367013,27.1214475 L45.2367013,20.3097435 L52.0484053,20.3097435 C52.7470416,20.3097435 53.3583484,19.6984367 53.3583484,18.9998004 L53.3583484,14.9826416 C53.3583484,14.2840053 52.7470416,13.6726985 52.0484053,13.6726985 Z M50.7384622,17.6898573 L43.9267582,17.6898573 C43.2281219,17.6898573 42.6168151,18.3011641 42.6168151,18.9998004 L42.6168151,25.8115044 L41.2195425,25.8115044 L41.2195425,18.9998004 C41.2195425,18.3011641 40.6082357,17.6898573 39.9095994,17.6898573 L33.0978953,17.6898573 L33.0978953,16.2925847 L39.9095994,16.2925847 C40.6082357,16.2925847 41.2195425,15.6812779 41.2195425,14.9826416 L41.2195425,8.17093753 L42.6168151,8.17093753 L42.6168151,14.9826416 C42.6168151,15.6812779 43.2281219,16.2925847 43.9267582,16.2925847 L50.7384622,16.2925847 L50.7384622,17.6898573 Z" id="Shape" fill="#5A96BA"></path>
                </g>
            </g>
            <g id="gVets_team-Copy-2" transform="translate(148.000000, 633.000000)" fill="#5A96BA">
                <g id="Group">
                    <path d="M0.0873295391,78.383887 L27.4214753,78.383887 L28.7314184,78.2965574 L55.0176096,78.2965574 L55.0176096,78.383887 L83.6616985,78.383887 L83.6616985,77.0739439 C83.6616985,69.1269558 77.1993126,62.7518995 69.3396541,62.7518995 C65.0605066,62.7518995 61.1306774,64.5858198 58.4234617,67.7296832 C55.1049392,62.0532632 49.079201,58.4727521 42.3548265,58.4727521 C35.3684633,58.4727521 28.993407,62.4025813 25.8495436,68.5156491 C23.3169869,65.109797 19.3871577,63.0138881 15.1080103,62.7518995 C20.3477826,62.4025813 24.3649414,58.1234339 24.3649414,52.8836616 C24.3649414,47.3819006 19.9111349,42.9280941 14.409374,42.9280941 C8.90761299,42.9280941 4.45380649,47.3819006 4.45380649,52.8836616 C4.45380649,58.1234339 8.55829483,62.4025813 13.7107376,62.7518995 C6.11306774,63.1012176 3.55271368e-15,69.3889444 3.55271368e-15,77.0739439 L3.55271368e-15,78.383887 L0.0873295391,78.383887 Z M7.16102221,52.8836616 C7.16102221,48.8665028 10.4795447,45.5479803 14.4967035,45.5479803 C18.5138623,45.5479803 21.8323848,48.8665028 21.8323848,52.8836616 C21.8323848,56.9008204 18.5138623,60.2193428 14.4967035,60.2193428 C10.4795447,60.2193428 7.16102221,56.9008204 7.16102221,52.8836616 Z M14.409374,65.3717856 C18.8631804,65.3717856 22.9676688,67.9916718 24.9762482,72.0088306 L26.3735208,74.8033759 L27.4214753,71.8341715 C29.6047138,65.4591152 35.7177815,61.1799678 42.442156,61.1799678 C48.8172124,61.1799678 54.5809619,64.9351379 57.1135186,70.7862171 L58.0741435,73.0567851 L59.3840866,70.9608761 C61.5673251,67.4676946 65.2351657,65.3717856 69.3396541,65.3717856 C75.3653922,65.3717856 80.343176,69.9129217 80.9544828,75.7640008 L57.6374958,75.7640008 L57.6374958,75.6766713 L27.5088048,75.6766713 L26.1988617,75.7640008 L2.79454525,75.7640008 C3.49318156,69.9129217 8.47096529,65.3717856 14.409374,65.3717856 Z" id="Shape"></path>
                    <path d="M69.4269836,62.7518995 C74.9287446,62.7518995 79.382551,58.298093 79.382551,52.796332 C79.382551,47.2945711 74.9287446,42.8407646 69.4269836,42.8407646 C63.9252226,42.8407646 59.4714161,47.2945711 59.4714161,52.796332 C59.4714161,58.298093 63.9252226,62.7518995 69.4269836,62.7518995 Z M69.4269836,45.4606507 C73.4441424,45.4606507 76.7626649,48.7791732 76.7626649,52.796332 C76.7626649,56.8134908 73.4441424,60.1320133 69.4269836,60.1320133 C65.4098248,60.1320133 62.0913023,56.8134908 62.0913023,52.796332 C62.0913023,48.7791732 65.3224953,45.4606507 69.4269836,45.4606507 Z" id="Shape"></path>
                    <path d="M31.7006227,47.4692301 C31.7006227,53.4076388 36.5037473,58.2107634 42.442156,58.2107634 C48.3805647,58.2107634 53.1836893,53.4076388 53.1836893,47.4692301 C53.1836893,41.5308215 48.3805647,36.7276968 42.442156,36.7276968 C36.5037473,36.7276968 31.7006227,41.5308215 31.7006227,47.4692301 Z M50.5638031,47.4692301 C50.5638031,51.9230366 46.8959625,55.5908773 42.442156,55.5908773 C37.9883495,55.5908773 34.3205089,51.9230366 34.3205089,47.4692301 C34.3205089,43.0154236 37.9883495,39.347583 42.442156,39.347583 C46.8959625,39.347583 50.5638031,43.0154236 50.5638031,47.4692301 Z" id="Shape"></path>
                    <path d="M59.0347684,17.4278687 C59.0347684,7.99627845 51.349769,0.311279011 41.9181788,0.311279011 C32.4865885,0.311279011 24.8015891,7.99627845 24.8015891,17.4278687 C24.8015891,26.8594589 32.4865885,34.4571288 41.9181788,34.4571288 C51.349769,34.4571288 59.0347684,26.8594589 59.0347684,17.4278687 Z M41.9181788,31.8372426 C33.9711907,31.8372426 27.4214753,25.3748567 27.4214753,17.3405391 C27.4214753,9.30622154 33.9711907,2.93116518 41.9181788,2.93116518 C49.8651668,2.93116518 56.4148823,9.39355108 56.4148823,17.4278687 C56.4148823,25.4621863 49.8651668,31.8372426 41.9181788,31.8372426 Z" id="Shape"></path>
                    <path d="M52.0484053,13.6726985 L45.2367013,13.6726985 L45.2367013,6.86099444 C45.2367013,6.16235813 44.6253945,5.55105136 43.9267582,5.55105136 L39.9095994,5.55105136 C39.2109631,5.55105136 38.5996563,6.16235813 38.5996563,6.86099444 L38.5996563,13.6726985 L31.7879522,13.6726985 C31.0893159,13.6726985 30.4780091,14.2840053 30.4780091,14.9826416 L30.4780091,18.9998004 C30.4780091,19.6984367 31.0893159,20.3097435 31.7879522,20.3097435 L38.5996563,20.3097435 L38.5996563,27.1214475 C38.5996563,27.8200838 39.2109631,28.4313906 39.9095994,28.4313906 L43.9267582,28.4313906 C44.6253945,28.4313906 45.2367013,27.8200838 45.2367013,27.1214475 L45.2367013,20.3097435 L52.0484053,20.3097435 C52.7470416,20.3097435 53.3583484,19.6984367 53.3583484,18.9998004 L53.3583484,14.9826416 C53.3583484,14.2840053 52.7470416,13.6726985 52.0484053,13.6726985 Z M50.7384622,17.6898573 L43.9267582,17.6898573 C43.2281219,17.6898573 42.6168151,18.3011641 42.6168151,18.9998004 L42.6168151,25.8115044 L41.2195425,25.8115044 L41.2195425,18.9998004 C41.2195425,18.3011641 40.6082357,17.6898573 39.9095994,17.6898573 L33.0978953,17.6898573 L33.0978953,16.2925847 L39.9095994,16.2925847 C40.6082357,16.2925847 41.2195425,15.6812779 41.2195425,14.9826416 L41.2195425,8.17093753 L42.6168151,8.17093753 L42.6168151,14.9826416 C42.6168151,15.6812779 43.2281219,16.2925847 43.9267582,16.2925847 L50.7384622,16.2925847 L50.7384622,17.6898573 Z" id="Shape"></path>
                </g>
            </g>
        </g>
    </g>
</svg>