<svg xmlns="http://www.w3.org/2000/svg" xmlns:xlink="http://www.w3.org/1999/xlink" viewBox="0 0 899.44 359.73"><defs><style>.cls-1{fill:url(#linear-gradient);}.cls-2{fill:url(#radial-gradient);}.cls-3{fill:snow;}.cls-4,.cls-5,.cls-7{fill:#d30000;}.cls-4{opacity:0.6;}.cls-5{stroke:#fff;stroke-miterlimit:10;stroke-width:13px;}.cls-6{fill:#686868;}</style><linearGradient id="linear-gradient" x1="549.43" y1="141.94" x2="749.5" y2="141.94" gradientUnits="userSpaceOnUse"><stop offset="0.69" stop-color="#d30000"/><stop offset="0.98" stop-color="#d30000"/></linearGradient><radialGradient id="radial-gradient" cx="649.46" cy="183.8" r="95.5" gradientTransform="translate(0 2.91) scale(1 0.99)" gradientUnits="userSpaceOnUse"><stop offset="0" stop-color="#fff"/><stop offset="0.12" stop-color="#fefbfb"/><stop offset="0.25" stop-color="#fcefef"/><stop offset="0.37" stop-color="#f9dada"/><stop offset="0.5" stop-color="#f4bebe"/><stop offset="0.63" stop-color="#ed9999"/><stop offset="0.76" stop-color="#e66c6c"/><stop offset="0.88" stop-color="#dd3838"/><stop offset="1" stop-color="#d30000"/></radialGradient></defs><title>Asset 2</title><g id="Layer_2" data-name="Layer 2"><g id="Layer_1-2" data-name="Layer 1"><path class="cls-1" d="M649.34,0c9.55,14.69,18.91,29,28.22,43.4,18.59,28.67,37.08,57.4,55.75,86,37.71,57.79,6.36,136-60.94,151.83-55.2,13-110.86-23.06-121.13-78.77-4.81-26-.06-50.53,14.33-72.91Q606.9,65.32,648.36,1.15A11,11,0,0,1,649.34,0Z"/><ellipse class="cls-2" cx="649.46" cy="184.79" rx="95.5" ry="94.5"/><path class="cls-3" d="M649.38,53.28c7.26,10.69,14.37,21.13,21.45,31.58C685,105.72,699,126.62,713.19,147.44c28.66,42.05,4.83,99-46.32,110.48-42,9.45-84.26-16.77-92.06-57.31-3.65-19,0-36.76,10.89-53.05q31.41-46.75,62.93-93.44A8.47,8.47,0,0,1,649.38,53.28Z"/><path class="cls-4" d="M649.4,90.31c5.51,8.11,10.9,16,16.27,24,10.72,15.82,21.38,31.68,32.14,47.47,21.74,31.9,3.66,75.08-35.14,83.81-31.83,7.17-63.92-12.72-69.84-43.47a52.13,52.13,0,0,1,8.26-40.25q23.83-35.48,47.74-70.89A6.66,6.66,0,0,1,649.4,90.31Z"/><circle class="cls-5" cx="649.46" cy="190.4" r="32.62"/><path class="cls-6" d="M112.27,89.83c-15.67-13-28.72-18.59-43.41-18.59-22.19,0-37.85,14-38.83,35.24a33.63,33.63,0,0,0,16,31A157.42,157.42,0,0,0,63.32,147l6.52,3.26,6.86,2.94,6.52,3.26c20.89,9.8,30.36,17,36.56,27.75,5.54,9.46,7.83,18.92,7.83,31.65,0,35.25-27.74,60.71-66.58,60.71-23.17,0-40.47-6.21-61-22.53l5.22-20.88c18.61,17.29,36.55,25.78,55.48,25.78,28.72,0,46.35-15.66,46.35-41.44,0-13.06-5.22-24.16-14.69-31.34-5.22-4.24-11.75-7.83-19.26-11.42l-19.58-8.81c-31.65-14.69-43.08-29.7-43.08-56.14,0-31.65,26.11-56.45,59.08-56.45a78,78,0,0,1,51.56,18.92Z"/><path class="cls-6" d="M171,359.73h-18.6V179.91c0-29.7-2-39.16-10.12-47l15.34-7.51c5.55,4.9,8.81,9.79,10.45,16.32a77,77,0,0,1,42.75-16c39.16-2.62,68.54,29,68.54,74.4,0,43.09-30,74.42-71.15,74.42-14.69,0-22.85-1.64-37.21-7.84Zm0-110.31c14.69,8.17,23.83,10.78,37.21,10.12,31-1.3,51.24-24.8,51.24-58.74,0-35.57-20.56-59.4-51.57-59.4-13.38,0-22.84,3.26-36.88,12.73Z"/><path class="cls-6" d="M438,198.52c0,45.36-28.4,77-69.19,77-25.78,0-45-8.49-58.09-26.44-9.8-12.73-15.34-30.68-15.34-48.3,0-42.76,30.67-75.06,71.14-75.06C407.63,125.74,438,156.74,438,198.52Zm-123.37,0c0,34.91,23.17,61.68,53.2,61.68,30.67,0,50.91-22.85,50.91-57.12,0-36.22-22.19-61.35-54.5-61.35C334.84,141.73,314.61,164.9,314.61,198.52Z"/><path class="cls-6" d="M526.42,143.69H486.28v79.63c0,20.23,1.3,26.76,6.85,31,4.24,3.59,11.42,4.9,20.89,4.24,7.5-.65,12.07-1.63,20.56-5.22l2.93,13.71c-12.4,5.55-21.21,7.51-36.22,7.51-13.71,0-26.11-7.19-30.35-17.95-2.61-6.86-3.27-11.76-3.27-31V143.69H437V131.61l8.15-.33c11.75-.32,19.26-2.28,23.18-5.87,3.26-3.27,4.89-9.14,6.85-27.09l1.3-10.12h11.75l-2,41.13h40.14Z"/><path class="cls-7" d="M788.48,125.41c7.51,6.53,10.44,12.73,12.08,25.45,6.52-7.5,10.44-11.09,15.66-14.68,9.14-6.53,21.54-10.77,31.66-10.77,32.31,0,51.56,19.25,51.56,51.89v94.64h-18.6v-85.5c0-18.61-2.29-27.09-8.81-34.27-6.86-7.18-15.67-10.77-27.42-10.77-15.34,0-28.39,7.18-42.75,23.5v107h-18.6v-92c0-29.7-2-39.49-10.12-47Z"/></g></g></svg>